<?xml version="1.0" encoding="UTF-8" standalone="no"?>
<!-- Generator: Adobe Illustrator 14.0.0, SVG Export Plug-In . SVG Version: 6.00 Build 43363)  -->

<svg
   xmlns:dc="http://purl.org/dc/elements/1.1/"
   xmlns:cc="http://creativecommons.org/ns#"
   xmlns:rdf="http://www.w3.org/1999/02/22-rdf-syntax-ns#"
   xmlns:svg="http://www.w3.org/2000/svg"
   xmlns="http://www.w3.org/2000/svg"
   xmlns:sodipodi="http://sodipodi.sourceforge.net/DTD/sodipodi-0.dtd"
   xmlns:inkscape="http://www.inkscape.org/namespaces/inkscape"
   version="1.1"
   id="Layer_1"
   x="0px"
   y="0px"
   width="1077.8652"
   height="813.01245"
   viewBox="0 0 1077.8633 813.01243"
   enable-background="new -325.985 226.77 1077.872 813.02"
   xml:space="preserve"
   sodipodi:docname="illustration-2.svg"
   inkscape:version="0.92.2 5c3e80d, 2017-08-06"><metadata
     id="metadata365"><rdf:RDF><cc:Work
         rdf:about=""><dc:format>image/svg+xml</dc:format><dc:type
           rdf:resource="http://purl.org/dc/dcmitype/StillImage" /><dc:title></dc:title></cc:Work></rdf:RDF></metadata><defs
     id="defs363" /><sodipodi:namedview
     pagecolor="#ffffff"
     bordercolor="#666666"
     borderopacity="1"
     objecttolerance="10"
     gridtolerance="10"
     guidetolerance="10"
     inkscape:pageopacity="0"
     inkscape:pageshadow="2"
     inkscape:window-width="1920"
     inkscape:window-height="1006"
     id="namedview361"
     showgrid="false"
     inkscape:zoom="0.26719315"
     inkscape:cx="864.92002"
     inkscape:cy="633.28003"
     inkscape:window-x="0"
     inkscape:window-y="1"
     inkscape:window-maximized="1"
     inkscape:current-layer="Layer_1"
     fit-margin-top="0"
     fit-margin-left="0"
     fit-margin-right="0"
     fit-margin-bottom="0" /><g
     id="g358"
     transform="translate(-212.95208,-633.27852)"><path
       enable-background="new    "
       d="m 876.764,744.625 c -46.25,39.264 -106.24,36.725 -158.812,16.289 -52.568,-20.431 -100.859,-56.785 -152.078,-82.64 -42.94,-21.67 -88.002,-35.896 -133.611,-42.229 -65.278,-9.062 -138.18,2 -183.658,65.438 -50.646,70.681 -46.763,198.16 8,263 27.872,33 64.357,49.199 96.184,75 31.816,25.799 61.289,68.562 58.578,118.299 -2.514,46 -31.683,81.371 -61.869,103.541 -23.33,17.13 -52.062,35.841 -54.869,71.33 -2.719,34.33 21.438,61.238 44.51,76.539 75.261,49.91 167.998,49.433 243,-1.26 26.74,-18.094 51.304,-42.15 79.354,-56.23 73.646,-37 154.812,0.24 232.8,13.871 65.999,11.529 133.688,5.552 198.002,-17.479 38.617,-13.829 77.391,-35 104.521,-74.358 19.569,-28.399 31.762,-64.354 43.2,-99.854 12.199,-37.851 23.93,-75.969 35.188,-114.357 6.75,-23.052 13.397,-46.539 15.147,-71.188 3.16,-44.681 -10.16,-88.851 -28.299,-126.552 -43.069,-89.528 -115.61,-152.477 -194.172,-168.469 -78.562,-15.99 -161.672,15.24 -222.604,83.58"
       id="path2"
       inkscape:connector-curvature="0"
       style="opacity:0.1;fill:#bbb8fa" /><ellipse
       enable-background="new    "
       cx="702.49597"
       cy="1165.8051"
       rx="226.979"
       ry="10.36"
       id="ellipse4"
       style="opacity:0.1;fill:#bbb8fa" /><path
       d="m 694.877,1123.028 c -113.471,0 -205.783,-92.312 -205.783,-205.778 0,-113.47 92.283,-205.777 205.783,-205.777 113.5,0 205.75,92.316 205.75,205.777 0,113.456 -92.323,205.778 -205.75,205.778 z m 0,-409.562 c -112.371,0 -203.783,91.42 -203.783,203.777 0,112.358 91.384,203.78 203.783,203.78 112.396,0 203.775,-91.422 203.775,-203.78 10e-4,-112.356 -91.447,-203.777 -203.775,-203.777 z"
       id="path6"
       inkscape:connector-curvature="0"
       style="fill:#ffffff" /><path
       d="m 694.877,1076.846 c -88,0 -159.61,-71.603 -159.61,-159.603 0,-88 71.61,-159.601 159.61,-159.601 88,0 159.6,71.601 159.6,159.601 0,88 -71.6,159.603 -159.6,159.603 z m 0,-317.198 c -86.91,0 -157.61,70.701 -157.61,157.601 0,86.898 70.7,157.604 157.61,157.604 86.908,0 157.6,-70.699 157.6,-157.604 -0.004,-86.9 -70.731,-157.601 -157.6,-157.601 z"
       id="path8"
       inkscape:connector-curvature="0"
       style="fill:#ffffff" /><path
       d="m 694.877,1027.247 c -60.752,0 -110,-49.25 -110,-110 0,-60.753 49.248,-110 110,-110 60.75,0 110,49.25 110,110 -0.075,60.719 -49.282,109.924 -110,110 z m 0,-218 c -59.646,0 -108,48.354 -108,108 0,59.646 48.354,108 108,108 59.646,0 108,-48.354 108,-108 -0.075,-59.62 -48.385,-107.928 -108,-108 z"
       id="path10"
       inkscape:connector-curvature="0"
       style="fill:#ffffff" /><ellipse
       enable-background="new    "
       cx="1192.927"
       cy="1036.434"
       rx="14.271"
       ry="4.7199998"
       id="ellipse12"
       style="opacity:0.1;fill:#bbb8fa" /><ellipse
       enable-background="new    "
       cx="391.48401"
       cy="1285.0959"
       rx="84.039001"
       ry="13.79"
       id="ellipse14"
       style="opacity:0.1;fill:#bbb8fa" /><g
       id="g28"
       style="opacity:0.1"><path
         d="M 538.802,902.997 H 282.414 c -7.395,0.021 -13.379,6.01 -13.397,13.399 v 161.998 c 0.021,7.394 6.01,13.379 13.397,13.396 h 201.129 c 0,0 5.209,27.659 -11.91,30.645 0,0 38.341,2.75 31.642,-30.645 h 35.528 c 7.396,-0.021 13.382,-6.011 13.402,-13.396 V 916.4 c -0.022,-7.397 -6.008,-13.379 -13.403,-13.403 z"
         id="path16"
         inkscape:connector-curvature="0" /><g
         id="g26"
         style="opacity:0.2"><path
           d="m 312.426,945.997 h 196.359 c 3.131,0 5.67,2.536 5.67,5.67 v 1.319 c 0,3.131 -2.539,5.67 -5.67,5.67 H 312.426 c -3.133,0 -5.67,-2.539 -5.67,-5.67 v -1.319 c 0,-3.134 2.537,-5.67 5.67,-5.67 z"
           id="path18"
           inkscape:connector-curvature="0" /><path
           d="m 312.426,1002.576 h 196.359 c 3.131,0 5.67,2.537 5.67,5.671 v 1.317 c 0,3.133 -2.539,5.672 -5.67,5.672 H 312.426 c -3.133,0 -5.67,-2.539 -5.67,-5.672 v -1.317 c 0,-3.132 2.537,-5.671 5.67,-5.671 z"
           id="path20"
           inkscape:connector-curvature="0" /><path
           d="m 312.426,1030.859 h 162.841 c 3.133,0 5.67,2.539 5.67,5.67 v 1.319 c 0,3.132 -2.537,5.669 -5.67,5.669 H 312.426 c -3.133,0 -5.67,-2.537 -5.67,-5.669 v -1.319 c 0,-3.131 2.537,-5.67 5.67,-5.67 z"
           id="path22"
           inkscape:connector-curvature="0" /><path
           d="m 312.426,974.285 h 78.722 c 3.134,0 5.67,2.539 5.67,5.671 v 1.319 c 0,3.131 -2.536,5.67 -5.67,5.67 h -78.722 c -3.133,0 -5.67,-2.539 -5.67,-5.67 v -1.319 c 0,-3.132 2.537,-5.671 5.67,-5.671 z"
           id="path24"
           inkscape:connector-curvature="0" /></g></g><path
       d="m 541.047,901.875 h -256.4 c -7.394,0.021 -13.379,6.014 -13.396,13.399 v 161.998 c 0.021,7.394 6.008,13.379 13.396,13.396 h 201.129 c 0,0 5.223,27.66 -11.906,30.631 0,0 38.34,2.75 31.639,-30.631 h 35.541 c 7.392,-0.021 13.373,-6.013 13.392,-13.396 V 915.278 c -0.022,-7.391 -6.007,-13.377 -13.395,-13.403 z"
       id="path30"
       inkscape:connector-curvature="0"
       style="fill:#ffffff" /><g
       id="g40"
       style="opacity:0.2"><path
         d="m 314.666,944.875 h 196.355 c 3.135,0 5.67,2.537 5.67,5.67 v 1.319 c 0,3.132 -2.535,5.67 -5.67,5.67 H 314.666 c -3.133,0 -5.67,-2.538 -5.67,-5.67 v -1.319 c 0,-3.132 2.537,-5.67 5.67,-5.67 z"
         id="path32"
         inkscape:connector-curvature="0"
         style="fill:#bbb8fa" /><path
         d="m 314.666,1001.456 h 196.355 c 3.135,0 5.67,2.536 5.67,5.672 v 1.317 c 0,3.131 -2.535,5.67 -5.67,5.67 H 314.666 c -3.133,0 -5.67,-2.539 -5.67,-5.67 v -1.317 c 0,-3.134 2.537,-5.672 5.67,-5.672 z"
         id="path34"
         inkscape:connector-curvature="0"
         style="fill:#bbb8fa" /><path
         d="m 314.666,1029.747 h 162.838 c 3.133,0 5.67,2.536 5.67,5.672 v 1.317 c 0,3.131 -2.537,5.67 -5.67,5.67 H 314.666 c -3.133,0 -5.67,-2.539 -5.67,-5.67 v -1.317 c 0,-3.136 2.537,-5.672 5.67,-5.672 z"
         id="path36"
         inkscape:connector-curvature="0"
         style="fill:#bbb8fa" /><path
         d="m 314.666,973.165 h 78.719 c 3.134,0 5.672,2.539 5.672,5.672 v 1.317 c 0,3.131 -2.538,5.67 -5.672,5.67 h -78.719 c -3.133,0 -5.67,-2.539 -5.67,-5.67 v -1.317 c 0,-3.133 2.537,-5.672 5.67,-5.672 z"
         id="path38"
         inkscape:connector-curvature="0"
         style="fill:#bbb8fa" /></g><path
       d="m 445.875,899.308 -14.211,30.221 c 0,0 -2.104,5.67 -3.449,6.722 -1.35,1.049 -7.317,19 -7.317,19 l -15.229,23.539 -1,1.604 -6,-1.65 -4.188,-15.67 0.264,-4.551 v -0.567 c 0,0 9.43,-9.861 11.52,-10.611 0,0 1.643,0.19 4.789,-7.445 3.15,-7.643 6,-9.305 6,-9.305 l 1.645,-5.538 17.657,-28.106 c 0,0 14.802,-21.229 18.829,-11.812 4.022,9.405 -9.31,14.169 -9.31,14.169 z m -59,214.648 c -0.047,0.518 -0.211,1.01 -0.479,1.448 -1.642,2.392 -10.91,51.291 -10.91,51.291 0.74,3.299 -1.34,9.879 -2.695,12.869 -1.359,2.989 -4.343,18.539 -4.343,18.539 0,0 -0.737,33.5 -2.681,38.729 -1.938,5.229 0.616,16.448 0.616,16.448 -0.188,5.16 2.91,10.609 4.75,13.392 0.144,0.184 0.25,0.358 0.361,0.514 0.6,0.854 1,1.35 1,1.35 0.502,1.004 1.215,1.89 2.09,2.59 0.129,0.109 0.271,0.212 0.42,0.32 2.539,1.707 5.388,2.91 8.379,3.539 l 0.291,0.061 c 1.199,0.271 2,0.371 2,0.371 l 0.74,4 -7.92,1.646 -15.104,1 c 0,0 -17.803,1.35 -13.762,-6.58 0.283,-0.541 0.526,-1.105 0.729,-1.687 0.147,-0.379 0.291,-0.774 0.41,-1.18 2.434,-7.619 0.788,-16.881 0.788,-16.881 l -3.479,-26.949 c -5.67,-25.119 4.479,-53.09 4.479,-53.09 0,0 -0.891,-2.24 1.062,-7.92 1.947,-5.681 0,-18.09 0,-18.09 0,0 -1,-16 -2.395,-23.937 -0.528,-3.324 -0.712,-6.699 -0.539,-10.063 0.062,-1.979 0.243,-3.945 0.539,-5.9 l 34.104,-4.521 c 0.01,0 1.93,5.52 1.549,8.691 z"
       id="path42"
       inkscape:connector-curvature="0"
       style="fill:#ffd2c6" /><path
       enable-background="new    "
       d="m 386.375,1279.464 -7.92,1.643 -15.104,1 c 0,0 -17.802,1.353 -13.763,-6.578 0.285,-0.543 0.529,-1.104 0.729,-1.683 0.147,-0.382 0.289,-0.778 0.408,-1.183 3.082,0.099 6.125,0.711 9,1.819 5.067,2 8.895,-3.149 8.895,-3.149 l 2.459,-4.697 0.357,-0.685 c 0.604,0.859 1,1.354 1,1.354 0.59,1.153 1.45,2.146 2.514,2.896 l -0.42,0.882 -2.396,5 c 0,0 3.062,0.312 7.25,1 1.683,0.454 3.423,-0.498 3.939,-2.158 l 0.289,0.062 c 1.197,0.271 2,0.369 2,0.369 z"
       id="path44"
       inkscape:connector-curvature="0"
       style="opacity:0.1" /><path
       d="m 393.705,1283.198 c -0.604,2.688 -17.271,3.521 -17.271,3.521 0,0 -9.277,-0.898 -11.884,1.271 -2.6,2.171 -10.26,1.65 -10.559,1.65 -0.305,0 -4.33,-0.16 -5.91,-7.4 -1.531,-7.062 2.062,-8.288 2.239,-8.35 3.228,0.045 6.421,0.66 9.431,1.826 5.07,2 8.892,-3.141 8.892,-3.141 l 2.817,-5.392 c 0.603,0.855 1,1.351 1,1.351 0.584,1.161 1.447,2.161 2.512,2.909 l -2.811,5.91 c 0,0 3.061,0.312 7.25,1 3.352,0.539 4.08,-2.188 4.229,-3.291 0.01,-0.147 0.01,-0.299 0,-0.448 0,0 2.608,0.75 5.817,1.649 3.008,0.859 4.851,3.871 4.248,6.935 z"
       id="path46"
       inkscape:connector-curvature="0"
       style="fill:#626696" /><path
       d="m 425.115,1149.596 c -0.4,2.392 -0.812,8.579 -0.812,8.579 1.4,5.182 -2.188,17.488 -2.188,17.488 l -1.791,7 c 0.801,9 -4.934,30.909 -4.934,30.909 0,0 -3.843,20.341 -5.843,29.119 -1.19,4.873 -0.844,9.994 1,14.66 0.104,0.236 0.16,0.355 0.16,0.355 0,0.17 0.069,0.33 0.121,0.489 0.049,0.16 0.129,0.479 0.209,0.709 0.459,1.229 1.139,2.356 2,3.343 0.328,0.396 0.688,0.763 1.068,1.104 l 0.062,0.062 c 1.877,1.662 4.029,2.983 6.357,3.91 l 1,0.396 c 1.037,0.395 2.098,0.729 3.172,1 0.115,0.03 0.236,0.062 0.354,0.08 l -0.811,4.698 -10.562,-2.698 -14.146,-4.593 -7,-4 c 0,0 0.08,-0.379 0.221,-1.105 v -0.121 c 0.062,-0.312 0.119,-0.681 0.211,-1.104 1.189,-6.101 3.898,-23.396 2.539,-36.101 -1.688,-15.75 4.869,-37.489 6.472,-42.67 0.946,-2.961 1.354,-6.065 1.198,-9.17 -2.6,-3.802 -3.198,-18.938 -3.198,-18.938 0,0 -4.775,-9.777 -8.736,-20.146 -1.31,-3.388 -2.264,-6.896 -2.854,-10.479 -0.461,-2.523 -0.653,-5.097 -0.579,-7.658 0,0 32.118,-29.312 35.643,-0.935 0.119,1 0.229,1.882 0.34,2.779 3.087,25.945 1.706,30.727 1.327,33.038 z"
       id="path48"
       inkscape:connector-curvature="0"
       style="fill:#ffd2c6" /><path
       enable-background="new    "
       d="m 425.115,1268.834 -0.812,4.698 -10.561,-2.698 -14.148,-4.591 -7,-4 c 0,0 0.08,-0.381 0.222,-1.107 v -0.118 c 0.062,-0.312 0.121,-0.684 0.211,-1.104 l 1,-0.102 h 0.08 c 2.014,-0.188 4.039,0.088 5.934,0.801 2.299,0.871 5.314,1.859 5.938,1.438 1.067,-0.459 2.229,-0.66 3.393,-0.603 l 1.471,-3.221 0.209,-0.49 c 0.457,1.229 1.136,2.359 2,3.342 0.351,0.412 0.729,0.802 1.131,1.158 l -0.061,1.144 -0.08,1.606 c 1.578,1.015 3.287,1.806 5.08,2.353 0.467,0.114 0.952,0.114 1.42,0 l 1,0.397 c 1.037,0.396 2.096,0.729 3.17,1 0.128,0.046 0.262,0.079 0.403,0.097 z"
       id="path50"
       inkscape:connector-curvature="0"
       style="opacity:0.1" /><path
       d="m 419.875,1278.865 c -2.951,-0.85 -10.062,-2.198 -11.211,-1.147 -1.149,1.053 -10.998,0 -10.998,0 -2.104,-0.033 -4.039,-1.178 -5.09,-3 -2,-3.188 -0.396,-13.512 -0.396,-13.512 l 0.729,-0.064 1.221,-0.121 h 0.08 c 2.015,-0.19 4.041,0.082 5.931,0.801 2.301,0.859 5.319,1.854 5.938,1.438 1.064,-0.463 2.229,-0.668 3.391,-0.6 l 1.684,-3.712 c 0.459,1.229 1.138,2.357 2,3.341 0.349,0.413 0.728,0.803 1.132,1.159 l -0.146,2.75 c 1.58,1.007 3.289,1.793 5.08,2.341 0.896,0.364 1.918,0.041 2.439,-0.771 0.08,-0.127 0.141,-0.27 0.18,-0.41 0.09,0.17 1.062,0.5 4.17,1.392 3.382,-0.188 6.645,1.278 8.145,5.858 1.5,4.58 -11.391,5.098 -14.279,4.257 z"
       id="path52"
       inkscape:connector-curvature="0"
       style="fill:#626696" /><path
       enable-background="new    "
       d="m 386.875,1113.956 c -0.66,0.188 -1.26,0.368 -1.818,0.551 -1.438,0.438 -2.913,0.752 -4.409,0.934 -9.433,1.33 -25,0.527 -29.933,0.221 0.062,-1.977 0.244,-3.943 0.541,-5.898 l 34.103,-4.521 c -0.004,-0.01 1.897,5.542 1.516,8.713 z"
       id="path54"
       inkscape:connector-curvature="0"
       style="opacity:0.1" /><path
       d="m 416.594,1105.675 c 0,0 -12.52,1.938 -22.696,4.17 -3.396,0.738 -6.541,1.512 -8.857,2.271 -1.441,0.435 -2.916,0.742 -4.41,0.933 -11.34,1.594 -31.479,0.119 -31.479,0.119 -5.525,-17.938 6.725,-40.525 6.725,-40.525 -0.291,-1.805 2.549,-7.32 2.549,-7.32 l 0.052,-0.18 1.739,-6.4 h 46.511 l 0.569,2.75 1.179,5.603 7.301,34.671 z"
       id="path56"
       inkscape:connector-curvature="0"
       style="fill:#626696" /><path
       enable-background="new    "
       d="m 423.795,1116.558 -0.278,0.117 -5.438,2.408 c -5.895,2.725 -23.521,3.229 -29.684,3.278 -0.461,-2.524 -0.652,-5.094 -0.58,-7.657 0,0 32.119,-29.312 35.643,-0.933 0.116,1.014 0.225,1.885 0.337,2.787 z"
       id="path58"
       inkscape:connector-curvature="0"
       style="opacity:0.1" /><path
       d="m 424.653,1113.785 -1.144,0.5 -5.438,2.423 c -6,2.76 -24.189,3.25 -29.998,3.278 h -1.531 c -2.688,-0.092 -5.379,-2.608 -5.379,-3.271 0,-0.357 -0.281,-2.131 -0.521,-3.646 -0.199,-1.221 -0.379,-2.271 -0.379,-2.271 0,0 -12,-5.181 -18.093,-9.368 -4.567,-3.106 -3.42,-25.209 -2.528,-36.317 0.312,-3.83 0.58,-6.354 0.58,-6.354 l 47.077,2.75 6.603,0.382 3.779,0.841 1,0.211 c 0,0 2.698,19.737 4,21.379 1.301,1.642 0.459,7.183 0.301,10.33 -0.008,1.347 -0.15,2.688 -0.438,4 0,0 1.938,5.541 1.479,8.642 -0.205,2.18 0.008,4.386 0.63,6.491 z"
       id="path60"
       inkscape:connector-curvature="0"
       style="fill:#626696" /><circle
       cx="374.26401"
       cy="930.56799"
       r="19.290001"
       id="circle62"
       style="fill:#ffd2c6" /><path
       d="m 364.875,938.615 c 0,0 1.34,18.271 -2.393,22.461 -3.729,4.19 -13.461,12.109 -13.461,12.109 l 3,12.409 16.897,1.948 19.74,-21.093 -4.49,-5.528 c 0,0 -3.438,-11.67 -0.602,-17.5 2.85,-5.822 -18.691,-4.806 -18.691,-4.806 z"
       id="path64"
       inkscape:connector-curvature="0"
       style="fill:#ffd2c6" /><path
       enable-background="new    "
       d="m 405.666,978.785 -1,1.604 -6,-1.65 -4.188,-15.67 0.261,-4.551 1.229,-1.771 c 0,0 6.58,0.159 6.291,6.145 -0.294,5.244 2.696,13.893 3.407,15.893 z m 13.008,86.532 c 0,0 -4.76,1.062 -10.209,1.771 -5.449,0.709 -11.737,1.067 -14.317,-0.433 -4.33,-2.561 -27.789,-1.83 -34.521,-1.567 -0.479,0 -0.856,0 -1.16,0.053 l 1.74,-6.398 h 46.51 l 0.57,2.75 6.6,0.38 3.779,0.84 c 0.629,1.54 1.008,2.604 1.008,2.604 z"
       id="path66"
       inkscape:connector-curvature="0"
       style="opacity:0.1" /><path
       d="m 394.756,957.939 c 0,0 6.58,0.146 6.279,6.129 -0.303,5.979 3.59,16.302 3.59,16.302 l -1.5,3.438 c 0,0 -2.09,8.369 -0.449,10.471 1.642,2.101 7.629,2.091 4.189,19.289 0,0 -0.74,12.861 1.049,17.052 1.791,4.188 1.791,14.198 4.479,18.395 2.688,4.188 6.291,13.906 6.291,13.906 0,0 -19.449,4.328 -24.525,1.344 -5.08,-2.99 -36.344,-1.475 -36.344,-1.475 0,0 0.147,-5.237 0,-5.83 -0.273,-1.318 -0.006,-2.695 0.75,-3.816 1,-1.42 2.688,-3.812 1.791,-5.897 -0.896,-2.093 2.25,-5.183 0.604,-8.42 -1.647,-3.24 -3.647,-3.892 -3.25,-5.66 0.396,-1.77 -0.645,-4.17 -1.83,-5.66 -1.188,-1.484 -9.278,-17.299 -9.278,-17.299 l -1.343,-7.41 c 0,0 -10.407,-7.631 -10.219,-11.221 0.188,-3.591 3.938,-8.562 3.938,-8.562 l 10,-9.83 c 0,0 5.528,6 10.907,3.892 5.384,-2.106 16.99,-12.106 16.99,-12.106 0,0 4.144,-2.239 4.438,-3.884 0.303,-1.642 2.84,-0.146 2.84,-0.146 0,0 3.74,-2.051 4.49,-1.33 0.75,0.72 4,1.33 4,1.33 z"
       id="path68"
       inkscape:connector-curvature="0"
       style="fill:#ffcde5" /><path
       d="m 338.224,989.084 -3.188,2.489 c 0,0 -3.24,5.841 -4,16.302 -0.764,10.459 -4,25.264 -4,25.264 l -6.281,11.229 c 0,0 -10.352,21.671 -11.688,27.421 -1.34,5.75 -7.479,15.479 -7.479,15.479 0,0 -20.791,18.682 -6.278,22 14.51,3.316 14.946,-14.869 14.946,-14.869 0,0 3.394,-3.74 3.938,-6.278 0.553,-2.541 18.938,-35.07 18.938,-35.07 0,0 6.441,-8.75 5.093,-13.379 0,0 8.368,-19.688 8.368,-24.631 -0.155,-4.107 -0.604,-8.201 -1.34,-12.25 l 1.34,-10.316 z"
       id="path70"
       inkscape:connector-curvature="0"
       style="fill:#ffd2c6" /><path
       enable-background="new    "
       d="m 381.295,1030.317 c 0,0 -14.66,7.672 -17.5,8.069 -2.84,0.396 12.41,-1.604 12.41,-1.604 z m 11.961,5.977 c 0,0 -19.438,6.578 -28,5.381 0.039,0 21.269,4.039 28,-5.381 z"
       id="path72"
       inkscape:connector-curvature="0"
       style="opacity:0.1" /><path
       enable-background="new    "
       d="m 394.455,1038.448 c 0,0 -17.5,11 -27.82,9.209 0,0 24.08,4.791 27.82,2.25 l -10.771,-3 c 10e-4,-10e-4 11.972,-6.323 10.771,-8.459 z m -20.16,-141.823 c -5.062,-1 -10.67,-0.396 -14.719,2.778 -3,2.359 -5,6 -8.371,7.722 -1.783,0.75 -3.609,1.396 -5.473,1.934 -6.754,2.76 -10.732,9.789 -9.631,17 0.528,3 1.92,5.695 2.604,8.615 1.221,5.225 0.146,10.69 -1.184,15.885 -3.688,14.424 -9.287,28.291 -16.646,41.229 -0.586,0.801 -0.879,1.776 -0.83,2.771 0.177,0.666 0.521,1.271 1,1.771 6.91,8 18.16,10.729 28.724,11.092 3.893,0.129 8,0 11.379,-1.894 2.203,-1.267 4.102,-3.004 5.553,-5.09 3.687,-5.031 5.518,-11.186 5.182,-17.41 -0.291,-5 -2,-10.09 -0.711,-14.938 0.14,-0.68 0.447,-1.312 0.896,-1.83 1.145,-1.158 3,-0.857 4.645,-1.053 4.392,-0.511 7.229,-5.142 7.75,-9.521 0.521,-4.381 -0.58,-8.812 -0.604,-13.223 -0.021,-5.842 1.803,-11.536 5.209,-16.277 1.462,-2 3.33,-4 3.82,-6.512 0.618,-3.148 -1.211,-5.473 -2.789,-8 -2.451,-3.881 -3.648,-8.408 -7.384,-11.369 -2.481,-1.863 -5.367,-3.122 -8.42,-3.68 z"
       id="path74"
       inkscape:connector-curvature="0"
       style="opacity:0.1" /><path
       d="m 373.094,895.425 c -5.049,-1 -10.67,-0.396 -14.719,2.789 -3,2.354 -5,6 -8.371,7.725 -1.776,0.748 -3.604,1.392 -5.459,1.92 -6.756,2.758 -10.739,9.787 -9.643,17 0.529,3 1.922,5.698 2.606,8.631 1.222,5.22 0.144,10.681 -1.18,15.869 -3.684,14.422 -9.271,28.287 -16.621,41.229 -0.588,0.797 -0.877,1.772 -0.817,2.766 0.17,0.668 0.518,1.275 1,1.771 6.92,8 18.157,10.729 28.725,11.09 3.889,0.145 8,0 11.379,-1.879 2.203,-1.271 4.1,-3.013 5.551,-5.103 3.666,-5.022 5.482,-11.158 5.146,-17.369 -0.289,-5 -2,-10.09 -0.697,-14.948 0.135,-0.679 0.438,-1.31 0.891,-1.83 1.142,-1.16 3,-0.855 4.65,-1 4.389,-0.513 7.219,-5.142 7.736,-9.53 0.521,-4.39 -0.566,-8.8 -0.603,-13.22 -0.037,-5.854 1.783,-11.573 5.199,-16.33 1.461,-2 3.316,-4 3.812,-6.521 0.616,-3.149 -1.201,-5.461 -2.779,-8 -2.447,-3.881 -3.648,-8.41 -7.394,-11.36 -2.469,-1.883 -5.354,-3.143 -8.412,-3.7 z"
       id="path76"
       inkscape:connector-curvature="0"
       style="fill:#985c7e" /><path
       enable-background="new    "
       d="m 366.635,1082.406 c 0,0 3.843,17.938 10.224,22.83 z"
       id="path78"
       inkscape:connector-curvature="0"
       style="opacity:0.1" /><g
       id="g82"
       style="opacity:0.1"><path
         d="m 336.045,928.859 c -0.199,-0.698 -0.43,-1.399 -0.67,-2.09 0.201,0.695 0.429,1.396 0.67,2.09 z m 54.56,-15.661 c 0.047,0.563 0.021,1.134 -0.08,1.688 -0.5,2.525 -2.357,4.5 -3.816,6.521 -3.414,4.736 -5.236,10.435 -5.211,16.271 0,4.421 1.107,8.83 0.59,13.223 -0.521,4.392 -3.354,9 -7.737,9.527 -1.619,0.188 -3.513,-0.117 -4.642,1 -0.453,0.521 -0.768,1.15 -0.899,1.83 -1.271,4.856 0.422,9.938 0.698,14.947 0.34,6.209 -1.479,12.349 -5.139,17.37 -1.455,2.087 -3.352,3.826 -5.555,5.104 -3.433,1.853 -7.486,2 -11.392,1.882 -10.381,-0.354 -21.42,-3 -28.358,-10.712 -0.187,0.457 -0.24,0.955 -0.17,1.438 0.17,0.671 0.518,1.281 1,1.771 6.92,8 18.159,10.729 28.725,11.091 3.889,0.142 8,0 11.379,-1.881 2.201,-1.271 4.096,-3.018 5.551,-5.104 3.666,-5.021 5.484,-11.158 5.146,-17.367 -0.287,-5 -2,-10.094 -0.697,-14.95 0.135,-0.681 0.438,-1.31 0.891,-1.829 1.143,-1.16 3,-0.859 4.65,-1 4.391,-0.512 7.219,-5.145 7.736,-9.529 0.521,-4.392 -0.566,-8.801 -0.603,-13.221 -0.022,-5.834 1.797,-11.529 5.199,-16.271 1.461,-2 3.316,-4 3.812,-6.521 0.317,-1.83 -0.068,-3.719 -1.078,-5.278 z"
         id="path80"
         inkscape:connector-curvature="0" /></g><path
       d="m 734.205,1397.253 c 0,0 -38.053,-2.301 -33.562,24.358 0,0 -0.892,4.712 3.381,6.853 0,0 0.067,-2 3.897,-1.301 1.363,0.229 2.75,0.297 4.129,0.198 1.869,-0.129 3.646,-0.862 5.062,-2.09 0,0 10.688,-4.42 14.854,-21.899 0,0 3.08,-3.812 3,-4.789 l -6.42,2.74 c 0,0 2.188,4.629 0.459,8.479 0,0 -0.199,-8.312 -1.438,-8.107 -0.25,0 -3.33,1.601 -3.33,1.601 0,0 3.771,8.069 0.922,13.936 0,0 1.078,-9.938 -2.104,-13.343 l -4.52,2.632 c 0,0 4.408,8.34 1.42,15.142 0,0 0.771,-10.431 -2.369,-14.49 l -4.104,3.188 c 0,0 4.147,8.211 1.619,13.853 0,0 -0.33,-12.142 -2.513,-13 0,0 -3.578,3.147 -4.119,4.449 0,0 2.83,6 1.07,9.108 0,0 -1.08,-8.094 -2,-8.119 0,0 -3.57,5.355 -3.938,9 0.172,-3.396 1.229,-6.688 3.067,-9.552 -2.059,0.392 -3.955,1.373 -5.459,2.827 0,0 0.551,-3.786 6.34,-4.116 0,0 3,-4.062 3.74,-4.312 0,0 -5.764,-0.479 -9.25,1.067 0,0 3.066,-3.58 10.312,-2 l 4,-3.302 c 0,0 -7.58,-1 -10.802,0.108 0,0 3.699,-3.171 11.894,-0.858 l 4.396,-2.642 c 0,0 -6.459,-1.392 -10.31,-0.892 0,0 4.06,-2.188 11.601,0.188 l 3.149,-1.42 c 0,0 -4.739,-0.931 -6.12,-1.068 -1.38,-0.143 -1.459,-0.527 -1.459,-0.527 2.998,-0.5 6.074,-0.151 8.889,1 0.006,0 6.727,-2.478 6.616,-2.9 z"
       id="path84"
       inkscape:connector-curvature="0"
       style="fill:#bbb8fa" /><ellipse
       enable-background="new    "
       cx="707.99597"
       cy="1430.796"
       rx="26.93"
       ry="4.5500002"
       id="ellipse86"
       style="opacity:0.1;fill:#bbb8fa" /><path
       d="m 1032.313,1364.656 c 0,0 -38,-2.289 -33.562,24.371 0,0 -0.893,4.709 3.381,6.851 0,0 0.066,-2 3.896,-1.312 1.367,0.229 2.758,0.297 4.143,0.198 1.865,-0.122 3.644,-0.856 5.052,-2.091 0,0 10.698,-4.409 14.852,-21.894 0,0 3.08,-3.817 3,-4.801 l -6.461,2.801 c 0,0 2.188,4.631 0.475,8.479 0,0 -0.211,-8.318 -1.438,-8.119 -0.25,0 -3.342,1.602 -3.342,1.602 0,0 3.771,8.068 0.932,13.939 0,0 1.08,-9.939 -2.107,-13.354 l -4.521,2.644 c 0,0 4.41,8.329 1.42,15.132 0,0 0.771,-10.434 -2.368,-14.49 l -4.091,3.17 c 0,0 4.143,8.222 1.606,13.859 0,0 -0.329,-12.147 -2.5,-13.062 0,0 -3.579,3.159 -4.131,4.461 0,0 2.843,6 1.08,9.103 0,0 -1.08,-8.079 -2,-8.118 0,0 -3.567,5.357 -3.938,9 0.174,-3.396 1.233,-6.69 3.08,-9.552 -2.062,0.392 -3.963,1.375 -5.472,2.83 0,0 0.562,-3.778 6.351,-4.119 0,0 3,-4.062 3.74,-4.312 0,0 -5.763,-0.479 -9.263,1.07 0,0 3.078,-3.58 10.312,-1.951 l 4,-3.299 c 0,0 -7.592,-1 -10.802,0.105 0,0 3.699,-3.157 11.892,-0.855 l 4.397,-2.632 c 0,0 -6.473,-1.399 -10.317,-0.894 0,0 4.062,-2.188 11.608,0.183 l 3.146,-1.407 c 0,0 -4.738,-0.934 -6.131,-1.08 -1.392,-0.147 -1.459,-0.53 -1.459,-0.53 3.002,-0.498 6.084,-0.149 8.897,1 0.01,0 6.762,-2.506 6.643,-2.926 z"
       id="path88"
       inkscape:connector-curvature="0"
       style="fill:#bbb8fa" /><ellipse
       enable-background="new    "
       cx="1006.104"
       cy="1398.197"
       rx="26.93"
       ry="4.5500002"
       id="ellipse90"
       style="opacity:0.1;fill:#bbb8fa" /><ellipse
       enable-background="new    "
       cx="1061.024"
       cy="1070.1071"
       rx="77.553001"
       ry="12.72"
       id="ellipse92"
       style="opacity:0.1;fill:#bbb8fa" /><linearGradient
       id="SVGID_1_"
       gradientUnits="userSpaceOnUse"
       x1="1678.8152"
       y1="218.741"
       x2="1678.8152"
       y2="615.67651"
       gradientTransform="matrix(1,0,0,-1,-628.1978,1293.356)"><stop
         offset="0"
         style="stop-color:#808080;stop-opacity:0.25"
         id="stop94" /><stop
         offset="0.54"
         style="stop-color:#808080;stop-opacity:0.12"
         id="stop96" /><stop
         offset="1"
         style="stop-color:#808080;stop-opacity:0.1"
         id="stop98" /></linearGradient><path
       d="m 1151.316,819.278 c 3.172,-10.629 0,-21.26 0,-21.26 v -10 c 0,0 3.619,-19.609 -12.5,-32.189 l -10.699,-9.43 c 0,0 -6,-5.145 -7.729,-5.475 -0.329,-0.068 -0.663,-0.117 -1,-0.146 l -0.317,-0.18 c -0.92,-1.574 -1.701,-3.229 -2.342,-4.936 1.401,0.186 2.812,-0.302 3.812,-1.3 0.388,-0.44 0.688,-0.95 0.899,-1.5 0.619,-1.391 0.721,-3.069 1.25,-4.551 0.463,-1.201 1.142,-2.312 2,-3.271 -0.108,0.184 -0.222,0.354 -0.32,0.528 1.514,-1.881 3.49,-3.5 4.9,-5.489 0.282,-0.392 0.545,-0.8 0.778,-1.222 l -0.211,0.25 c 2,-3.158 2.566,-7 3.142,-10.68 0.272,-1.256 0.295,-2.556 0.062,-3.82 -0.271,-0.842 -0.63,-1.646 -1.064,-2.42 -2.32,-4.799 -2.271,-10.815 -6,-14.646 -2.791,-2.871 -7,-3.75 -11,-4.24 -4,-0.49 -8.171,-0.771 -11.591,-2.859 -0.959,-0.725 -2.021,-1.307 -3.145,-1.729 -1.172,-0.406 -2.471,0.074 -3.092,1.146 -0.067,0.312 -0.209,0.59 -0.408,0.83 -0.361,0.211 -0.807,0.236 -1.188,0.07 l -5.303,-1.42 0.062,0.27 h -0.132 l 0.188,0.842 c 0.172,0 0.354,0 0.5,0.289 l -0.85,1.312 c -1.646,-0.029 -3.271,-0.369 -4.791,-1 0,0.086 0,0.174 0,0.26 h -0.068 c -0.102,1.5 1.604,2.471 2.119,3.881 0.211,0.615 0.211,1.283 0,1.898 -0.224,0.57 -0.562,1.092 -1,1.521 -1.892,1.859 -4.289,1.49 -6.459,2.671 -0.381,0.157 -0.67,0.479 -0.791,0.868 -0.082,0.146 -0.104,0.316 -0.066,0.48 0.084,0.227 0.234,0.418 0.438,0.551 0.633,0.508 1.324,0.938 2.062,1.279 l -0.619,0.6 c -9.189,9.355 -9.059,24.385 0.302,33.572 2.264,2.223 4.948,3.971 7.896,5.139 0.08,0.41 0.144,0.83 0.199,1.279 v 0.117 l 0.062,0.567 -7.149,3 c -2.197,-0.016 -4.192,-1.297 -5.122,-3.289 -1.659,-3.438 -7.529,0 -7.529,0 0,0 -17.932,-1.352 -24.562,1.949 0,0 -10.699,-4.49 -12.199,-4.791 -1.5,-0.299 -3.771,-1.5 -4.829,-1.199 -1.061,0.302 -2.409,-2 -3.159,-1.801 -0.75,0.201 -1,-1.487 -3.459,-2.09 -2.462,-0.604 -3.318,0.146 -6,-2.55 -2.684,-2.7 -24.712,-13.319 -24.712,-13.319 l -9.938,-8.09 -10.55,-8.381 -0.19,0.35 c -0.06,-0.25 -0.129,-0.51 -0.198,-0.774 -1.036,-4.185 -2.345,-8.287 -3.909,-12.304 -0.682,-1.619 -1,-3.672 -1.893,-2.592 -0.56,0.65 -1.521,-0.77 -3,-1.729 -1.127,-0.785 -2.681,-0.511 -3.467,0.616 -0.103,0.146 -0.188,0.302 -0.252,0.463 -8.212,12.869 -11.15,13.802 -6.395,18.513 4.229,4.199 7.054,7.908 10.513,9 l 0.408,0.129 c -0.074,0.016 -0.151,0.016 -0.229,0 l 20,23.947 c 0,0 14.459,12.58 24.41,16.619 9.948,4.041 9.188,5.239 9.188,5.239 0,0 30.129,15.271 34.802,15 4.672,-0.271 3.771,31.289 1.812,36.379 -1.959,5.093 -5.119,41.921 -5.119,41.921 0,0 -3,7.778 0.149,13.172 0,0 0.699,10.317 0.065,12.789 -2.75,4.229 -6.655,11.407 -7.302,18.804 0,0.39 -0.078,0.761 -0.119,1.14 -0.195,0.232 -0.438,0.433 -0.709,0.58 0,0 0.264,-0.062 0.671,-0.199 -0.302,3.07 -0.972,6.093 -2,9 -1.604,4.148 -2.437,8.558 -2.462,13 v 23.789 l -1.984,14.75 c 0,0 -2.41,11.17 0,13.771 1.021,1.301 1.496,2.942 1.314,4.592 -0.103,1.904 0.438,3.789 1.541,5.35 0.852,0.935 1.221,2.201 1,3.439 -0.801,2.592 1.184,30.131 1.184,30.131 0,0 -0.58,7.59 -1.382,8 -0.802,0.408 1.343,8.721 1.343,8.721 0,0 -8.145,6.789 -6.069,10.394 l 2.08,3.188 -0.552,0.539 -0.343,0.342 c -0.625,-0.36 -1.354,-0.5 -2.067,-0.393 -2.555,2.62 -5.29,5.059 -8.188,7.291 -3.671,2.646 -13.657,6.488 -13.657,6.488 l -7.882,0.643 h -0.147 c 0,0 -3.771,-0.354 -1.659,5.486 2.11,5.842 21,4 21,4 l 11,-1.736 c 0,0 19.681,0.09 25.312,-1.149 2.356,-0.526 2.92,-1.776 2.771,-3.062 l -0.062,-0.062 c -0.271,-1.218 -0.816,-2.353 -1.607,-3.312 -0.043,-0.062 -0.091,-0.117 -0.143,-0.17 l 0.356,-4 c 8.353,-4.812 -2.356,-14.279 -2.356,-14.279 0,0 3.658,-8 5.552,-10.567 1.892,-2.568 1.882,-40.724 1.882,-40.724 0,0 1,-13.776 -1.61,-17 -0.091,-2.11 0.989,-4.104 2.812,-5.188 1.856,-1.271 7.479,-18.761 11.892,-33.278 l 2.784,17.107 c 0,0 -0.605,8.184 1.209,10.58 0.681,0.907 0.946,2.062 0.737,3.182 -0.438,2.309 -0.302,4.689 0.409,6.932 0.201,0.955 0.714,1.82 1.448,2.459 1.609,0.804 1.709,3.65 2.312,4.25 0.604,0.604 4.319,-0.85 4.521,1.345 0.112,1.93 0.112,3.856 0,5.789 l 1.209,35.526 c 0,0 -2,3 -2.408,10.778 -0.172,3.36 -0.802,5.271 -1.448,6.36 -0.739,1.198 -0.619,2.743 0.302,3.815 l 0.351,0.398 -1.488,1.146 c -1.217,0.947 -1.603,2.617 -0.92,4 -0.979,0.854 -1.351,2.221 -0.933,3.451 0.072,0.189 0.16,0.379 0.261,0.561 -1.127,0.181 -2.172,0.693 -3,1.479 -1.479,2.041 -3.271,3.843 -5.302,5.341 -2.952,2.254 -5.776,4.672 -8.461,7.239 -1.263,1.748 -2.967,3.13 -4.938,4 -0.479,0.194 -0.979,0.343 -1.488,0.438 -4,0.812 -2.712,4.949 0.5,5.604 3.211,0.646 13.857,3.938 22.149,2 0,0 2.461,1 6.069,-0.841 3.606,-1.84 11.83,-4 11.83,-4 0,0 4.521,0 5.119,-1.802 0.159,-0.566 0.248,-1.155 0.26,-1.75 l 0.132,-0.118 -0.121,-0.107 c 0.015,-1.342 -0.092,-2.68 -0.31,-4 -0.11,-0.682 -0.239,-1.303 -0.36,-1.789 -0.39,-1.5 -1.101,-3.434 -1.408,-4.25 0.054,-0.065 0.102,-0.139 0.143,-0.211 1.722,-2.91 -1.143,-10 -1.143,-10 0.944,-1.482 2.097,-2.83 3.408,-4 1.61,-1.189 5.83,-32.33 5.83,-32.33 0,0 -0.199,-8 2,-11.58 2.2,-3.58 -3,-25.352 -3,-25.352 0,0 -2.209,-5 -1.397,-6.791 0.812,-1.789 -0.812,-8.379 -0.812,-8.379 v -7.857 c 0,-0.939 -0.158,-1.871 -0.462,-2.764 -0.618,-1.853 -1.538,-5.396 -0.538,-7.998 1.409,-3.594 4.618,-25.75 4.618,-25.75 0,0 -2.511,-9.771 1.16,-17.553 0.297,-0.621 0.631,-1.229 1,-1.812 2.722,-4.279 1.907,-11.883 0.566,-18 -0.211,-0.951 -0.433,-1.859 -0.646,-2.729 -0.104,-0.367 -0.198,-0.722 -0.289,-1.064 l 0.431,-0.186 c 0,0 0,-0.591 0.131,-1.576 3.009,-0.586 5.636,-2.396 7.25,-5 0,0 9.188,-10.33 17.328,-14.674 8.145,-4.341 8.739,-10.63 8.739,-10.63 -1.209,-2.102 2.149,-10.631 2.149,-10.631 z m -26.47,13.766 -8.698,10.093 c 0,-0.021 0,-0.038 0,-0.062 -2.263,-3.139 2.108,-10.18 2.108,-10.18 l 7.188,-16.109 c -0.062,2.08 -0.312,3.9 -0.938,4.761 -2,2.698 3.605,7.188 3.605,7.188 -3.01,-0.028 -3.312,4.312 -3.312,4.312 z"
       id="path101"
       style="fill:url(#SVGID_1_)"
       inkscape:connector-curvature="0" /><path
       d="m 971.613,700.785 -4.736,9.212 c -1.51,-0.123 -2.99,-0.435 -4.424,-0.921 -4.586,-1.381 -8.361,-4.649 -10.381,-9 -4.236,-9.381 2.779,-15.438 6.055,-17.221 3.271,-1.779 6.299,-3.83 8.75,2 1.543,3.988 2.828,8.07 3.855,12.221 0.542,2.222 0.881,3.709 0.881,3.709 z m 150.922,48 -7.578,11.312 c 0,0 -35.858,17.102 -29,-3 3,-8.854 3.367,-15.33 2.828,-19.812 v -0.118 c -0.697,-5.601 -2.812,-8 -2.812,-8 0,0 34.95,-17.882 29.75,-5.646 -1.061,2.545 -1.482,5.307 -1.238,8.051 0.436,3.953 1.719,7.765 3.771,11.17 1.22,2.152 2.654,4.176 4.279,6.043 z"
       id="path103"
       inkscape:connector-curvature="0"
       style="fill:#cc818c" /><path
       d="m 1111.677,972.576 c 0,0 5.16,21.619 3,25.189 -2.159,3.566 -2,11.5 -2,11.5 0,0 -4.17,30.947 -5.76,32.141 -1.305,1.17 -2.438,2.521 -3.369,4 0,0 2.83,7 1.129,9.898 -0.256,0.445 -0.651,0.801 -1.129,1 -2.66,1.117 -12.479,-3.854 -18.069,-6.898 -0.703,-0.377 -1.232,-1.012 -1.479,-1.771 -0.428,-1.223 -0.063,-2.574 0.908,-3.422 -0.68,-1.383 -0.301,-3.051 0.908,-4 l 1.471,-1.144 -0.34,-0.396 c -0.91,-1.067 -1.029,-2.604 -0.301,-3.802 0.641,-1.08 1.262,-3 1.432,-6.312 0.398,-7.74 2.383,-10.711 2.383,-10.711 l -1.188,-35.312 c 0.106,-1.912 0.106,-3.834 0,-5.75 -0.199,-2.181 -3.869,-0.736 -4.459,-1.341 -0.59,-0.6 -0.701,-3.42 -2.281,-4.219 -0.729,-0.636 -1.237,-1.492 -1.438,-2.44 -0.698,-2.229 -0.842,-4.595 -0.407,-6.89 0.205,-1.106 -0.062,-2.254 -0.729,-3.16 -1.792,-2.381 -1.188,-10.51 -1.188,-10.51 l -2.743,-17 c -4.358,14.431 -9.91,31.812 -11.739,33.066 -1.806,1.078 -2.873,3.062 -2.778,5.16 2.58,3.17 1.593,16.856 1.593,16.856 0,0 0,37.881 -1.859,40.461 -1.857,2.58 -5.479,10.513 -5.479,10.513 0,0 10.632,9.459 2.271,14.229 l -0.09,0.049 c -8.528,4.763 -26.183,-8.521 -26.183,-8.521 l 1.843,-1.842 0.539,-0.541 -2,-3.181 c -2.052,-3.567 6,-10.312 6,-10.312 0,0 -2.145,-8.33 -1.354,-8.729 0.789,-0.396 1.354,-7.938 1.354,-7.938 0,0 -1.949,-27.368 -1.158,-29.938 0.233,-1.227 -0.11,-2.485 -0.94,-3.42 -1.08,-1.554 -1.612,-3.42 -1.521,-5.312 0.176,-1.631 -0.291,-3.271 -1.302,-4.562 -2.381,-2.58 0,-13.688 0,-13.688 l 2,-14.683 V 915.52 c 0,-4.479 0.812,-8.929 2.396,-13.119 1.197,-3.401 1.928,-6.959 2.16,-10.562 0.647,-7.521 4.688,-14.83 7.41,-19 1.438,-2.198 2.51,-3.521 2.51,-3.521 l 63.475,-2.485 c 0,0 1,2.828 2,6.762 0.222,0.857 0.438,1.76 0.644,2.711 1.328,6.1 2.129,13.646 -0.562,17.909 -0.377,0.568 -0.711,1.168 -1,1.788 -3.631,7.729 -1.146,17.438 -1.146,17.438 0,0 -3.17,22 -4.562,25.593 -1,2.526 -0.079,6.062 0.541,7.897 0.294,0.883 0.444,1.812 0.448,2.736 v 7.812 c 0,0 1.591,6.541 0.802,8.33 -0.812,1.805 1.336,6.767 1.336,6.767 z"
       id="path105"
       inkscape:connector-curvature="0"
       style="fill:#444053" /><path
       enable-background="new    "
       d="m 1114.596,894.785 c -0.37,0.576 -0.704,1.177 -1,1.791 l -3.567,-0.198 c 0.34,-1.842 -2.092,-19.092 -2.092,-19.092 l 7.198,-0.408 c 1.341,6.141 2.15,13.698 -0.539,17.907 z"
       id="path107"
       inkscape:connector-curvature="0"
       style="opacity:0.1" /><path
       d="m 1115.187,894.239 c -0.377,0.57 -0.713,1.17 -1,1.789 l -3.58,-0.198 c 0.351,-1.841 -2.08,-19.101 -2.08,-19.101 l 7.188,-0.399 c 1.359,6.095 2.162,13.65 -0.528,17.909 z"
       id="path109"
       inkscape:connector-curvature="0"
       style="fill:#444053" /><path
       enable-background="new    "
       d="m 1115.187,894.239 c -0.377,0.57 -0.713,1.17 -1,1.789 l -3.58,-0.198 c 0.351,-1.841 -2.08,-19.101 -2.08,-19.101 l 7.188,-0.399 c 1.359,6.095 2.162,13.65 -0.528,17.909 z"
       id="path111"
       inkscape:connector-curvature="0"
       style="opacity:0.05" /><path
       enable-background="new    "
       d="m 1104.677,1055.278 c -0.256,0.447 -0.651,0.799 -1.129,1 -2.66,1.119 -12.479,-3.854 -18.069,-6.899 -0.703,-0.375 -1.232,-1.013 -1.479,-1.771 3.183,-0.578 5.271,3 5.271,3 2.19,-1.379 5.088,-0.722 6.469,1.474 0.021,0.039 0.049,0.077 0.07,0.118 2.729,4 8.58,2.318 8.58,2.318 0,0 0.118,0.267 0.287,0.76 z"
       id="path113"
       inkscape:connector-curvature="0"
       style="opacity:0.1" /><path
       d="m 1106.324,1067.437 c -0.602,1.777 -5.062,1.777 -5.062,1.777 0,0 -8,2.289 -11.562,4.067 -3.561,1.779 -6,0.843 -6,0.843 -8.188,1.892 -18.698,-1.381 -21.869,-2 -3.171,-0.619 -4.421,-4.763 -0.5,-5.552 0.503,-0.103 0.993,-0.254 1.47,-0.448 1.957,-0.873 3.646,-2.254 4.882,-4 2.648,-2.552 5.438,-4.953 8.352,-7.198 2.014,-1.483 3.778,-3.271 5.241,-5.302 4.66,-4.119 8,1.539 8,1.539 2.19,-1.382 5.09,-0.724 6.469,1.474 0.023,0.039 0.053,0.077 0.07,0.118 2.729,4 8.58,2.317 8.58,2.317 0,0 1,2.683 1.541,4.609 0.118,0.486 0.25,1.105 0.358,1.789 0.395,1.974 0.403,3.994 0.03,5.967 z"
       id="path115"
       inkscape:connector-curvature="0"
       style="fill:#ff748f" /><circle
       cx="1092.687"
       cy="1054.344"
       r="0.55000001"
       id="circle117"
       style="fill:#575988" /><circle
       cx="1088.027"
       cy="1058.705"
       r="0.551"
       id="circle119"
       style="fill:#575988" /><circle
       cx="1083.285"
       cy="1062.626"
       r="0.551"
       id="circle121"
       style="fill:#575988" /><circle
       cx="1085.736"
       cy="1060.876"
       r="0.551"
       id="circle123"
       style="fill:#575988" /><circle
       cx="1090.4561"
       cy="1056.385"
       r="0.55000001"
       id="circle125"
       style="fill:#575988" /><path
       d="m 1106.324,1067.437 c -0.602,1.777 -5.062,1.777 -5.062,1.777 0,0 -8,2.289 -11.562,4.067 -3.561,1.779 -6,0.843 -6,0.843 -8.188,1.892 -18.698,-1.381 -21.869,-2 -3.171,-0.619 -4.421,-4.763 -0.5,-5.552 0.503,-0.103 0.993,-0.254 1.47,-0.448 3.464,1.183 7.076,1.854 10.729,2 8.083,0.34 14.48,0 14.48,0 l 8.183,-2.631 c 1.549,-0.938 3.271,-1.563 5.062,-1.841 1.804,-0.364 3.506,-1.106 5,-2.183 0.405,1.972 0.43,3.991 0.069,5.968 z"
       id="path127"
       inkscape:connector-curvature="0"
       style="fill:#dce6f2" /><path
       enable-background="new    "
       d="m 1085.969,1072.567 c -0.457,0 -0.914,-0.047 -1.358,-0.143 l 0.119,-0.579 c 1.666,0.261 3.369,0.021 4.899,-0.684 0.729,-0.291 1.459,-0.631 2.17,-1 0.709,-0.368 1.698,-0.801 2.58,-1.131 l 0.812,-0.278 c 0.449,-0.146 0.897,-0.302 1.33,-0.486 0.25,-0.104 0.487,-0.223 0.729,-0.33 0.581,-0.311 1.197,-0.541 1.84,-0.699 0.33,-0.062 0.664,-0.104 1,-0.131 0.304,-0.021 0.604,-0.061 0.896,-0.108 0.6,-0.146 1.175,-0.355 1.725,-0.642 0.586,-0.299 1.207,-0.524 1.851,-0.682 l 0.438,-0.078 c 0.467,-0.014 0.916,-0.18 1.277,-0.473 l 0.434,0.407 c -0.453,0.396 -1.022,0.621 -1.621,0.648 l -0.41,0.068 c -0.596,0.146 -1.174,0.358 -1.719,0.643 -0.59,0.301 -1.209,0.523 -1.854,0.682 -0.328,0.064 -0.662,0.104 -1,0.119 -0.312,0.022 -0.621,0.062 -0.931,0.119 -0.592,0.148 -1.161,0.373 -1.7,0.66 l -0.75,0.34 c -0.459,0.188 -0.921,0.353 -1.38,0.5 l -0.791,0.278 c -0.856,0.316 -1.709,0.722 -2.538,1.103 -0.83,0.381 -1.449,0.688 -2.199,1 -1.219,0.536 -2.523,0.831 -3.849,0.877 z"
       id="path129"
       inkscape:connector-curvature="0"
       style="opacity:0.5;fill:#575988" /><path
       enable-background="new    "
       d="m 1087.879,974.019 c 0,0 4.115,-6 11.156,-5.899 7.039,0.101 10.062,-0.789 10.062,-0.789 0,0 -4.511,2.67 -7.63,3 -3.121,0.327 -13.59,3.688 -13.588,3.688 z m 2.379,1.387 c 0,0 3.722,-2.58 5.853,-2.682 2.131,-0.104 4,-0.301 4,-0.301 -0.996,0.701 -2.104,1.236 -3.271,1.592 -1.825,0.504 -6.582,1.391 -6.582,1.391 z m 0.791,1.783 c 0,0 5.605,0.447 5.658,1.938 m -57.83,-85.558 c 0.289,0.049 5.289,-5.211 5.64,-7.291 0.276,-1.312 1.062,-2.461 2.182,-3.198 0,0 3.229,1.288 0.354,5.239 -2.885,3.95 -8.176,5.25 -8.176,5.25 z m 76.818,-170.113 c -1.142,2.698 -2.146,2.899 -1.933,5.521 -1.331,1.4 -2.858,2.604 -4.538,3.564 -3.552,2.108 -7.408,6.229 -11.83,6.229 -2.957,0.006 -5.89,-0.547 -8.642,-1.631 -0.699,-5.604 -2.812,-8 -2.812,-8 0,0 34.939,-17.909 29.755,-5.683 z"
       id="path131"
       inkscape:connector-curvature="0"
       style="opacity:0.1" /><path
       d="m 1121.049,713.939 c 0,13.062 -10.59,23.646 -23.649,23.646 -13.061,0 -23.65,-10.59 -23.65,-23.646 0,-13.056 10.593,-23.649 23.65,-23.649 13.058,-0.007 23.646,10.573 23.649,23.631 0,0 0,0.012 0,0.018 z"
       id="path133"
       inkscape:connector-curvature="0"
       style="fill:#cc818c" /><path
       enable-background="new    "
       d="m 1122.535,748.785 -7.578,11.312 c 0,0 -35.858,17.102 -29,-3 3,-8.854 3.367,-15.33 2.828,-19.812 h 0.062 c 0.424,1.486 0.661,3.021 0.711,4.562 0.108,3.079 0.188,7 7.852,8.277 12.771,2.147 19.63,-5.843 20.83,-7.41 1.223,2.164 2.663,4.199 4.295,6.071 z m -150.922,-48 -4.736,9.212 c -1.51,-0.123 -2.99,-0.435 -4.424,-0.921 l -0.406,-0.485 c 1.938,0.735 8.479,-11.609 8.479,-11.609 l 0.211,0.17 c 0.537,2.146 0.876,3.633 0.876,3.633 z m 143.494,172.83 c -15.312,6.65 -68.293,1 -68.293,1 0.166,-0.562 0.258,-1.146 0.271,-1.729 1.438,-2.198 2.51,-3.521 2.51,-3.521 l 63.474,-2.487 c 0,-0.003 1.027,2.811 2.038,6.737 z"
       id="path135"
       inkscape:connector-curvature="0"
       style="opacity:0.1" /><path
       d="m 1088.879,737.835 -7.062,3 c -2.181,-0.021 -4.147,-1.304 -5.062,-3.277 -1.631,-3.421 -7.434,0 -7.434,0 0,0 -17.709,-1.342 -24.25,1.938 0,0 -10.562,-4.47 -12,-4.761 -1.438,-0.289 -3.721,-1.489 -4.762,-1.188 -1.039,0.305 -2.379,-1.938 -3.117,-1.789 -0.74,0.147 -1.053,-1.486 -3.433,-2.079 -2.381,-0.591 -3.271,0.146 -5.95,-2.526 -2.681,-2.684 -24.39,-13.24 -24.39,-13.24 l -9.819,-8 -10.41,-8.329 c 0,0 -6.551,12.344 -8.479,11.604 l 19.777,23.801 c 0,0 14.277,12.5 24.104,16.511 9.82,4.012 9.066,5.211 9.066,5.211 0,0 29.764,15.17 34.369,14.879 4.608,-0.289 3.725,31.093 1.779,36.149 -1.938,5.062 -5.052,41.646 -5.052,41.646 0,0 -3,7.729 0.144,13.094 0,0 0.75,11 0,12.938 0,0 53.312,5.698 68.434,-1 0,0 2.229,-24.688 0,-27.817 -2.229,-3.131 2.092,-10.108 2.092,-10.108 l 9.447,-21.319 23.182,-23.369 c 0,0 3.568,-19.486 -12.34,-32 l -10.569,-9.368 c 0,0 -5.908,-5.108 -7.629,-5.433 -1.724,-0.317 -1.091,0 -1.091,0 0,0 -6.897,10 -21,7.659 -7.659,-1.289 -7.739,-5.188 -7.854,-8.278 -0.041,-1.551 -0.275,-3.07 -0.691,-4.549 z"
       id="path137"
       inkscape:connector-curvature="0"
       style="fill:#67647e" /><path
       enable-background="new    "
       d="m 1117.927,817.915 c 0,0 -32.729,1.342 -39.271,11.61 0,0 8.479,-4 16.062,-2.83 7.584,1.17 23.209,-8.78 23.209,-8.78 z m -36.15,35.87 c 0,0 15.472,1 18.75,-2.229 3.279,-3.23 3.279,-5.199 3.279,-5.199 z m 39.272,-67.398 c 0,0 -13.092,15.472 2.83,22.157 z m -77.502,-29.9 c 0,0 4.761,9.711 7.142,10.358 z m -16.062,-4.17 c 0,0 11.897,10.711 14.129,11.75 -10e-4,0 -12.352,-11.75 -14.129,-11.75 z m 47.447,-10.259 c 0,0 -11.459,17.103 -4,27.521 -0.055,-0.003 -4.176,-12.349 4,-27.521 z"
       id="path139"
       inkscape:connector-curvature="0"
       style="opacity:0.1" /><path
       d="m 1103.806,871.625 -3.5,3.289 -0.49,0.461 -4.051,3.83 c -0.3,0.221 -0.578,0.438 -0.869,0.645 -16.5,11.826 -19.812,-6.145 -19.812,-6.145 0,0 -7.289,4.76 -8.33,0.895 -1.039,-3.869 17.002,-9.369 19.633,-9.07 0.236,0.021 0.479,0.021 0.722,0 1.301,-0.217 2.553,-0.659 3.699,-1.312 0.271,-0.142 0.538,-0.275 0.801,-0.43 0.918,-0.515 1.812,-1.074 2.67,-1.681 z"
       id="path141"
       inkscape:connector-curvature="0"
       style="fill:#cc818c" /><path
       enable-background="new    "
       d="m 1121.646,713.939 c 0,8.342 -4.394,16.062 -11.562,20.33 -0.326,-0.557 -0.613,-1.127 -0.858,-1.725 -0.851,-2 -1.369,-4.09 -2.222,-6.064 -0.959,-2.164 -2.313,-4.127 -4,-5.791 -0.27,-0.322 -0.608,-0.572 -1,-0.729 -0.772,-0.104 -1.561,0.11 -2.17,0.604 -1,0.685 -2.119,1.174 -3.303,1.448 -1.199,0.271 -2.459,-0.106 -3.312,-1 -0.92,-1.104 -0.788,-2.724 -0.521,-4.132 0.566,-3.08 1.539,-6.103 1.539,-9.229 0,-3.131 -1.182,-6.51 -3.896,-8.062 -2.399,-1.358 -5.381,-1 -8.051,-1.75 -0.412,-0.108 -0.817,-0.25 -1.212,-0.421 9.13,-9.354 24.104,-9.527 33.457,-0.4 4.562,4.451 7.134,10.553 7.136,16.924 z"
       id="path143"
       inkscape:connector-curvature="0"
       style="opacity:0.1" /><path
       d="m 1079.456,693.656 c -0.431,0.23 -0.896,0.646 -0.771,1.121 0.08,0.229 0.229,0.418 0.432,0.549 1.104,0.896 2.373,1.548 3.738,1.921 2.67,0.725 5.66,0.385 8.062,1.75 2.709,1.555 3.906,4.924 3.896,8.055 -0.01,3.131 -1,6.156 -1.552,9.229 -0.26,1.42 -0.397,3 0.531,4.142 0.854,0.893 2.104,1.271 3.312,1 1.178,-0.271 2.291,-0.763 3.289,-1.438 0.608,-0.49 1.396,-0.707 2.17,-0.604 0.405,0.147 0.771,0.396 1.062,0.725 1.688,1.664 3.044,3.631 4,5.801 0.856,2 1.38,4.08 2.22,6.068 0.746,2.047 2.153,3.779 4,4.938 1.916,1.155 4.367,0.897 6,-0.63 1.382,-1.521 1.343,-3.819 2,-5.771 1.183,-3.365 4.479,-5.484 6.541,-8.396 2.316,-3.271 3,-7.399 3.591,-11.356 0.271,-1.25 0.295,-2.544 0.061,-3.803 -0.27,-0.832 -0.623,-1.638 -1.051,-2.396 -2.299,-4.763 -2.25,-10.75 -5.92,-14.562 -2.76,-2.851 -6.938,-3.722 -10.879,-4.198 -3.939,-0.479 -8.07,-0.776 -11.451,-2.852 -0.945,-0.717 -1.988,-1.297 -3.101,-1.721 -1.157,-0.402 -2.438,0.074 -3.052,1.141 -0.066,0.307 -0.212,0.589 -0.409,0.83 -0.354,0.203 -0.782,0.229 -1.159,0.068 l -5.238,-1.41 0.604,2.641 c -1.903,0.076 -3.805,-0.266 -5.562,-1 -0.103,1.49 1.578,2.462 2.104,3.854 0.386,1.301 0,2.709 -1,3.629 -1.948,1.878 -4.328,1.506 -6.468,2.675 z"
       id="path145"
       inkscape:connector-curvature="0"
       style="fill:#585268" /><path
       enable-background="new    "
       d="m 1058.223,1049.084 -0.212,2.381 -0.09,0.053 c -8.528,4.762 -26.184,-8.521 -26.184,-8.521 l 1.843,-1.841 c 0.604,0.679 0.896,1.578 0.802,2.479 l 3.605,0.199 4.312,4.659 c 0,0 11.67,1.353 14.83,0.591 z"
       id="path147"
       inkscape:connector-curvature="0"
       style="opacity:0.1" /><path
       d="m 1056.735,1062.035 c -5.553,1.23 -25,1.146 -25,1.146 l -10.857,1.729 c 0,0 -18.688,1.789 -20.771,-4 -2.082,-5.791 1.631,-5.448 1.631,-5.448 h 0.143 l 7.777,-0.631 c 0,0 9.869,-3.817 13.488,-6.448 2.856,-2.227 5.562,-4.645 8.08,-7.237 0,0 3.25,-0.631 3.188,3.129 l 3.607,0.199 4.312,4.646 c 0,0 11.67,1.359 14.828,0.604 h 1.092 l -0.5,5.75 0.142,0.182 c 0.691,0.879 3.799,5.269 -1.16,6.379 z"
       id="path149"
       inkscape:connector-curvature="0"
       style="fill:#ff748f" /><circle
       cx="1036.594"
       cy="1047.5861"
       r="0.551"
       id="circle151"
       style="fill:#575988" /><circle
       cx="1022.613"
       cy="1053.656"
       r="0.551"
       id="circle153"
       style="fill:#575988" /><circle
       cx="1015.416"
       cy="1055.844"
       r="0.55000001"
       id="circle155"
       style="fill:#575988" /><circle
       cx="1026.283"
       cy="1052.496"
       r="0.551"
       id="circle157"
       style="fill:#575988" /><circle
       cx="1019.006"
       cy="1054.756"
       r="0.551"
       id="circle159"
       style="fill:#575988" /><circle
       cx="1029.9919"
       cy="1050.777"
       r="0.55000001"
       id="circle161"
       style="fill:#575988" /><circle
       cx="1033.666"
       cy="1049.187"
       r="0.55000001"
       id="circle163"
       style="fill:#575988" /><path
       d="m 1056.735,1062.035 c -5.553,1.23 -25,1.146 -25,1.146 l -10.857,1.729 c 0,0 -18.688,1.789 -20.771,-4 -2.082,-5.791 1.631,-5.448 1.631,-5.448 h 0.143 c 1.188,1.539 3.58,3.302 8.277,3.38 l 13.438,0.554 13.933,-1 c 0,0 13,-0.4 15.17,-0.843 1.785,-0.479 3.524,-1.12 5.199,-1.907 0.688,0.889 3.796,5.279 -1.163,6.389 z"
       id="path165"
       inkscape:connector-curvature="0"
       style="fill:#dce6f2" /><path
       enable-background="new    "
       d="m 1021.877,1063.596 c -0.742,0.01 -1.481,-0.087 -2.201,-0.271 l 0.201,-0.539 c 1.836,0.4 3.742,0.314 5.539,-0.25 0.656,-0.17 1.312,-0.357 2,-0.561 3.101,-1.061 6.394,-1.434 9.646,-1.091 h 0.43 c 5.964,0.312 11.939,0.05 17.854,-0.804 1.404,-0.095 2.74,-0.63 3.82,-1.525 l 0.43,0.42 c -1.168,0.988 -2.62,1.586 -4.147,1.697 -5.959,0.854 -11.984,1.115 -18,0.803 h -0.42 c -1.974,-0.146 -3.951,-0.086 -5.91,0.17 -1.195,0.228 -2.385,0.521 -3.551,0.891 -0.658,0.199 -1.316,0.398 -2,0.57 -1.208,0.315 -2.449,0.479 -3.691,0.49 z"
       id="path167"
       inkscape:connector-curvature="0"
       style="opacity:0.5;fill:#575988" /><path
       enable-background="new    "
       d="m 1103.806,871.625 -3.5,3.289 -8.699,-11.13 c 0.918,-0.514 1.812,-1.073 2.67,-1.68 z"
       id="path169"
       inkscape:connector-curvature="0"
       style="opacity:0.1" /><path
       d="m 1143.219,780.285 6.841,9.521 v 10 c 0,0 3.131,10.566 0,21.131 l 0.352,9.219 c 0,0 -3.316,8.479 -2.131,10.562 0,0 -0.603,6.25 -8.631,10.568 -8.029,4.319 -17.105,14.5 -17.105,14.5 0,0 -3.424,6.551 -12.645,5.062 l -8.779,3.721 -10.105,-12.938 13.681,-7.438 c 0,0 4.764,-6.399 7.592,-6.104 l 11.604,-13.513 c 0,0 0.3,-4.311 3.271,-4.311 0,0 -5.5,-4.461 -3.568,-7.145 1.933,-2.681 0.302,-14.58 0.302,-14.58 z"
       id="path171"
       inkscape:connector-curvature="0"
       style="fill:#67647e" /><path
       enable-background="new    "
       d="m 1130.427,823.714 c 0,0 15.621,-0.289 17.552,3.725 1.927,4.009 -12.792,-5.95 -17.552,-3.725 z m -30.548,50.885 c 0,0.262 -0.02,0.521 -0.062,0.775 -0.369,2.472 -2.428,4.336 -4.92,4.475 h -0.279 c -2.896,0 -5.25,-2.354 -5.25,-5.25 v 0 c 0.01,-0.582 0.104,-1.16 0.291,-1.712 -2.479,-2 -2.607,-5.579 -2.553,-7.368 1.303,-0.223 2.555,-0.66 3.701,-1.312 0.646,1.858 1.52,3.637 2.59,5.289 0.397,-0.101 0.812,-0.146 1.221,-0.146 2.898,-0.01 5.258,2.34 5.264,5.234 0,0.003 0,0.007 0,0.015 z"
       id="path173"
       inkscape:connector-curvature="0"
       style="opacity:0.1" /><path
       d="m 1091.277,863.044 c 0,0 -3.521,0.789 -3.521,1.436 0,0.64 -0.789,6.447 3.066,8.828 3.859,2.381 3.479,-3.318 3.479,-3.318 0,0 -3.325,-5.115 -3.024,-6.946 z"
       id="path175"
       inkscape:connector-curvature="0"
       style="fill:#575988" /><circle
       cx="1095.219"
       cy="874.59497"
       r="5.2600002"
       id="circle177"
       style="fill:#e4aab4" /><circle
       cx="1095.219"
       cy="874.59497"
       r="4.5100002"
       id="circle179"
       style="fill:#dce6f2" /><path
       enable-background="new    "
       d="m 1074.735,876.625 c 0,0 11.109,9.225 25.395,3.379 v 4.461 c 0,0 -9.521,6.539 -18.147,2.58 -8.639,-3.961 -7.248,-10.42 -7.248,-10.42 z"
       id="path181"
       inkscape:connector-curvature="0"
       style="opacity:0.1" /><path
       enable-background="new    "
       d="m 1074.735,875.439 c 0,0 11.145,9.222 25.395,3.351 v 4.461 c 0,0 -9.521,6.539 -18.147,2.58 -8.639,-3.966 -7.248,-10.392 -7.248,-10.392 z"
       id="path183"
       inkscape:connector-curvature="0"
       style="opacity:0.1" /><path
       d="m 1074.735,875.439 c 0,0 11.145,9.222 25.395,3.351 v 4.461 c 0,0 -9.521,6.539 -18.147,2.58 -8.639,-3.966 -7.248,-10.392 -7.248,-10.392 z"
       id="path185"
       inkscape:connector-curvature="0"
       style="fill:#444053" /><path
       enable-background="new    "
       d="m 1075.033,875.439 c 0,0 11.11,9.222 25.395,3.381 v 4.459 c 0,0 -9.549,6.511 -18.147,2.58 -8.605,-3.934 -7.248,-10.42 -7.248,-10.42 z"
       id="path187"
       inkscape:connector-curvature="0"
       style="opacity:0.05" /><path
       enable-background="new    "
       d="m 1039.877,1041.107 c 0,0 14.879,2.729 17.062,3.318 2.18,0.592 -0.603,1.643 -0.603,1.643 0,0 -13.633,-2.432 -16.459,-4.961 z m -0.392,-7.879 c 0.238,0 10.106,-2.779 12.238,-7.539 m 2.154,-49.395 c 0,0 4,5.264 6.577,5.108 2.579,-0.149 -4.231,-5.303 -6.577,-5.108 z m 2.217,8.734 c 0,0 1.683,3.722 4.16,2.529"
       id="path189"
       inkscape:connector-curvature="0"
       style="opacity:0.1" /><path
       enable-background="new    "
       d="m 1065.467,903.359 10.55,27.818 c 0,0 1.489,-17.898 -1.658,-23.264 -1.83,-3.119 -5.298,-4.892 -8.892,-4.554 z"
       id="path191"
       inkscape:connector-curvature="0"
       style="opacity:0.05" /><g
       id="g195"
       style="opacity:0.1"><path
         d="m 1091.437,682.916 -0.093,-0.396 -1.698,-0.449 0.188,0.83 c 0.533,0.038 1.069,0.045 1.603,0.015 z m -4.66,6.693 0.181,-0.16 c 0.998,-0.918 1.388,-2.315 1,-3.62 -0.202,-0.488 -0.485,-0.943 -0.841,-1.351 -0.838,-0.158 -1.657,-0.399 -2.445,-0.721 -0.104,1.485 1.577,2.447 2.101,3.852 0.224,0.646 0.231,1.349 0,2 z m 28.102,45.726 c -1.848,-1.155 -3.252,-2.896 -4,-4.938 -0.854,-2 -1.36,-4.104 -2.225,-6.069 -0.953,-2.166 -2.312,-4.132 -4,-5.789 -0.28,-0.328 -0.646,-0.582 -1.051,-0.729 -0.773,-0.106 -1.562,0.105 -2.17,0.6 -1.005,0.681 -2.121,1.171 -3.302,1.451 -1.2,0.258 -2.45,-0.119 -3.312,-1 -0.922,-1.104 -0.791,-2.722 -0.521,-4.131 0.58,-3.08 1.539,-6.108 1.55,-9.24 0.012,-3.129 -1.188,-6.5 -3.908,-8 -2.396,-1.368 -5.381,-1 -8,-1.75 -1.365,-0.37 -2.644,-1.021 -3.738,-1.92 l -0.211,-0.188 c -0.225,0.092 -0.438,0.188 -0.646,0.311 -0.434,0.23 -0.895,0.643 -0.771,1.109 0.088,0.229 0.238,0.424 0.438,0.561 1.104,0.891 2.375,1.537 3.74,1.91 2.67,0.729 5.646,0.392 8.049,1.76 2.722,1.541 3.91,4.92 3.91,8 0,3.08 -1,6.16 -1.553,9.229 -0.271,1.407 -0.396,3 0.521,4.13 0.854,0.891 2.104,1.271 3.311,1 1.182,-0.275 2.297,-0.768 3.305,-1.439 0.607,-0.487 1.394,-0.709 2.17,-0.604 0.388,0.156 0.729,0.408 1,0.729 1.687,1.662 3.041,3.627 4,5.791 0.855,2 1.368,4.091 2.22,6.068 0.734,2.062 2.146,3.827 4,5 1.893,1 4.512,1 6,-0.632 0.389,-0.438 0.688,-0.94 0.893,-1.487 -1.668,1.237 -3.924,1.345 -5.699,0.267 z m 8.539,-7.55 c 1.486,-1.879 3.438,-3.479 4.84,-5.459 0.275,-0.395 0.533,-0.801 0.771,-1.221 -1.803,2.293 -4.271,4.142 -5.611,6.68 z"
         id="path193"
         inkscape:connector-curvature="0" /></g><g
       id="g207"
       style="opacity:0.1"><path
         d="M 1035.166,699.689 H 798.565 c -6.818,0.017 -12.351,5.539 -12.371,12.359 v 149.486 c 0.021,6.819 5.553,12.346 12.371,12.358 h 185.601 c 0,0 4.812,25.527 -11,28.271 0,0 35.381,2.541 29.197,-28.271 h 32.789 c 6.817,-0.02 12.348,-5.541 12.358,-12.358 V 712.048 c -0.013,-6.816 -5.531,-12.34 -12.344,-12.359 z"
         id="path197"
         inkscape:connector-curvature="0" /><g
         id="g205"
         style="opacity:0.2"><path
           d="m 826.694,739.365 h 180.317 c 3.134,0 5.671,2.539 5.671,5.67 v 0.343 c 0,3.134 -2.537,5.67 -5.671,5.67 H 826.694 c -3.131,0 -5.67,-2.535 -5.67,-5.67 v -0.343 c 10e-4,-3.13 2.54,-5.67 5.67,-5.67 z"
           id="path199"
           inkscape:connector-curvature="0" /><path
           d="m 826.694,791.567 h 146.812 c 3.131,0 5.67,2.539 5.67,5.67 v 0.34 c 0,3.134 -2.539,5.671 -5.67,5.671 H 826.694 c -3.131,0 -5.67,-2.537 -5.67,-5.671 v -0.34 c 10e-4,-3.13 2.54,-5.67 5.67,-5.67 z"
           id="path201"
           inkscape:connector-curvature="0" /><path
           d="m 826.694,765.466 h 102.513 c 3.131,0 5.67,2.537 5.67,5.671 v 0.343 c 0,3.131 -2.539,5.67 -5.67,5.67 H 826.694 c -3.131,0 -5.67,-2.539 -5.67,-5.67 v -0.343 c 10e-4,-3.134 2.54,-5.671 5.67,-5.671 z"
           id="path203"
           inkscape:connector-curvature="0" /></g></g><path
       d="M 1038.256,697.615 H 801.653 c -6.818,0.021 -12.348,5.548 -12.367,12.371 v 149.49 c 0.021,6.816 5.549,12.342 12.367,12.354 h 185.603 c 0,0 4.812,25.53 -11,28.271 0,0 35.381,2.541 29.197,-28.271 h 32.789 c 6.818,-0.017 12.348,-5.537 12.359,-12.354 v -149.49 c -0.011,-6.815 -5.531,-12.34 -12.345,-12.371 z"
       id="path209"
       inkscape:connector-curvature="0"
       style="fill:#ffffff" /><g
       id="g217"
       style="opacity:0.2"><path
         d="m 829.785,737.294 h 180.316 c 3.133,0 5.672,2.539 5.672,5.672 v 0.342 c 0,3.133 -2.539,5.672 -5.672,5.672 H 829.785 c -3.133,0 -5.67,-2.539 -5.67,-5.672 v -0.342 c 0,-3.132 2.538,-5.672 5.67,-5.672 z"
         id="path211"
         inkscape:connector-curvature="0"
         style="fill:#bbb8fa" /><path
         d="m 829.785,789.505 h 146.81 c 3.132,0 5.671,2.539 5.671,5.67 v 0.344 c 0,3.131 -2.539,5.67 -5.671,5.67 h -146.81 c -3.133,0 -5.67,-2.539 -5.67,-5.67 v -0.344 c 0,-3.131 2.538,-5.67 5.67,-5.67 z"
         id="path213"
         inkscape:connector-curvature="0"
         style="fill:#bbb8fa" /><path
         d="m 829.785,763.406 h 102.511 c 3.131,0 5.67,2.539 5.67,5.67 v 0.343 c 0,3.131 -2.539,5.67 -5.67,5.67 H 829.785 c -3.133,0 -5.67,-2.535 -5.67,-5.67 v -0.343 c 0,-3.13 2.538,-5.67 5.67,-5.67 z"
         id="path215"
         inkscape:connector-curvature="0"
         style="fill:#bbb8fa" /></g><path
       d="m 294.066,1186.267 c 0,0 3.562,4.656 -1.646,11.697 -5.211,7.039 -9.51,13 -7.771,17.369 0,0 7.858,-13.066 14.264,-13.25 6.391,-0.177 2.192,-7.958 -4.847,-15.816 z"
       id="path219"
       inkscape:connector-curvature="0"
       style="fill:#bbb8fa" /><path
       enable-background="new    "
       d="m 294.066,1186.267 c 0.309,0.447 0.551,0.938 0.723,1.461 6.25,7.34 9.566,14.18 3.566,14.355 -5.591,0.16 -12.289,10.149 -13.896,12.684 0,0.188 0.121,0.381 0.188,0.566 0,0 7.856,-13.066 14.264,-13.25 6.393,-0.177 2.194,-7.958 -4.845,-15.816 z"
       id="path221"
       inkscape:connector-curvature="0"
       style="opacity:0.1" /><path
       d="m 300.685,1192.206 c 0,1.645 -0.183,3 -0.41,3 -0.229,0 -0.406,-1.33 -0.406,-3 0,-1.671 0.229,-0.869 0.461,-0.869 0.224,0 0.355,-0.77 0.355,0.869 z"
       id="path223"
       inkscape:connector-curvature="0"
       style="fill:#ffd037" /><path
       d="m 302.965,1194.165 c -1.438,0.791 -2.696,1.265 -2.809,1.062 -0.109,-0.199 1,-1 2.406,-1.779 1.409,-0.778 0.879,-0.211 1,0 0.123,0.208 0.844,-0.062 -0.597,0.717 z"
       id="path225"
       inkscape:connector-curvature="0"
       style="fill:#ffd037" /><path
       d="m 275.226,1186.267 c 0,0 -3.562,4.656 1.647,11.697 5.209,7.039 9.51,13 7.771,17.369 0,0 -7.857,-13.066 -14.265,-13.25 -6.395,-0.177 -2.194,-7.958 4.847,-15.816 z"
       id="path227"
       inkscape:connector-curvature="0"
       style="fill:#bbb8fa" /><path
       enable-background="new    "
       d="m 275.226,1186.267 c -0.31,0.447 -0.552,0.938 -0.724,1.461 -6.25,7.34 -9.567,14.18 -3.567,14.355 5.59,0.16 12.291,10.149 13.897,12.684 -0.049,0.188 -0.119,0.381 -0.188,0.566 0,0 -7.857,-13.066 -14.265,-13.25 -6.395,-0.177 -2.194,-7.958 4.847,-15.816 z"
       id="path229"
       inkscape:connector-curvature="0"
       style="opacity:0.1" /><path
       d="m 268.605,1192.206 c 0,1.645 0.184,3 0.409,3 0.229,0 0.408,-1.33 0.408,-3 0,-1.671 -0.229,-0.869 -0.461,-0.869 -0.227,0 -0.356,-0.77 -0.356,0.869 z"
       id="path231"
       inkscape:connector-curvature="0"
       style="fill:#ffd037" /><path
       d="m 266.326,1194.165 c 1.438,0.791 2.695,1.265 2.809,1.062 0.111,-0.199 -1,-1 -2.407,-1.779 -1.41,-0.778 -0.882,-0.211 -1,0 -0.123,0.208 -0.853,-0.062 0.598,0.717 z"
       id="path233"
       inkscape:connector-curvature="0"
       style="fill:#ffd037" /><ellipse
       enable-background="new    "
       cx="284.646"
       cy="1245.285"
       rx="37.276001"
       ry="5.7210002"
       id="ellipse235"
       style="opacity:0.1;fill:#bbb8fa" /><path
       d="m 303.875,1209.058 -0.184,1.445 -0.25,2.062 -0.105,0.857 -0.25,2.053 -0.104,0.855 -0.25,2.062 -2.855,23.392 c -0.25,2.09 -3.66,3.721 -7.779,3.721 H 277.24 c -4.118,0 -7.522,-1.631 -7.778,-3.721 l -2.858,-23.382 -0.25,-2.061 -0.103,-0.859 -0.25,-2.051 -0.109,-0.859 -0.25,-2.061 -0.18,-1.449 c -0.145,-1.184 1.709,-2.184 4,-2.184 h 30.312 c 2.353,0 4.2,0.997 4.101,2.18 z"
       id="path237"
       inkscape:connector-curvature="0"
       style="fill:#65617d" /><path
       d="m 303.644,1210.503 -0.25,2.062 h -37.513 l -0.25,-2.062 z m -0.349,2.922 -0.25,2.053 h -36.799 l -0.264,-2.053 z m -0.36,2.909 -0.25,2.062 h -36.093 l -0.25,-2.062 z"
       id="path239"
       inkscape:connector-curvature="0"
       style="fill:#9d9cb5" /><ellipse
       enable-background="new    "
       cx="858.72302"
       cy="1422.626"
       rx="84.038002"
       ry="13.79"
       id="ellipse241"
       style="opacity:0.1;fill:#bbb8fa" /><g
       id="g251"
       style="opacity:0.1"><path
         d="m 956.063,999.148 h -256.39 c -7.391,0.021 -13.377,6.01 -13.397,13.396 v 162 c 0.021,7.395 6.012,13.377 13.397,13.397 h 201.13 c 0,0 5.209,27.66 -11.909,30.631 0,0 38.33,2.75 31.631,-30.631 h 35.539 c 7.396,-0.021 13.379,-6.008 13.399,-13.397 v -162 c -0.021,-7.388 -6.006,-13.378 -13.4,-13.396 z"
         id="path243"
         inkscape:connector-curvature="0" /><g
         id="g249"
         style="opacity:0.2"><path
           d="m 729.685,1098.728 h 196.359 c 3.131,0 5.67,2.539 5.67,5.67 v 1.316 c 0,3.134 -2.539,5.672 -5.67,5.672 H 729.686 c -3.134,0 -5.67,-2.538 -5.67,-5.672 v -1.316 c -10e-4,-3.131 2.536,-5.67 5.669,-5.67 z"
           id="path245"
           inkscape:connector-curvature="0" /><path
           d="m 729.685,1070.437 h 78.723 c 3.133,0 5.67,2.539 5.67,5.67 v 1.318 c 0,3.135 -2.537,5.67 -5.67,5.67 h -78.723 c -3.134,0 -5.67,-2.535 -5.67,-5.67 v -1.318 c 0,-3.131 2.537,-5.67 5.67,-5.67 z"
           id="path247"
           inkscape:connector-curvature="0" /></g></g><path
       d="m 953.877,996.915 h -256.44 c -7.394,0.021 -13.377,6.013 -13.396,13.399 v 162 c 0.021,7.392 6.01,13.379 13.396,13.396 h 201.13 c 0,0 5.211,27.657 -11.906,30.645 0,0 38.34,2.75 31.641,-30.645 h 35.58 c 7.394,-0.021 13.377,-6.01 13.396,-13.396 v -162 c -0.024,-7.391 -6.014,-13.373 -13.401,-13.399 z"
       id="path253"
       inkscape:connector-curvature="0"
       style="fill:#ffffff" /><g
       id="g259"
       style="opacity:0.2"><path
         d="m 727.455,1096.497 h 196.357 c 3.133,0 5.67,2.536 5.67,5.67 v 1.319 c 0,3.131 -2.535,5.67 -5.67,5.67 H 727.455 c -3.131,0 -5.67,-2.539 -5.67,-5.67 v -1.319 c 0,-3.134 2.539,-5.67 5.67,-5.67 z"
         id="path255"
         inkscape:connector-curvature="0"
         style="fill:#bbb8fa" /><path
         d="m 727.455,1068.206 h 78.721 c 3.134,0 5.67,2.536 5.67,5.67 v 1.319 c 0,3.131 -2.536,5.67 -5.67,5.67 h -78.721 c -3.131,0 -5.67,-2.539 -5.67,-5.67 v -1.319 c 0,-3.132 2.539,-5.67 5.67,-5.67 z"
         id="path257"
         inkscape:connector-curvature="0"
         style="fill:#bbb8fa" /></g><linearGradient
       id="SVGID_2_"
       gradientUnits="userSpaceOnUse"
       x1="1429.2253"
       y1="-129.3728"
       x2="1429.2253"
       y2="321.45529"
       gradientTransform="matrix(1,0,0,-1,-628.1978,1293.356)"><stop
         offset="0"
         style="stop-color:#808080;stop-opacity:0.25"
         id="stop261" /><stop
         offset="0.54"
         style="stop-color:#808080;stop-opacity:0.12"
         id="stop263" /><stop
         offset="1"
         style="stop-color:#808080;stop-opacity:0.1"
         id="stop265" /></linearGradient><path
       d="m 907.086,1413.247 c -1.209,-5.132 -2,-9.642 -2,-9.642 0,0 0.279,-5.59 -2.229,-9.791 v -11.729 c 0.713,-1.875 1.586,-3.687 2.608,-5.408 1.859,-3.25 0,-15.146 0,-15.146 0,0 -6.897,-16.781 -5.221,-27.423 1.68,-10.641 -14.17,-47.271 -14.17,-47.271 0.098,-3.53 0.598,-7.041 1.486,-10.461 0.166,-0.719 0.231,-1.453 0.198,-2.188 0.007,-0.09 0.007,-0.184 0,-0.271 v 0.092 c -0.237,-7 -5.789,-20.182 -5.789,-20.182 l 0.75,-25.068 c 0,0 3.539,-14.789 -2.239,-34.643 -2,-6.92 -3.312,-12.472 -4.129,-16.738 -0.093,-0.486 -0.183,-1 -0.263,-1.396 11.899,-1.812 21,-3.319 21,-3.319 0,0 -6.881,-28.869 -11.541,-33.869 -4.657,-5 -8.379,-21 -8.379,-21 0,0 -2.433,-20.392 1.49,-26.34 3.92,-5.949 4.469,-16.229 4.469,-16.229 0,0 9,-6.5 10.07,-9.382 1.066,-2.881 3,-9.381 3,-12.812 0,-3.432 -1.119,-6.5 -0.75,-8.302 0.367,-1.8 -2.609,-8.658 -1.119,-11.908 0.391,-0.997 0.592,-2.062 0.601,-3.131 v -0.091 c 0.01,-2.843 -0.257,-5.673 -0.789,-8.459 -2.584,-2.187 -5.603,-3.795 -8.853,-4.729 l -0.199,-0.777 -0.5,-2 c -0.301,-0.199 -0.59,-0.37 -0.881,-0.527 v -0.739 l -0.09,-2.933 1.409,-6.578 c 2.751,-11.462 -12.54,-13.173 -12.54,-13.173 -0.925,-1.757 -2.468,-3.104 -4.329,-3.789 -3.078,-1.08 -0.512,17.229 0.932,18.396 1.08,0.881 4.42,6.618 6,9.438 l 0.263,0.471 c -0.259,0.224 -0.486,0.466 -0.701,0.729 l 0.58,4 0.094,0.605 c -1.014,1.264 -1.832,2.661 -2.439,4.159 0,0 2.802,3.07 2.238,6.5 -0.562,3.433 0.853,7.699 0.922,7.933 -0.16,-0.188 -2.131,-2.316 -4.092,-1.801 -1.959,0.521 -7.459,2.172 -7.459,2.172 0,0 -4.104,0.719 -3.723,1.616 0.379,0.9 -2.804,4.871 -2.804,4.871 l -11,-10.438 c -0.1,-0.312 -0.219,-0.618 -0.317,-0.947 -0.469,-1.49 -0.805,-3.021 -1,-4.568 1.197,-0.291 2.375,-0.666 3.521,-1.118 1.144,-0.401 2.168,-1.07 3,-1.949 1.109,-1.318 1.318,-3.107 1.771,-4.75 0.883,-3.211 2.75,-6.068 4.092,-9.12 2.271,-5.138 3.033,-10.813 2.197,-16.369 -0.176,-1.709 -0.754,-3.353 -1.688,-4.788 -1.801,-2.479 -5.062,-3.479 -7.438,-5.462 -2.381,-1.979 -3.896,-5 -6.656,-6.472 -2.5,-1.34 -5.552,-1.183 -8.371,-0.722 -5.512,0.91 -10.805,2.839 -15.609,5.683 -1.605,0.949 -3.368,2.05 -5.219,1.723 -1.58,-0.291 -2.74,-1.562 -3.771,-2.771 0,-0.054 0,-0.103 0.053,-0.149 l -0.119,-0.14 c -1.131,2.569 -1.688,5.356 -1.631,8.17 0,0.438 0,0.879 0.051,1.315 v 0.845 c 0.002,0.196 -0.022,0.396 -0.08,0.59 -0.229,0.562 -0.565,1.065 -1,1.489 -0.338,0.375 -0.643,0.783 -0.899,1.22 0.041,-0.15 0.095,-0.304 0.149,-0.448 -0.703,1.026 -1.102,2.233 -1.143,3.479 -0.062,0.898 0.229,1.794 0.817,2.479 0.554,0.539 1.154,1.022 1.8,1.448 -1.564,8.653 2.424,17.371 10,21.841 0.133,0.312 0.264,0.631 0.383,0.95 1.408,3.709 2.473,8 2,12 0,0.3 -0.078,0.591 -0.144,0.88 -0.061,0.291 -0.27,0.302 -0.391,0.461 -0.119,0.159 -18.189,0.181 -22.479,-3.7 -4.291,-3.88 -10.812,9.471 -10.812,9.471 0,0 -6.521,1.263 -7.82,0 -1.299,-1.26 -8.948,-0.183 -8.948,-0.183 -3.109,-2.763 -7.158,-4.239 -11.316,-4.142 -2.545,-1.937 -5.354,-3.496 -8.342,-4.642 l -0.197,-0.067 c -1.312,-0.478 -2.713,-0.651 -4.104,-0.521 0,0 -8.947,-7.396 -11.562,-11.356 -2.609,-3.959 -15,-18.688 -15.09,-18.763 v -0.711 l -0.146,-2.146 c -0.364,0.062 -0.735,0.098 -1.104,0.102 -0.068,-0.211 -0.148,-0.461 -0.25,-0.74 -0.719,-2.09 -1.604,-4.116 -2.646,-6.065 0,0 0,-2.7 0.791,-3.381 0.789,-0.683 -0.329,-10.604 -0.329,-10.604 0,0 -8.062,-18.852 -15.279,-4.776 0,0 -13.646,9.106 -2.188,19.711 0,0 4.568,2.211 5.209,4 0.433,1.142 2,4.315 3,6.431 l 0.474,0.95 -0.133,0.106 0.172,1.771 0.067,0.682 c -2.16,1.229 -3.619,2.439 -3.271,3.359 0.641,1.562 1.078,3.197 1.312,4.869 0,0 15.781,19.802 17.83,28.302 0,0 42.49,25.25 56.471,27.05 l -2.42,12.631 c -0.358,3.414 -0.549,6.849 -0.561,10.278 0.18,2.711 -1.684,15 -1.684,15 0,0 -2.421,18 -4.472,20.562 -2.051,2.562 -1.631,13.33 -1.631,13.33 -0.492,5.181 -1.434,10.31 -2.8,15.328 -2,6.857 -0.562,15.342 -0.562,15.342 0,0 -7.079,16.229 9.882,5.229 0,0 8.327,-0.521 17.92,-0.853 v 1 c 0,1.229 0,2.567 -0.062,4 -0.131,9.301 -0.184,22.105 0.237,31.812 0.749,17.132 5.999,51.052 5.999,51.052 v 17 c -0.33,1.604 -0.494,3.23 -0.486,4.869 -0.115,6.006 1.479,11.922 4.59,17.062 l 1.312,11.356 c 0,0 3.062,7.488 3.121,12 -0.019,0.363 -0.062,0.729 -0.131,1.092 -0.115,0.569 -0.166,1.153 -0.146,1.737 -0.174,5.159 2.938,17.5 2.938,17.5 0,0 0.183,12.448 2,13.17 1.592,0.621 -2.132,7.184 -3.238,9.062 0,-0.119 0,-0.24 -0.068,-0.358 l -0.229,0.381 c -0.388,1.003 -0.582,2.063 -0.58,3.143 -0.215,1.735 0.593,3.439 2.067,4.381 3.541,2.16 5.438,4 2.433,4.688 -1.104,0.175 -2.198,0.4 -3.277,0.688 l -0.16,-0.42 c -0.865,0.354 -1.373,1.258 -1.222,2.183 0.021,1.479 0.399,2.925 1.108,4.22 3,6.683 5,9.2 5,9.2 l 1.438,-0.159 c -0.221,0.543 -0.496,1.062 -0.83,1.539 -0.543,0.781 -1.27,1.426 -2.108,1.87 -0.777,0.47 -1.646,0.767 -2.552,0.868 -2.045,0.066 -3.965,1.005 -5.276,2.568 -1.857,2.409 -3,5.682 0.646,8.562 l 13.33,4.601 c 0,0 22.919,3 21.71,-2.17 -1.21,-5.17 -2,-9.647 -2,-9.647 0.094,-3.146 -0.543,-6.267 -1.858,-9.118 -0.24,-0.466 -0.513,-0.909 -0.812,-1.343 l 0.812,-0.091 c 0,0 1.682,-11.37 3.909,-13.527 0.521,-0.5 0.642,-0.882 0.511,-1.184 0.229,-0.619 -0.351,-1 -1.1,-1.188 l -0.16,0.446 c -0.731,-0.157 -1.479,-0.241 -2.229,-0.25 0,0 -0.738,-5.946 1.682,-8.105 0.396,-0.5 0.562,-1.145 0.474,-1.771 0.019,-0.812 -0.065,-1.634 -0.25,-2.431 l -0.093,0.142 c -1.222,-5.396 -5.354,-14 -5.354,-14 0,0 -0.188,-5.409 1.312,-7.58 1.5,-2.17 -0.188,-29.396 -0.188,-29.396 0,0 0.562,-13.17 -1.118,-19.302 -1.683,-6.129 2.052,-13.353 2.052,-13.353 v -0.397 l 0.051,-0.09 c 0,0 -0.092,-0.812 -0.221,-2.067 v 0.118 c -0.382,-3.479 -1.093,-9.802 -1.608,-12.722 -0.75,-4.146 0.183,-24 0.183,-24 l 3.358,-8.479 6,14.621 6.34,19.479 c 0,0 3.143,4.108 3.209,8.279 0.018,0.202 0.018,0.404 0,0.607 -0.047,0.438 -0.069,0.87 -0.066,1.312 -0.109,2.457 0.562,4.887 1.932,6.932 0,0 1.681,9.199 4.289,11.552 2.608,2.354 2.608,6.854 2.608,6.854 0,0 3.157,13.351 4.657,15.699 1.25,2 1.319,7.406 1.312,9.066 v 0.489 c 0,0 0.438,4.771 0.42,8.779 v 1.43 c -0.004,-0.035 -0.004,-0.071 0,-0.108 -0.008,1.098 -0.142,2.188 -0.392,3.25 0,0 0,0.121 -0.062,0.188 l 0.062,-0.682 c -0.675,2.725 -1.009,5.52 -1,8.317 -0.093,4.8 0.642,10.479 3.552,13.812 5,5.777 8.198,5.061 8.198,5.061 0,0 -2.422,7.211 -5.409,8.65 -0.108,0.059 -0.216,0.129 -0.312,0.209 0,-0.143 -0.062,-0.279 -0.08,-0.42 -0.652,0.729 -0.974,1.711 -0.868,2.688 -0.222,3.17 1.778,8.318 3.688,10.688 0.701,0.693 1.568,1.202 2.521,1.471 l -0.472,0.291 c -0.324,0.183 -0.658,0.347 -1,0.488 -0.48,0.213 -0.996,0.346 -1.521,0.391 -2.048,0.062 -3.973,0.996 -5.279,2.57 -1.858,2.396 -3,5.67 0.647,8.551 l 13.33,4.603 c -0.005,-0.023 22.768,2.919 21.557,-2.232 z"
       id="path268"
       style="fill:url(#SVGID_2_)"
       inkscape:connector-curvature="0" /><path
       d="m 819.525,1421.785 -12.896,-4.6 c -3.562,-2.881 -2.42,-6.15 -0.631,-8.562 1.252,-1.558 3.113,-2.492 5.107,-2.566 0.877,-0.104 1.725,-0.4 2.473,-0.869 0.807,-0.455 1.49,-1.1 2,-1.871 0.947,-1.494 1.461,-3.229 1.471,-5 0,0 14.17,-4.147 18,0 0.688,0.752 1.271,1.596 1.722,2.512 1.272,2.867 1.893,5.982 1.801,9.119 0,0 0.729,4.513 1.893,9.65 1.15,5.139 -20.94,2.187 -20.94,2.187 z m 63.141,-6.37 -12.897,-4.601 c -3.562,-2.881 -2.433,-6.149 -0.632,-8.552 1.244,-1.562 3.111,-2.502 5.109,-2.567 0.508,-0.047 1.006,-0.18 1.471,-0.392 0.347,-0.144 0.681,-0.306 1,-0.489 3.603,-2 3.511,-6.854 3.511,-6.854 0,0 14.159,-4.146 18,0 0.521,0.561 0.979,1.18 1.354,1.842 2.438,4.199 2.17,9.803 2.17,9.803 0,0 0.721,4.51 1.892,9.646 1.16,5.145 -20.978,2.164 -20.978,2.164 z"
       id="path270"
       inkscape:connector-curvature="0"
       style="fill:#2d293d" /><path
       enable-background="new    "
       d="m 835.127,1398.326 c 0.688,0.75 1.271,1.597 1.719,2.511 l -21.229,2.461 c 0.947,-1.492 1.461,-3.229 1.471,-5 -0.002,0 14.168,-4.123 18.039,0.028 z m 64.488,-4.541 v 4 c -3.289,5.439 -19.262,4.25 -23.898,1.521 0.347,-0.143 0.681,-0.305 1,-0.49 3.603,-2 3.511,-6.852 3.511,-6.852 0,0 14.159,-4.148 18,0 0.531,0.553 0.995,1.161 1.387,1.821 z"
       id="path272"
       inkscape:connector-curvature="0"
       style="opacity:0.1" /><path
       d="m 902.143,1376.675 c -0.984,1.729 -1.834,3.541 -2.525,5.408 v 14.25 c -3.604,6 -22.359,4 -24.895,0.725 -2.529,-3.281 -5.229,-11.725 -2.341,-13.16 2.892,-1.438 5.229,-8.66 5.229,-8.66 0,0 -3.066,0.722 -7.938,-5.051 -4.871,-5.771 -3.432,-18.58 -2.521,-21.647 0.91,-3.068 0,-13.353 0,-13.353 0,0 0.184,-7.209 -1.271,-9.562 -1.448,-2.351 -4.51,-15.688 -4.51,-15.688 0,0 0,-4.514 -2.521,-6.859 -2.521,-2.35 -4.146,-11.538 -4.146,-11.538 -1.486,-2.296 -2.135,-5.033 -1.83,-7.75 0.551,-4.511 -3.062,-9.382 -3.062,-9.382 l -6.131,-19.479 -5.779,-14.607 -3.221,8.47 c 0,0 -0.91,19.84 -0.183,24 0.729,4.159 1.801,15.149 1.801,15.149 0,0 -3.608,7.221 -2,13.351 1.609,6.131 1.08,19.302 1.08,19.302 0,0 1.619,27.239 0.183,29.398 -1.438,2.158 -1.263,7.58 -1.263,7.58 0,0 7.391,15.869 5,18 -2.391,2.129 -1.631,8.119 -1.631,8.119 0,0 5,0 2.894,2.16 -2.107,2.157 -3.688,13.562 -3.688,13.562 l -21.812,2.521 c 0,0 -2,-2.521 -4.894,-9.199 -2.893,-6.683 0.539,-6 3.449,-6.67 2.908,-0.67 1.062,-2.529 -2.359,-4.688 -3.42,-2.158 -1.446,-7 -1.446,-7 0,0 5.229,-8.84 3.432,-9.568 -1.803,-0.729 -2,-13.158 -2,-13.158 0,0 -3.609,-14.801 -2.709,-18.762 0.896,-3.959 -2.895,-13.527 -2.895,-13.527 l -1.261,-11.37 c -3.869,-6.439 -5.289,-14.06 -4,-21.459 V 1269 c 0,0 -5,-33.91 -5.771,-51.053 -0.459,-11 -0.328,-25.947 -0.181,-35.302 0.091,-5.237 0.181,-8.711 0.181,-8.711 l 77.951,-8.141 c 0.116,3.893 0.59,7.766 1.407,11.567 0.789,4.277 2,9.818 4,16.75 5.593,19.841 2.158,34.632 2.158,34.632 l -0.721,25.078 c 0,0 6.859,16.771 5.408,22.551 -0.859,3.424 -1.347,6.934 -1.438,10.461 0,0 15.33,36.619 13.711,47.262 -1.619,10.644 5,27.42 5,27.42 0,0 1.86,11.911 0.059,15.161 z"
       id="path274"
       inkscape:connector-curvature="0"
       style="fill:#575988" /><path
       enable-background="new    "
       d="m 857.586,1282.698 23.729,-3.16 c 0,0 -13.438,13.709 -23.729,3.16 z"
       id="path276"
       inkscape:connector-curvature="0"
       style="opacity:0.05" /><path
       enable-background="new    "
       d="m 877.877,1256.357 c 0,0 0.812,8.392 -4.33,11.552 0.006,0 9.209,-1.453 4.33,-11.552 z m -1.451,-26.692 c 0,0 -19.83,16.319 -27,15 -7.17,-1.318 27,-15 27,-15 z m -48.241,60.7 c 0,0 -15.062,3.42 -15.513,9.472 -0.448,6.049 15.513,-9.472 15.513,-9.472 z"
       id="path278"
       inkscape:connector-curvature="0"
       style="opacity:0.1" /><path
       enable-background="new    "
       d="m 831.496,1365.584 c 0,0 -21.279,4 -15.24,6.67 6.041,2.67 16,4.871 16,4.871 0,0 6.82,0.362 -0.76,-11.541 z"
       id="path280"
       inkscape:connector-curvature="0"
       style="opacity:0.05" /><g
       id="g284"
       style="opacity:0.05"><path
         d="m 811.955,1376.558 c -1.078,-0.688 -1.791,-1.82 -1.938,-3.094 l -0.222,0.381 c 0,0 -2,4.869 1.438,7 0.397,0.25 0.771,0.5 1.108,0.738 0.642,-0.119 1.32,-0.209 2,-0.369 2.883,-0.697 1.045,-2.5 -2.386,-4.656 z m 27.422,-1.451 c 0.59,-0.539 0.566,-1.932 0.209,-3.709 -0.869,1.603 -1.287,3.408 -1.209,5.229 0.219,-0.572 0.562,-1.09 1,-1.52 z m -3.272,-89.742 c -0.787,2.131 -1.271,4.363 -1.438,6.631 0.406,-1.563 0.959,-3.096 1.646,-4.561 0.003,0 -0.077,-0.81 -0.208,-2.07 z m 48.772,-9.467 c 0.146,-0.655 0.213,-1.328 0.199,-2 -0.271,1.34 -0.461,2.59 -0.594,3.688 0.071,-0.528 0.202,-1.099 0.395,-1.688 z m -49.291,73.599 c 0.414,-1.291 0.599,-2.646 0.541,-4 -0.653,1.606 -0.994,3.323 -1,5.062 0.109,-0.372 0.263,-0.731 0.459,-1.062 z m 4.468,34.006 c -1.12,3.621 -1.948,7.326 -2.479,11.08 l -21.812,2.528 c 0,0 -2,-2.528 -4.892,-9.198 -0.25,-0.59 -0.449,-1.105 -0.608,-1.59 -1.312,0.602 -1.818,2 -0.105,5.92 2.891,6.67 4.879,9.198 4.879,9.198 l 21.842,-2.528 c 0,0 1.619,-11.355 3.779,-13.527 1.049,-1.06 0.367,-1.601 -0.604,-1.883 z m -28.818,-32.388 c 0,0 0.184,12.449 2,13.17 0.908,-2.061 1.521,-4 0.71,-4.34 -1.812,-0.721 -2,-13.17 -2,-13.17 0,0 -3.604,-14.789 -2.698,-18.76 0.898,-3.975 -2.893,-13.531 -2.893,-13.531 l -1.263,-11.356 c -3.873,-6.439 -5.293,-14.062 -4,-21.472 v -17.5 c 0,0 -5,-33.91 -5.77,-51 -0.461,-11 -0.33,-26 -0.184,-35.301 0,-1.688 0.051,-3.188 0.077,-4.449 l -0.618,0.062 c 0,0 -0.101,3.473 -0.181,8.723 -0.16,9.342 -0.291,24.316 0.181,35.291 0.725,17.141 5.771,51.049 5.771,51.049 v 17.5 c -1.293,7.406 0.127,15.029 4,21.474 l 1.271,11.288 c 0,0 3.788,9.562 2.893,13.529 -0.897,3.965 2.704,18.793 2.704,18.793 z m 64.219,41.132 c -1.771,-2.562 -2.949,-5.492 -3.449,-8.566 -2.229,2 0.33,9.811 2.729,12.896 2.521,3.238 21.279,5.229 24.893,-0.721 v -3.438 c -4.882,4.835 -21.751,2.899 -24.173,-0.171 z m 27.422,-20.382 c -0.996,1.729 -1.844,3.537 -2.531,5.41 v 2.51 c 0.41,-0.93 1,-2.157 1.812,-3.618 0.574,-1.414 0.846,-2.937 0.791,-4.459 -0.033,0.045 -0.06,0.104 -0.072,0.157 z m -26.312,2.841 c 0.688,-1.39 1.28,-2.82 1.776,-4.291 0,0 -3.067,0.725 -7.938,-5 -3.553,-4.197 -3.75,-12.13 -3.238,-17.312 -0.91,3.062 -2.354,15.871 2.521,21.641 3.191,3.734 5.588,4.72 6.879,4.962 z m -9.412,-40 c 0.315,3.559 0.438,7.123 0.358,10.688 0.095,-0.566 0.218,-1.127 0.369,-1.684 0.91,-3.062 0,-13.343 0,-13.343 0,0 0.183,-7.219 -1.26,-9.561 -1.438,-2.341 -4.514,-15.699 -4.514,-15.699 0,0 0,-4.51 -2.521,-6.85 -2.521,-2.344 -4.147,-11.553 -4.147,-11.553 -1.479,-2.3 -2.119,-5.034 -1.812,-7.75 0.539,-4.513 -3.062,-9.384 -3.062,-9.384 l -6.142,-19.485 -5.77,-14.607 -3.25,8.479 c 0,0 0,1.067 -0.108,2.737 l 2.642,-6.891 5.771,14.607 6.158,19.487 c 0,0 3.607,4.871 3.068,9.381 -0.312,2.718 0.325,5.453 1.812,7.75 0,0 1.619,9.199 4.142,11.554 2.521,2.352 2.528,6.852 2.528,6.852 0,0 3.068,13.35 4.512,15.698 1.448,2.365 1.226,9.574 1.226,9.574 z"
         id="path282"
         inkscape:connector-curvature="0" /></g><path
       d="m 882.303,1002.785 -1.358,6.58 0.08,2.933 0.062,2.174 -7.528,0.77 -0.843,-1.561 c -1.562,-2.82 -4.789,-8.562 -5.84,-9.439 -1.393,-1.17 -3.869,-19.479 -0.893,-18.396 1.815,0.705 3.312,2.062 4.188,3.802 0.005,-0.012 14.796,1.727 12.132,13.137 z"
       id="path286"
       inkscape:connector-curvature="0"
       style="fill:#ffcdd3" /><path
       enable-background="new    "
       d="m 881.086,1014.503 -7.528,0.771 -0.841,-1.562 c 2.093,-2.375 5.566,-2.945 8.312,-1.367 z"
       id="path288"
       inkscape:connector-curvature="0"
       style="opacity:0.1" /><path
       d="m 882.985,1018.067 -9.933,2.301 -0.198,-1.479 -0.566,-4 c 0,0 3.93,-5.24 9.607,-1.312 l 0.487,2 z"
       id="path290"
       inkscape:connector-curvature="0"
       style="fill:#dce6f2" /><path
       d="m 722.205,1003.544 -10.59,5.684 -1,-2 c -1,-2.108 -2.514,-5.289 -2.922,-6.434 -0.631,-1.75 -5.051,-4 -5.051,-4 -11.093,-10.601 2.118,-19.711 2.118,-19.711 7,-14.064 14.789,4.78 14.789,4.78 0,0 1.08,9.931 0.32,10.601 -0.764,0.67 -0.771,3.384 -0.771,3.384 1.02,1.948 1.87,3.979 2.562,6.065 0.375,1.014 0.545,1.631 0.545,1.631 z"
       id="path292"
       inkscape:connector-curvature="0"
       style="fill:#ffcdd3" /><path
       enable-background="new    "
       d="m 722.205,1003.544 -10.59,5.684 -1,-2 c 1.486,-1.238 6.801,-5.539 8.537,-5.354 0.834,0.104 1.676,0.125 2.514,0.069 0.369,0.984 0.539,1.601 0.539,1.601 z"
       id="path294"
       inkscape:connector-curvature="0"
       style="opacity:0.1" /><path
       d="m 723.285,1006.785 -11.898,5.871 -0.237,-2.562 -0.172,-1.771 c 0,0 6.899,-5.909 8.938,-5.688 1.027,0.146 2.078,0.146 3.107,0 l 0.129,2.142 z"
       id="path296"
       inkscape:connector-curvature="0"
       style="fill:#dce6f2" /><path
       d="m 853.444,1046.567 c 0,0 -51.919,5.857 -42.208,2.711 6.75,-2.201 9.434,-6.489 10,-11.26 0.449,-4 -0.566,-8.305 -1.938,-12 -1.228,-3.275 -2.778,-6.418 -4.641,-9.382 0,0 39.687,-21.829 31.75,-2 -1.229,3.003 -1.982,6.173 -2.25,9.396 -0.25,3.203 0.088,6.429 1,9.511 1.501,5.03 4.371,9.536 8.287,13.024 z"
       id="path298"
       inkscape:connector-curvature="0"
       style="fill:#ffcdd3" /><path
       enable-background="new    "
       d="m 846.403,1014.648 c -1.228,3.002 -1.98,6.172 -2.25,9.396 -3.736,3.145 -7.839,2.934 -13.102,2.934 -4,0 -8.52,1 -11.76,-1 -1.229,-3.275 -2.779,-6.418 -4.643,-9.38 0.005,0 39.696,-21.813 31.755,-1.95 z"
       id="path300"
       inkscape:connector-curvature="0"
       style="opacity:0.1" /><circle
       cx="830.34497"
       cy="1006.885"
       r="21.472"
       id="circle302"
       style="fill:#ffcdd3" /><path
       enable-background="new    "
       d="m 853.444,1046.567 c 0,0 -51.919,5.857 -42.208,2.711 6.75,-2.201 9.434,-6.489 10,-11.26 2.58,-2.805 7.771,-4.82 11.106,-5.895 3.048,-1.021 6.334,-1.076 9.41,-0.146 1.211,0.355 2.363,0.894 3.42,1.58 1.502,5.017 4.365,9.522 8.272,13.01 z m 29.541,-28.5 -9.933,2.301 -0.198,-1.479 c 2.174,-2.984 5.981,-4.287 9.528,-3.266 z m -159.7,-11.282 -11.898,5.871 -0.237,-2.562 c 3.858,-2.071 7.871,-3.854 12,-5.319 z m 150.688,170.59 c -20.101,3.184 -48.721,7.312 -53.26,5.934 -3.762,-1.148 -15.791,-1 -26.262,-0.67 0.092,-5.24 0.182,-8.709 0.182,-8.709 l 77.932,-8.145 c 0.117,3.9 0.588,7.781 1.408,11.59 z"
       id="path304"
       inkscape:connector-curvature="0"
       style="opacity:0.1" /><path
       d="m 894.024,1172.656 c 0,0 -66.197,11.371 -73.311,9.199 -7.108,-2.17 -43.58,0.183 -43.58,0.183 -16.409,11 -9.561,-5.229 -9.561,-5.229 0,0 -1.439,-8.479 0.537,-15.33 1.348,-5.022 2.271,-10.152 2.764,-15.33 0,0 -0.358,-10.83 1.619,-13.354 1.978,-2.521 4.33,-20.566 4.33,-20.566 0,0 1.811,-12.264 1.629,-15 0.008,-3.438 0.188,-6.865 0.541,-10.279 l 2.34,-12.631 c -13.529,-1.801 -54.66,-27.062 -54.66,-27.062 -2,-8.474 -17.312,-28.318 -17.312,-28.318 -0.226,-1.668 -0.646,-3.307 -1.271,-4.869 -1.08,-2.881 15.16,-8.647 15.16,-8.647 0,0 12.08,14.791 14.605,18.764 2.528,3.969 11.184,11.355 11.184,11.355 1.354,-0.14 2.728,0.038 4,0.521 l 0.211,0.061 c 2.9,1.148 5.625,2.714 8.08,4.646 4.062,-0.103 8.01,1.391 11,4.146 0,0 7.396,-1.08 8.66,0.183 1.26,1.262 7.576,0 7.576,0 0,0 6.312,-13.354 10.462,-9.472 4.146,3.882 21.75,3.697 21.75,3.697 2.351,-3.119 8.062,-5.356 11.632,-6.51 3.045,-1.021 6.332,-1.07 9.406,-0.146 1.33,0.382 2.588,0.982 3.713,1.787 l 10.68,10.461 c 0,0 3.07,-4 2.711,-4.868 -0.358,-0.869 3.609,-1.619 3.609,-1.619 0,0 5.229,-1.631 7.211,-2.17 1.979,-0.541 3.799,1.606 4,1.803 -0.062,-0.23 -1.424,-4.604 -0.896,-7.937 0.529,-3.327 -2.17,-6.5 -2.17,-6.5 6.318,-15.51 20.568,-2.52 20.568,-2.52 0,0 1.621,8.479 0.182,11.719 -1.438,3.24 1.439,10.107 1.078,11.91 -0.356,1.801 0.724,4.868 0.724,8.301 0,3.433 -1.802,9.92 -2.894,12.801 -1.09,2.882 -9.738,9.382 -9.738,9.382 0,0 -0.538,10.289 -4.329,16.237 -3.789,5.949 -1.552,26.342 -1.552,26.342 0,0 3.609,15.908 8.15,21 4.552,5.081 11.162,33.859 11.162,33.859 z"
       id="path306"
       inkscape:connector-curvature="0"
       style="fill:#656691" /><path
       enable-background="new    "
       d="m 797.525,1053.964 c 0,0 -2,-5.947 -3.789,-6.486 -1.795,-0.666 -3.54,-1.451 -5.229,-2.354 l 1.16,-2.22 c 0,0 6.771,1.859 7.857,3.841 1.091,1.983 10e-4,7.219 10e-4,7.219 z m -36.26,-13.179 c -0.357,1.802 -16.423,3.437 -16.423,3.437 l 8.121,-8.146 0.199,0.068 c 2.914,1.147 5.642,2.715 8.103,4.641 z"
       id="path308"
       inkscape:connector-curvature="0"
       style="opacity:0.1" /><circle
       cx="714.80402"
       cy="1016.039"
       r="1.439"
       id="circle310"
       style="fill:#575988" /><circle
       cx="716.65302"
       cy="1018.927"
       r="1.438"
       id="circle312"
       style="fill:#575988" /><circle
       cx="718.46698"
       cy="1021.587"
       r="1.439"
       id="circle314"
       style="fill:#575988" /><circle
       cx="720.35498"
       cy="1024.474"
       r="1.439"
       id="circle316"
       style="fill:#575988" /><circle
       cx="890.39301"
       cy="1024.317"
       r="1.17"
       id="circle318"
       style="fill:#575988" /><circle
       cx="890.57599"
       cy="1026.978"
       r="1.17"
       id="circle320"
       style="fill:#575988" /><circle
       cx="890.73499"
       cy="1029.636"
       r="1.17"
       id="circle322"
       style="fill:#575988" /><path
       enable-background="new    "
       d="m 797.615,1102.846 c -0.172,-0.209 40.488,51.142 72.06,21.472 0.001,-10e-4 -49.878,6.758 -72.06,-21.472 z m -23.359,26.698 c 0,0 24.33,0.658 26.871,7.658 v 7.291 c -1.406,0.78 -3.115,0.78 -4.521,0 -2.447,-1.33 -17.17,-8.802 -22.353,-5.211 z"
       id="path324"
       inkscape:connector-curvature="0"
       style="opacity:0.1" /><path
       d="m 774.705,1129.544 c 0,0 23.271,0.631 25.697,7.312 v 6.933 c -1.349,0.746 -2.98,0.746 -4.326,0 -2.344,-1.263 -16.41,-8.392 -21.371,-5 z"
       id="path326"
       inkscape:connector-curvature="0"
       style="fill:#656691" /><path
       enable-background="new    "
       d="m 787.535,1076.706 c 2.484,5.754 5.648,11.188 9.432,16.188 4.119,5.525 9.111,10.348 14.779,14.271 0,0 -23.811,-27.107 -24.211,-30.459 z m -7.959,-28.269 c 0,0 4.061,17.521 14.52,23.479 z m -6.231,1.769 c -0.102,-0.316 -3.602,13.858 13.49,21.709 0.04,0 -7.259,-2.467 -13.49,-21.709 z m 106.249,-11.75 c -0.271,0 8.439,5.538 10.802,8.108 -0.003,0 -5.661,-8.465 -10.802,-8.108 z"
       id="path328"
       inkscape:connector-curvature="0"
       style="opacity:0.1" /><path
       d="m 824.547,1026.349 c 0.172,1.146 0.771,2.18 1.681,2.896 0.625,0.3 1.312,0.451 2,0.451 6.551,0.396 13.358,0.688 19.409,-1.83 1.146,-0.393 2.179,-1.062 3,-1.95 1.08,-1.314 1.279,-3.105 1.722,-4.75 0.842,-3.209 2.647,-6.064 4,-9.119 2.19,-5.155 2.93,-10.818 2.119,-16.369 -0.156,-1.699 -0.718,-3.347 -1.632,-4.791 -1.737,-2.479 -4.896,-3.479 -7.196,-5.445 -2.304,-1.975 -3.771,-5 -6.449,-6.479 -2.421,-1.341 -5.369,-1.181 -8.104,-0.72 -5.389,0.901 -10.557,2.83 -15.221,5.681 -1.549,0.948 -3.26,2.052 -5,1.725 -1.567,-0.305 -2.709,-1.621 -3.723,-2.854 -1.271,2.942 -1.82,6.149 -1.603,9.354 0.08,0.467 0.08,0.938 0,1.405 -0.227,0.562 -0.563,1.066 -1,1.489 -1.618,1.87 -2.629,4.84 -1,6.729 0.689,0.829 1.763,1.275 2.439,2.118 1.211,1.511 0.801,3.67 0.771,5.605 -0.065,0.67 0.104,1.345 0.479,1.9 0.713,0.659 1.719,0.896 2.646,0.629 0.914,-0.271 1.871,-0.363 2.82,-0.271 1.008,0.33 1.873,0.998 2.448,1.895 2.952,3.841 4.122,8.066 5.394,12.701 z"
       id="path330"
       inkscape:connector-curvature="0"
       style="fill:#2d293d" /><g
       id="g334"
       style="opacity:0.1"><path
         d="m 851.326,1024.253 c -0.816,0.908 -1.852,1.602 -3,2 -6,2.521 -12.859,2.229 -19.41,1.819 -0.69,0.013 -1.379,-0.144 -2,-0.448 -0.91,-0.717 -1.51,-1.756 -1.684,-2.896 -1.271,-4.619 -2.438,-8.854 -5.472,-12.688 -0.573,-0.892 -1.438,-1.56 -2.448,-1.892 -0.945,-0.104 -1.904,-0.01 -2.816,0.271 -0.925,0.256 -1.912,0.02 -2.619,-0.631 -0.381,-0.562 -0.551,-1.232 -0.479,-1.908 0,-1.933 0.438,-4.103 -0.771,-5.603 -0.684,-0.852 -1.74,-1.291 -2.438,-2.118 -0.918,-1.253 -1.078,-2.904 -0.42,-4.312 -1.142,1.814 -1.642,4.156 -0.302,5.75 0.688,0.828 1.761,1.277 2.438,2.117 1.212,1.512 0.804,3.67 0.771,5.606 -0.065,0.671 0.104,1.347 0.479,1.899 0.714,0.657 1.72,0.896 2.646,0.63 0.914,-0.271 1.871,-0.362 2.82,-0.271 1.01,0.328 1.873,0.996 2.451,1.893 3,3.84 4.195,8.066 5.469,12.697 0.017,1.871 1.543,3.38 3.416,3.363 0.096,0 0.188,-0.01 0.285,-0.017 6.549,0.396 13.355,0.688 19.406,-1.83 1.146,-0.395 2.18,-1.062 3,-1.946 0.406,-0.521 0.727,-1.109 0.934,-1.74 -0.078,0.098 -0.164,0.182 -0.256,0.255 z m -41.772,-31.275 c 0.296,-0.312 0.521,-0.682 0.66,-1.08 0.08,-0.466 0.08,-0.942 0,-1.408 -0.188,-2.631 0.154,-5.272 1,-7.771 l -0.121,-0.141 c -1.278,2.94 -1.827,6.149 -1.6,9.35 0.054,0.348 0.073,0.696 0.061,1.05 z"
         id="path332"
         inkscape:connector-curvature="0" /></g><path
       enable-background="new    "
       d="m 820.717,1039.359 c 0,0 26.818,3.549 29.229,-0.479 m 22.931,-10.627 c 0,0 14.892,0 18.17,5.61"
       id="path336"
       inkscape:connector-curvature="0"
       style="opacity:0.1" /><path
       d="m 1193.615,1014.785 c 0,0 1.857,2.437 -0.857,6.109 -2.722,3.682 -5,6.791 -4.062,9.08 0,0 4.106,-6.83 7.447,-6.932 3.343,-0.094 1.156,-4.193 -2.528,-8.257 z"
       id="path338"
       inkscape:connector-curvature="0"
       style="fill:#bbb8fa" /><path
       enable-background="new    "
       d="m 1193.615,1014.785 c 0.158,0.236 0.287,0.492 0.38,0.763 3.263,3.844 5,7.408 1.858,7.5 -2.92,0.094 -6.42,5.312 -7.261,6.633 0,0.102 0.062,0.197 0.103,0.301 0.039,0.101 4.106,-6.83 7.447,-6.934 3.344,-0.1 1.157,-4.199 -2.527,-8.263 z"
       id="path340"
       inkscape:connector-curvature="0"
       style="opacity:0.1" /><path
       d="m 1197.074,1017.834 c 0,0.86 -0.09,1.562 -0.209,1.562 -0.12,0 -0.221,-0.699 -0.221,-1.562 0,-0.855 0.118,-0.445 0.237,-0.445 0.125,0 0.193,-0.4 0.193,0.445 z"
       id="path342"
       inkscape:connector-curvature="0"
       style="fill:#ffd037" /><path
       d="m 1198.265,1018.865 c -0.75,0.41 -1.408,0.66 -1.46,0.554 -0.051,-0.107 0.5,-0.521 1.261,-0.933 0.762,-0.41 0.449,-0.108 0.512,0 0.058,0.113 0.449,-0.03 -0.313,0.379 z"
       id="path344"
       inkscape:connector-curvature="0"
       style="fill:#ffd037" /><path
       d="m 1183.777,1014.785 c 0,0 -1.869,2.437 0.858,6.109 2.729,3.682 5,6.791 4.062,9.08 0,0 -4.105,-6.83 -7.461,-6.932 -3.35,-0.094 -1.14,-4.193 2.541,-8.257 z"
       id="path346"
       inkscape:connector-curvature="0"
       style="fill:#bbb8fa" /><path
       enable-background="new    "
       d="m 1183.777,1014.785 c -0.164,0.234 -0.297,0.49 -0.392,0.763 -3.26,3.844 -5,7.408 -1.858,7.5 2.92,0.094 6.431,5.312 7.271,6.633 0,0.102 -0.062,0.197 -0.104,0.301 -0.041,0.101 -4.107,-6.83 -7.461,-6.934 -3.347,-0.1 -1.137,-4.199 2.544,-8.263 z"
       id="path348"
       inkscape:connector-curvature="0"
       style="opacity:0.1" /><path
       d="m 1180.305,1017.834 c 0,0.86 0.103,1.562 0.222,1.562 0.199,-0.492 0.271,-1.029 0.211,-1.562 0,-0.851 -0.121,-0.445 -0.239,-0.445 -0.119,0 -0.194,-0.4 -0.194,0.445 z"
       id="path350"
       inkscape:connector-curvature="0"
       style="fill:#ffd037" /><path
       d="m 1179.115,1018.865 c 0.764,0.41 1.41,0.66 1.473,0.554 0.062,-0.107 -0.514,-0.521 -1.264,-0.933 -0.75,-0.412 -0.459,-0.108 -0.521,0 -0.059,0.113 -0.438,-0.03 0.312,0.379 z"
       id="path352"
       inkscape:connector-curvature="0"
       style="fill:#ffd037" /><path
       d="m 1180.879,1029.609 c 0,0 5.209,-0.16 6.775,-1.278 1.568,-1.121 8,-2.451 8.41,-0.66 0.408,1.789 7.828,8.92 2,9 -5.83,0.08 -13.672,-0.909 -15.24,-1.87 -1.566,-0.965 -1.945,-5.192 -1.945,-5.192 z"
       id="path354"
       inkscape:connector-curvature="0"
       style="fill:#a8a8a8" /><path
       enable-background="new    "
       d="m 1198.136,1036.019 c -5.879,0 -13.67,-0.92 -15.229,-1.871 -1.197,-0.729 -1.67,-3.34 -1.83,-4.539 h -0.195 c 0,0 0.328,4.209 1.896,5.16 1.567,0.945 9.354,1.92 15.238,1.867 1.698,0 2.278,-0.617 2.25,-1.512 -0.217,0.541 -0.862,0.879 -2.13,0.895 z"
       id="path356"
       inkscape:connector-curvature="0"
       style="opacity:0.2" /></g></svg>