<?xml version="1.0" encoding="utf-8"?>
<!-- Generator: Adobe Illustrator 14.0.0, SVG Export Plug-In . SVG Version: 6.00 Build 43363)  -->
<!DOCTYPE svg PUBLIC "-//W3C//DTD SVG 1.1//EN" "http://www.w3.org/Graphics/SVG/1.1/DTD/svg11.dtd">
<svg version="1.1" id="Layer_1" xmlns="http://www.w3.org/2000/svg" xmlns:xlink="http://www.w3.org/1999/xlink" x="0px" y="0px"
	 width="1132.93px" height="839.141px" viewBox="0 0 1132.93 839.141" enable-background="new 0 0 1132.93 839.141"
	 xml:space="preserve">
<g>
	<path opacity="0.1" fill="#BBB8FA" enable-background="new    " d="M481.34,56.33c-37.17-15.109-76.45-27.761-116.55-26.148
		c-59,2.318-115.512,37.778-143.271,89.85c-23.521,44.109-26.421,95.819-36.551,144.771c-12.479,60.319-36.38,117.642-61.92,173.701
		c-13.72,30.068-28.189,60.868-30.439,93.88c-3.13,45.818,18.779,91.488,53.13,122c34.352,30.51,80,46.561,125.771,50.068
		c24.37,1.87,49.83,0.142,71.48-11.198c22.897-12,39.59-33.69,62.58-45.512c21.31-11,46.229-12.5,70.147-11.068
		c31.331,1.874,62.204,8.435,91.591,19.46c33.432,12.561,64.521,30.739,97.882,43.471c33.357,12.729,70.63,19.84,104.729,9.21
		c32-10,57.341-34.2,80.17-58.75c37.474-40.297,71.649-83.534,102.2-129.301c20.591-30.84,39.75-63.38,48.861-99.33
		c17.397-68.72-6.552-146.261-59.691-193.198c-44-38.881-103.089-55.762-160.919-66c-52.729-9.342-113.7-9.921-162.24-34.262
		C572,104.721,529.88,76.072,481.34,56.33L481.34,56.33z"/>
	
		<linearGradient id="SVGID_1_" gradientUnits="userSpaceOnUse" x1="1029.9241" y1="388.3484" x2="1029.9241" y2="854.7263" gradientTransform="matrix(1 0 0 -1 -243.5854 956.6196)">
		<stop  offset="0" style="stop-color:#808080;stop-opacity:0.25"/>
		<stop  offset="0.54" style="stop-color:#808080;stop-opacity:0.12"/>
		<stop  offset="1" style="stop-color:#808080;stop-opacity:0.1"/>
	</linearGradient>
	<path fill="url(#SVGID_1_)" d="M871.193,120.271c-14.28,0.569-15,37.439-14.11,39.051c0.891,1.61-3.239,18.25-3.239,18.25
		s-6.479,25.229-5.729,29.921c0.75,4.689-3.49,7.76-3.49,7.76c-6.34,2.5-14.29,10.561-16.399,12.771l-0.528,0.568
		c0,0-6.142,4-7.222,5.58s-4,0.32-4,0.32s-8.3-0.801-9.38-0.48c-0.739,0.222-1.898-1.14-2.561-2c-0.312-0.409-0.511-0.72-0.511-0.72
		l-0.25-7.439c-0.312-0.238-0.646-0.445-1-0.619c0.171-0.841,0.381-1.71,0.641-2.602c3.73-1.819,6.879-4.646,9.09-8.159
		c0.24-0.381,0.46-0.771,0.671-1.16c0.554,0.384,1.22,0.57,1.892,0.529c0.295,0.009,0.59-0.02,0.88-0.08
		c0.932-0.251,1.803-0.689,2.56-1.289c2.064-1.394,3.711-3.321,4.762-5.58c0.185-0.432,0.335-0.876,0.449-1.33
		c-0.148,0.25-0.311,0.5-0.471,0.739c0.793-2.135,0.6-4.512-0.529-6.489c-0.779-1.261-2-2.278-2.5-3.681
		c-0.841-2.409,0.75-4.898,1.729-7.26c0.947-2.146,1.257-4.521,0.89-6.841c-0.396-2.348-1.73-4.432-3.699-5.771
		c-3.931-2.55-9.261-1.148-13.811-2.38c-1.625-0.527-3.213-1.165-4.75-1.909c-2.337-1.009-4.771-1.767-7.271-2.261
		c-2.471-0.489-5.46-0.54-7,1.391c-0.431,0.612-0.812,1.259-1.141,1.932c-1.002,1.622-2.609,2.777-4.47,3.21
		c-0.907,0.172-1.827,0.27-2.75,0.29c0.082-0.377,0.082-0.767,0-1.142c-1.16-3.801,2.159-6.62,6.479-8.319
		s20.75-14.641,22.659-17.71c1.91-3.069,15.28-12.699,15.28-12.699s20-5.66,26.561-26.28c6.562-20.619-31.381,14.4-35.199,15.45
		c-3.819,1.05-9.29,5-9.29,5l-24.33,14.069c-4.639,2.616-9.029,5.648-13.119,9.061c-5.892,5.09-9.62,13.74-9.62,13.74
		s-2.33,3.8-5.729,9.3c-1.875,3.135-4.405,5.826-7.42,7.891l0.109-0.199c-0.271,0.329-8.641,10.898-9.38,15.521
		c-0.74,4.62-4.15,23.45-4.15,23.45s-3,14.79-5.06,17.699c0,0-1.67,8.489-2.66,9.631c-0.99,1.14-5,13.17-4.32,14.39
		c0,0-3.818,8.33-3.148,11.48l-6.892,16.5c0,0-3.738,8.158-3.488,12.93c0.118,2.311,0.221,5,0.289,7.199v2
		c-0.369,0.62-1.318,2.2-2.311,4.109c-1.42,2.78-2.931,6.25-2.84,8.391c0.159,3.762,0.17,12.939-1.562,16.312l-0.51-0.2
		c-0.604,1.006-0.95,2.146-1,3.32l0.12,0.061c0,0.289-0.09,0.59-0.12,0.909c-0.42,3.83,0.19,9.16-0.771,10.33
		c-1.33,1.62-0.67,37.521-0.67,37.521s-2.159,22.472,2.158,36.71l-0.328,11.149c0,0-0.172,10.511,0.328,12
		c0.5,1.49,0.672,12.131,0.672,12.131l2.488,17.789c0,0-3.33,27.49-0.5,34.28c1.642,3.746,2.653,7.734,3,11.811
		c1.44,0.792,2.981,1.389,4.58,1.771v1l-0.648,16.72v0.921c0,0-0.08,0.438-0.142,1.17v0.409c-0.005,0.04-0.005,0.08,0,0.12v0.351
		c-0.005,0.091-0.005,0.181,0,0.271c0.005,0.079,0.005,0.16,0,0.239v2.971c0,0.17,0.05,0.33,0.08,0.5c-0.005,0.04-0.005,0.08,0,0.12
		c0,0.188,0.07,0.369,0.11,0.55c0,0.181,0.079,0.359,0.13,0.54c0.004,0.021,0.004,0.04,0,0.061c0,0.091,0.05,0.189,0.08,0.279
		c-0.006,0.043-0.006,0.087,0,0.131c0,0.109,0.068,0.22,0.1,0.34v0.08c0.102,0.279,0.2,0.562,0.32,0.841
		c-0.004,0.029-0.004,0.061,0,0.091c0,0.1,0.09,0.21,0.14,0.31l0.062,0.141l0.131,0.271l0.079,0.149l0.141,0.25l0.09,0.149
		c0,0.079,0.091,0.159,0.142,0.239s0.068,0.101,0.101,0.16l0.149,0.229l0.108,0.149l0.16,0.229l0.12,0.149l0.18,0.221l0.12,0.141
		l0.21,0.239l0.11,0.12l0.34,0.329c0.031,0.038,0.068,0.072,0.109,0.102c0.079,0.081,0.161,0.158,0.25,0.229l0.159,0.131l0.222,0.18
		l0.188,0.142l0.222,0.16l0.21,0.14l0.221,0.141l0.229,0.131l0.229,0.141l0.239,0.12l0.25,0.12l0.25,0.119l0.25,0.108l0.271,0.11
		l0.271,0.101l0.279,0.101l0.301,0.091l0.471,0.14l0.39,0.102l0.312,0.061l0.318,0.069h0.342l0.329,0.051h4.222l0.54-0.051h0.329
		l0.91-0.101c0,0,11.329,1.689,11.699-2.79c0-0.229,0-0.471,0.051-0.721v-0.569c-0.006-0.068-0.006-0.141,0-0.21v-0.811V559.3
		v-1.341v-0.5v-1.431v-0.31c-0.069-2.222-0.182-4.28-0.25-5.432c0-0.608-0.062-1-0.062-1s-3.859-5.818-3.229-8
		c0.63-2.181,0.488-9.58,0.488-9.58s-1.5-3.551-2.51-6.688c-0.08-0.24-0.149-0.479-0.22-0.71c0.838-0.959,1.625-1.96,2.358-3
		c1.437-7.709,0.449-15.673-2.818-22.801c-0.384-0.268-0.611-0.703-0.61-1.171c-0.005-0.039-0.005-0.079,0-0.118l1.932-23.61
		l-1.17-13.74c0,0-0.83-9.39,1-13.43l3.648-35.57l5.18-20.688c0,0,1.66-0.812,3,3.08c1.342,3.89,4.642,21.5,4.642,21.5l8,29.107
		c0,0,1.33,10.353,2.489,11.812s1.171,7.92,1.171,7.92s2.488,5.18,2.158,7.438c-0.329,2.261,0,8.41,0.82,10.512
		c0.819,2.101,1.17,17,1.17,17c-0.956,4.872-0.843,9.896,0.33,14.721c2,7.438,0.83,16.819,0.83,16.819
		c0.21,0.324,0.438,0.639,0.68,0.938c-0.08,0.221-0.17,0.439-0.25,0.641c-0.52,1.352-0.93,2.301-0.93,2.301s-0.12,7.398,0.5,9.58
		c0.62,2.181-3.24,8-3.24,8s0,0.358-0.061,1c-0.069,1.148-0.181,3.199-0.25,5.431v5.7c-0.004,0.062-0.004,0.126,0,0.188v0.579
		c0,0.19,0,0.49,0.051,0.722c0.38,4.479,11.71,2.789,11.71,2.789l0.91,0.109h5.06l0.342-0.061l0.328-0.051l0.32-0.068l0.32-0.062
		l0.39-0.101l0.47-0.141l0.29-0.091l0.28-0.101c0.092-0.026,0.185-0.061,0.271-0.102l0.271-0.108l0.26-0.109l0.25-0.108l0.25-0.131
		l0.23-0.119l0.239-0.131l0.221-0.142l0.229-0.14l0.199-0.142l0.222-0.158c0.065-0.041,0.131-0.089,0.188-0.142
		c0.077-0.052,0.15-0.106,0.22-0.17l0.171-0.141l0.25-0.222l0.109-0.108l0.34-0.33l0.102-0.12l0.22-0.229l0.11-0.148
		c0.066-0.067,0.132-0.143,0.188-0.22l0.109-0.15l0.17-0.229l0.101-0.149l0.16-0.229c0.029-0.057,0.062-0.108,0.101-0.159
		c0-0.08,0.091-0.16,0.141-0.24l0.09-0.149c0-0.091,0.091-0.17,0.131-0.25c0.03-0.048,0.059-0.099,0.079-0.148
		c0-0.091,0.091-0.182,0.131-0.271l0.069-0.141c0-0.102,0.091-0.2,0.141-0.311v-0.091c0.109-0.279,0.221-0.561,0.312-0.841v-0.08
		c0-0.108,0.069-0.22,0.108-0.329c-0.005-0.048-0.005-0.095,0-0.141c0-0.091,0-0.189,0.08-0.28v-0.05
		c0.005-0.021,0.005-0.041,0-0.061c0-0.182,0.102-0.359,0.142-0.529c0-0.181,0.079-0.36,0.108-0.54v-0.131
		c0-0.17,0.062-0.329,0.08-0.489c0.021-0.159,0-0.109,0-0.17v-0.33v-0.25v-0.159v-0.562v-1.75c-0.005-0.09-0.005-0.181,0-0.271
		v-0.351c-0.005-0.04-0.005-0.08,0-0.12v-0.399c-0.061-0.729-0.13-1.17-0.13-1.17v-0.909l-0.631-16.181v-1
		c0.931-0.521,1.881-1.109,2.87-1.801c0,0-0.17-9.221,2.49-12.931c2.658-3.71-1.33-13.431-1.33-13.431l-1.66-34.771l0.66-16
		c-1.317-2.374-2.007-5.046-2-7.761c-0.265-3.47-1.165-6.858-2.66-10c0,0-1.66-5.5,0.34-7.12c2-1.619-2.159-37-2.159-37
		s1-25.851-0.898-41.199v-0.25l0.528-0.239c-0.16-1.229-0.33-2.381-0.521-3.45l-0.562,0.17c-0.233-1.354-0.567-2.691-1-4
		l-2.658-12.21c0,0-0.062-0.641-0.132-1.568c-0.09-1.102-0.188-2.591-0.21-3.9c-0.009-0.552,0.054-1.104,0.182-1.64l-0.142-0.12
		c0.015-0.288,0.062-0.572,0.142-0.852l-0.58-0.488c0,0-0.08-0.552-0.142-1.392c-0.13-1.858-0.198-5.101,0.722-6.931
		c1.33-2.67,15-12.778,15-12.778l7.66-15.33c0,0,7.64-10.762,13.448-12.86c5.812-2.1,23.91-14.14,23.91-14.14s6.312-6.472,6.812-8
		l0.21-0.32h0.119v-0.21l17-25.47c6.801-5.5,7.051-17.222,7.051-17.222l1.771-26.778l-0.58-15.841l0.819-9
		C870.522,157.732,885.46,119.71,871.193,120.271z M773.811,189.572c-1.847,3.233-2.817,6.896-2.818,10.62v0.971
		c0,3.325,0.776,6.605,2.271,9.58c-0.755,0.846-1.317,1.846-1.648,2.93c-0.841-1.061-3.302-4.3-3.439-6.449
		c-0.171-2.58-2.66-4.359-2.66-4.359s-0.46-4.899,0.16-5.739l0.09-0.08c0,0,0.069-0.12,0.21-0.319
		c0.711-1.069,3.102-4.681,5.569-8.79c0.411,0.177,0.836,0.315,1.271,0.42l1.52,0.381L773.811,189.572z"/>
	
		<linearGradient id="SVGID_2_" gradientUnits="userSpaceOnUse" x1="1065.7268" y1="768.3596" x2="1065.7268" y2="770.8108" gradientTransform="matrix(1 0 0 -1 -243.5854 956.6196)">
		<stop  offset="0" style="stop-color:#808080;stop-opacity:0.25"/>
		<stop  offset="0.54" style="stop-color:#808080;stop-opacity:0.12"/>
		<stop  offset="1" style="stop-color:#808080;stop-opacity:0.1"/>
	</linearGradient>
	<path fill="url(#SVGID_2_)" d="M822.25,186.87c0.15-0.341,0.271-0.7,0.391-1.062c-0.382,0.797-0.716,1.614-1,2.45
		C821.851,187.79,822.061,187.33,822.25,186.87z"/>
	<path fill="#F6BAC2" d="M778.25,210.652c0,0-3.13,14.92-8.899,16.851c-5.771,1.931,7,19,7,19l26.472-1.45l0.479-5.528
		c0,0-5-11.069,3.369-24.54C815.04,201.512,778.25,210.652,778.25,210.652L778.25,210.652z"/>
	<path fill="#B77983" d="M736.741,562.921c-0.359,4.448-11.312,2.771-11.312,2.771c-18.159,2.521-15.159-15.28-15.159-15.28v-0.908
		l0.631-16.602l0.18-4.631c0,0,20-9.14,19.49-7.22c-0.189,0.72,0.229,2.45,0.811,4.318c1,3.109,2.431,6.631,2.431,6.631
		s0.119,7.341-0.479,9.5c-0.6,2.159,3.13,7.939,3.13,7.939s0,0.359,0.062,1C736.819,554.594,736.891,558.76,736.741,562.921
		L736.741,562.921z M771.75,567.732c0,0-10.949,1.689-11.31-2.771c-0.167-4.17-0.104-8.347,0.188-12.511c0-0.601,0.051-1,0.051-1
		s3.729-5.778,3.13-7.938c-0.601-2.16-0.479-9.512-0.479-9.512s0.391-0.93,0.9-2.271c1.068-2.81,2.68-7.369,2.35-8.67
		c-0.479-1.93,19.49,7.21,19.49,7.21l0.198,5.181l0.609,16.051v0.909C786.88,552.409,789.92,570.261,771.75,567.732L771.75,567.732z
		"/>
	<path fill="#F6BAC2" d="M846.823,111.92c-6.36,20.45-25.66,26.069-25.66,26.069s-12.92,9.58-14.76,12.58
		c-1.842,3-17.722,15.881-21.9,17.569c-4.179,1.689-7.369,4.489-6.25,8.25c1,3.489-9.939,20.569-11.59,23.109l-0.2,0.319
		l-3.449,3.609l-11.71,5.931l-9.54-3.051l-1.21-11.46l5.062-9c2.926-2.062,5.372-4.733,7.17-7.83c3.29-5.46,5.54-9.221,5.54-9.221
		s3.608-8.579,9.3-13.641c3.938-3.386,8.179-6.396,12.67-9l23.511-14c0,0,5.29-3.931,9-5
		C816.513,126.088,853.161,91.471,846.823,111.92L846.823,111.92z"/>
	<path opacity="0.05" enable-background="new    " d="M751.301,201.991l15.642-3.131c-0.17,0.176-0.271,0.405-0.28,0.649l-0.2,0.319
		l-3.449,3.609l-11.71,5.931l-9.54-3.051l-1.21-11.46l5.062-9c-4.79,10-0.12,17.101-0.12,17.101L751.301,201.991z M842.761,253.652
		c-0.043,0.104-0.079,0.211-0.108,0.319c-0.148,0.357-0.345,0.693-0.58,1l-6.312,3.079l-9.631,1l-5-12.108l3.33-13.271l1.841-2.479
		l0.512-0.562c0.188,2.399,1.158,14.92,1.1,18.681c-0.08,4.171,3,4.5,3,4.5L842.761,253.652z"/>
	<path fill="#D39999" d="M842.281,254.572c-0.043,0.104-0.08,0.212-0.11,0.319c-0.479,1.521-6.569,7.939-6.569,7.939
		s-17.488,11.949-23.101,14c-5.61,2.05-13,12.75-13,12.75l-7.38,15.229c0,0-13.229,10-14.51,12.681c-0.892,1.819-0.82,5-0.69,6.88
		c0,0.83,0.12,1.382,0.12,1.382l-3.899,4.068l-3.108,3.239l-4.38,4.561l-7.131-1l-22.221-3.528l-4.261-2.4l-23.65-13.319
		c0,0,0-0.829-0.06-2.101c0-0.56,0-1.199-0.061-1.909c-0.069-2.16-0.172-4.851-0.279-7.141c-0.24-4.729,3.37-12.83,3.37-12.83
		l6.647-16.37c-0.64-3.119,3.052-11.391,3.052-11.391c-0.642-1.199,3.21-13.149,4.171-14.271c0.959-1.119,2.567-9.551,2.567-9.551
		c2-2.88,4.893-17.561,4.893-17.561s3.29-18.609,4-23.26c0.71-4.651,8.8-15.07,9.06-15.392c-5.77,10.58-0.72,18.279-0.72,18.279
		l5.78-1l15.647-3.05c-0.72,0.479-0.238,5.771-0.238,5.771c1.386,1.055,2.305,2.607,2.561,4.33c0.148,2.351,3,6,3.53,6.649
		l0.08,0.09c0.404-2.259,1.784-4.228,3.77-5.38l3.61,4.818l1.21,5.771c0,0-0.33,0.811-2.41,2.41c-2.08,1.601,0.88,5.771,0.88,5.771
		c1,1.689,1.29,7.939,1.29,7.939c2.65-2.319,6.81-2.319,6.81-2.319c1.694-1.701,3.078-3.684,4.093-5.859
		c0.308-1.302,1.609-2.104,2.912-1.798c0.187,0.044,0.365,0.11,0.535,0.197c1.208-1.05,2.525-1.965,3.933-2.729
		c1.93-1,4.17,1,4.17,1l0.239,7.39c0,0,0.188,0.301,0.5,0.71c0.631,0.881,1.761,2.229,2.471,2c1-0.319,9.06,0.479,9.06,0.479
		s2.812,1.199,3.853-0.319c1.039-1.521,7-5.529,7-5.529s1.147,14.891,1.147,19.05c0,4.16,3,4.5,3,4.5L842.281,254.572z"/>
	<path fill="none" d="M842.46,254.572h-0.21C842.63,253.572,842.46,254.572,842.46,254.572z"/>
	<circle fill="#4B4442" cx="776.653" cy="244.821" r="1.44"/>
	<circle fill="#4B4442" cx="766.141" cy="265.761" r="1.44"/>
	<circle fill="#4B4442" cx="745.451" cy="310.592" r="1.44"/>
	<circle fill="#4B4442" cx="755.233" cy="287.971" r="1.44"/>
	<path opacity="0.05" enable-background="new    " d="M731.46,525.369c-7.52,8.939-15.64,8.79-20.479,7.53l0.18-4.631
		c0,0,20-9.14,19.49-7.22C730.46,521.771,730.841,523.5,731.46,525.369L731.46,525.369z M786.272,535.49
		c-12.771,7.38-20.261-1.271-22-3.721c1.069-2.81,2.681-7.369,2.351-8.67c-0.479-1.93,19.49,7.211,19.49,7.211L786.272,535.49z"/>
	<path fill="#8499F0" d="M791.403,519.931c-2.562,3.688-2.41,12.83-2.41,12.83c-16.521,11.87-25.18-2.569-25.18-2.569
		s1.118-9.301-0.802-16.681c-1.139-4.789-1.246-9.767-0.318-14.602c0,0-0.32-14.76-1.13-16.84c-0.812-2.08-1.12-8.181-0.802-10.431
		c0.319-2.25-2.08-7.37-2.08-7.37s0-6.42-1.13-7.859c-1.131-1.438-2.398-11.72-2.398-11.72l-7.69-28.87c0,0-3.21-17.479-4.489-21.33
		c-1.278-3.851-2.891-3.05-2.891-3.05l-4.62,20.689l-3.529,35.29c-1.771,4-1,13.318-1,13.318l1.12,13.63l-1.858,23.422
		c-0.005,0.039-0.005,0.079,0,0.118c-0.005,0.458,0.212,0.89,0.579,1.16c3.155,7.098,4.094,14.98,2.688,22.62
		c-12.188,17.649-26.95,8.5-26.95,8.5c-0.319-4.029-1.294-7.979-2.88-11.7c-2.729-6.738,0.48-34,0.48-34l-2.41-17.648
		c0,0-0.16-10.59-0.642-12c-0.479-1.41-0.318-11.87-0.318-11.87l0.318-11.069c-4.171-14.12-2.091-36.41-2.091-36.41
		s-0.64-35.608,0.65-37.22c0.93-1.16,0.34-6.438,0.74-10.25c0.042-1.156,0.363-2.285,0.938-3.29l0.16-0.16
		c2.09-2.568,2.09-12.83,1.92-16.851c-0.08-2.119,1.37-5.562,2.75-8.319c1-1.938,1.91-3.54,2.25-4.12l0.141-0.229
		c0,0,9.142,2.25,33.36,13.8c4.337,2.146,8.988,3.589,13.779,4.271c2.384,0.319,4.797,0.354,7.188,0.11
		c3.65-0.352,7.182-1.498,10.341-3.36c1.67-0.951,3.18-2.163,4.471-3.59c-0.33,1-0.13,4.42,0,6.46
		c0.061,0.932,0.13,1.562,0.13,1.562l2.67,11.898c0.436,1.411,0.77,2.853,1,4.312c0.189,1.061,0.351,2.21,0.5,3.431
		c1.87,15.221,0.87,40.869,0.87,40.869s4,35.131,2.09,36.729c-1.909,1.601-0.329,7.061-0.329,7.061
		c1.451,3.131,2.322,6.498,2.569,9.939c-0.015,2.688,0.649,5.337,1.931,7.699l-0.65,15.88l1.682,34.45
		C790.12,506.572,793.971,516.24,791.403,519.931L791.403,519.931z"/>
	<path opacity="0.05" enable-background="new    " d="M772.591,461.862c0,0,12.149-7,14.8-3.851
		C790.04,461.159,772.591,461.862,772.591,461.862z M779.931,465.711c0,0-2,1,2.41,2.278
		C786.75,469.271,779.931,465.711,779.931,465.711z M706.46,446.461c-0.41,0.118,10.11,7.1,19.61,1.318
		C726.031,447.781,708.83,445.74,706.46,446.461z M725.551,459.811c0,0-2.881,5.66-8.779,6.5
		C710.87,467.152,725.551,459.811,725.551,459.811z M764.17,472.091c0,0,13.841,22,11.19,27.188
		C772.71,504.471,764.17,472.091,764.17,472.091z M740.83,338.659l-1.439,43.069c0,0,8.54-0.359,10-14.55
		c1.46-14.189,2.529-25.75,2.529-25.75L740.83,338.659z"/>
	<path fill="#8499F0" d="M740.351,337.699l-1.438,43.069c0,0,8.54-0.359,10-14.56c1.46-14.201,2.55-25.74,2.55-25.74
		L740.351,337.699z"/>
	<path opacity="0.05" enable-background="new    " d="M723.031,339.631c0,0-6.74,18.068-22.16,9.318
		c0.041-1.155,0.363-2.286,0.939-3.29c4.221,1.771,14,4.359,18-7.358L723.031,339.631z"/>
	<path opacity="0.05" enable-background="new    " d="M722.551,337.699c0,0-6.74,18.069-22.161,9.319
		c0.044-1.155,0.365-2.284,0.94-3.29c4.22,1.78,14,4.36,18-7.35L722.551,337.699z"/>
	<path fill="#8499F0" d="M722.551,338.659c0,0-6.74,18.069-22.161,9.319c0.044-1.155,0.365-2.284,0.94-3.289
		c4.22,1.779,14,4.359,18-7.351L722.551,338.659z"/>
	<path opacity="0.05" enable-background="new    " d="M781.551,354.902c-16.938,8.062-23.148-10.938-23.148-10.938l4,0.118
		c0.698,12.15,14.09,8.882,18.68,7.392C781.241,352.572,781.403,353.681,781.551,354.902L781.551,354.902z"/>
	<path opacity="0.05" enable-background="new    " d="M782.511,353.461c-16.931,8.05-23.148-10.95-23.148-10.95l4,0.12
		c0.698,12.148,14.09,8.89,18.68,7.398C782.201,351.091,782.363,352.24,782.511,353.461L782.511,353.461z"/>
	<path fill="#8499F0" d="M782.031,353.942c-16.932,8.05-23.149-10.95-23.149-10.95l4,0.12c0.699,12.159,14.09,8.892,18.681,7.399
		C781.721,351.572,781.88,352.721,782.031,353.942L782.031,353.942z"/>
	<path opacity="0.1" fill="#FFFFFF" enable-background="new    " d="M722.551,338.659c0,0-6.74,18.069-22.161,9.319
		c0.044-1.155,0.365-2.284,0.94-3.289c4.22,1.779,14,4.359,18-7.351L722.551,338.659z M782.031,353.942
		c-16.932,8.05-23.149-10.95-23.149-10.95l4,0.12c0.699,12.159,14.09,8.892,18.681,7.399
		C781.721,351.572,781.88,352.721,782.031,353.942L782.031,353.942z"/>
	<path opacity="0.05" enable-background="new    " d="M736.863,559.572c0,1.229,0,2.38-0.12,3.33
		c-0.359,4.449-11.312,2.771-11.312,2.771c-10.001,1.39-13.601-3.41-14.791-8c-0.373-1.491-0.559-3.022-0.55-4.562
		c-0.006-0.916,0.055-1.832,0.182-2.74v-0.908c2.153-0.65,4.491-0.173,6.221,1.271c4.45,3.609,10.351,0.84,10.351,0.84
		s4.329,0.359,6,1.801c0.939,0.811,2.489-1.141,3.67-3c0.069,1.199,0.181,3.369,0.25,5.689
		C736.841,557.25,736.863,558.449,736.863,559.572L736.863,559.572z"/>
	<path opacity="0.05" enable-background="new    " d="M719.3,559.311c0,0-3,2.939-8.66-1.6c-0.373-1.491-0.559-3.022-0.55-4.562
		C712.983,555.351,718.34,559.311,719.3,559.311L719.3,559.311z M736.863,559.572c-0.988,0.764-2.408,0.579-3.17-0.409
		c-0.028-0.035-0.056-0.072-0.08-0.109c1.166-0.889,2.237-1.895,3.198-3C736.841,557.25,736.863,558.449,736.863,559.572z
		 M760.33,561.631c0,1.238,0,2.39,0.11,3.33c0.358,4.46,11.31,2.771,11.31,2.771c10,1.399,13.601-3.4,14.79-8
		c0.589-2.388,0.715-4.865,0.37-7.301v-0.909c-2.159-0.64-4.494-0.163-6.229,1.271c-4.448,3.608-10.34,0.84-10.34,0.84
		s-4.33,0.37-6,1.811c-0.938,0.812-2.49-1.141-3.66-3c-0.068,1.199-0.188,3.37-0.261,5.689
		C760.341,559.301,760.323,560.5,760.33,561.631L760.33,561.631z"/>
	<path opacity="0.05" enable-background="new    " d="M777.891,561.351c0,0,3,2.938,8.649-1.6c0.377-1.487,0.565-3.018,0.561-4.552
		C784.201,557.391,778.841,561.351,777.891,561.351L777.891,561.351z M760.33,561.631c0.982,0.76,2.396,0.578,3.156-0.404
		c0.028-0.038,0.057-0.075,0.084-0.115c-1.168-0.888-2.24-1.893-3.2-3C760.341,559.301,760.323,560.5,760.33,561.631z
		 M747.13,254.572c0,0-15.397,42.511-9.47,46.199C743.591,304.46,747.13,254.572,747.13,254.572z M758.363,241.45
		c0,0-2.9,14.119-1.45,15.398C758.363,258.13,758.363,241.45,758.363,241.45z M789.46,274.34c0,0-18.93,17.642-17.649,19.091
		C773.092,294.88,789.46,274.34,789.46,274.34z M803.931,235.511c-7.17,2.189-23.931,7.311-24.12,7.271l0.932-3.819
		c2.648-2.319,6.811-2.319,6.811-2.319c1.693-1.7,3.077-3.684,4.09-5.858c0.31-1.302,1.611-2.105,2.913-1.798
		c0.188,0.044,0.365,0.109,0.537,0.196c1.211-1.046,2.527-1.961,3.931-2.729c1.931-1,4.171,1,4.171,1l0.239,7.38
		C803.431,234.83,803.62,235.101,803.931,235.511L803.931,235.511z"/>
	<path fill="#D39999" d="M803.931,234.572c-7.17,2.189-23.931,7.311-24.12,7.261l0.932-3.812c2.648-2.318,6.811-2.318,6.811-2.318
		c1.693-1.7,3.077-3.686,4.09-5.86c0.31-1.3,1.611-2.104,2.913-1.797c0.188,0.045,0.365,0.109,0.537,0.197
		c1.208-1.05,2.524-1.966,3.931-2.729c1.931-1,4.171,1,4.171,1l0.239,7.391C803.431,233.902,803.62,234.141,803.931,234.572z"/>
	<path opacity="0.05" enable-background="new    " d="M778.971,230.572c1,1.689,1.279,7.939,1.279,7.939l-2.79,2.221l-5.3-15.279
		l-0.24-7.939l-0.1-0.45l0.08,0.091c0.403-2.259,1.783-4.224,3.77-5.369l3.61,4.81l1.21,5.771c0,0-0.33,0.811-2.41,2.409
		C776,226.37,778.971,230.572,778.971,230.572L778.971,230.572z"/>
	<path fill="#D39999" d="M779.46,230.061c1,1.689,1.29,7.939,1.29,7.939l-2.79,2.25l-5.3-15.279l-0.24-7.939l-0.107-0.449
		l0.078,0.09c0.407-2.259,1.786-4.227,3.771-5.38l3.61,4.819l1.21,5.771c0,0-0.33,0.812-2.41,2.41
		C776.491,225.891,779.46,230.061,779.46,230.061L779.46,230.061z"/>
	<path opacity="0.05" enable-background="new    " d="M814.823,203.92c-0.006,11.957-9.703,21.646-21.66,21.641
		s-21.646-9.702-21.641-21.659c0.006-11.952,9.696-21.641,21.648-21.641c11.857-0.101,21.552,9.432,21.65,21.288
		C814.823,203.673,814.823,203.797,814.823,203.92z"/>
	<path fill="#F6BAC2" d="M814.823,202.95c0.005,11.963-9.688,21.663-21.65,21.67c-11.962,0.006-21.663-9.688-21.67-21.649
		c-0.006-11.963,9.688-21.665,21.65-21.671c0.006,0,0.013,0,0.02,0c11.893-0.065,21.584,9.521,21.65,21.41
		C814.823,202.79,814.823,202.87,814.823,202.95z"/>
	<path opacity="0.05" enable-background="new    " d="M814.823,202.95c0.007,3.969-1.084,7.86-3.15,11.25
		c-0.318-0.57-0.51-1.229-0.829-1.812c-0.45-0.811-1.489-1.489-2.261-1c-0.321,0.264-0.567,0.608-0.71,1
		c-0.63,1.33-1.75,2.659-3.22,2.63c-1.31-0.141-2.397-1.067-2.74-2.34c-0.309-1.25-0.362-2.549-0.16-3.819
		c0.221-2.601,0.261-5.601-1.67-7.351c-1.246-0.912-2.67-1.549-4.18-1.87c-1.472-0.479-3-1.239-3.602-2.66
		c-0.398-1-0.301-2.061-0.66-3c-0.755-1.526-2.204-2.595-3.891-2.858c-1.911,1.577-4.332,2.406-6.81,2.33
		c-2.271-0.056-4.524-0.41-6.7-1.062c5.823-10.448,19.016-14.198,29.465-8.376c6.857,3.822,11.109,11.056,11.115,18.905
		L814.823,202.95L814.823,202.95z"/>
	<path fill="#7E646B" d="M791.641,193.04c0.359,1,0.262,2.08,0.66,3c0.59,1.42,2.13,2.181,3.602,2.66
		c1.508,0.318,2.932,0.953,4.18,1.858c1.931,1.761,1.891,4.761,1.67,7.359c-0.202,1.271-0.146,2.569,0.16,3.819
		c0.349,1.269,1.435,2.193,2.74,2.341c1.47,0,2.59-1.301,3.22-2.631c0.144-0.392,0.389-0.735,0.71-1
		c0.771-0.511,1.811,0.171,2.261,1c0.314,0.866,0.749,1.685,1.29,2.431c0.723,0.624,1.708,0.849,2.63,0.601
		c0.903-0.246,1.746-0.684,2.47-1.279c2.005-1.396,3.595-3.307,4.602-5.529c0.993-2.252,0.888-4.838-0.29-7
		c-0.75-1.26-1.939-2.271-2.409-3.659c-0.82-2.391,0.72-4.851,1.67-7.189c0.909-2.141,1.205-4.491,0.851-6.79
		c-0.372-2.312-1.658-4.377-3.569-5.729c-3.8-2.529-8.939-1.14-13.34-2.358c-1.574-0.518-3.107-1.147-4.591-1.892
		c-2.245-0.997-4.593-1.748-7-2.239c-2.391-0.479-5.279-0.54-6.79,1.37c-0.412,0.612-0.78,1.254-1.101,1.92
		c-0.953,1.601-2.512,2.745-4.319,3.182c-1.29,0.31-2.641,0.229-4,0.42c-1.345,0.094-2.57,0.797-3.33,1.909
		c-0.659,1.199-0.381,2.659-0.221,4s0.08,2.938-1,3.771c-0.51,0.391-1.21,0.58-1.521,1.131c-0.293,0.663-0.101,1.44,0.471,1.891
		c0.562,0.427,1.217,0.714,1.909,0.841c2.486,0.774,5.066,1.217,7.671,1.31c2.631,0.086,5.191-0.855,7.14-2.63
		c-0.17,0.17-1.271,0.102-1.47,0.09C788.531,190.221,790.911,191.08,791.641,193.04L791.641,193.04z"/>
	<g opacity="0.05">
		<path d="M818.46,210.771c-0.726,0.598-1.565,1.034-2.47,1.29c-0.921,0.238-1.898,0.012-2.62-0.608
			c-0.546-0.744-0.982-1.562-1.3-2.432c-0.45-0.811-1.49-1.489-2.26-1c-0.318,0.27-0.562,0.611-0.712,1
			c-0.618,1.33-1.75,2.66-3.221,2.631c-1.307-0.14-2.393-1.068-2.729-2.341c-0.312-1.249-0.37-2.549-0.17-3.818
			c0.229-2.602,0.26-5.591-1.66-7.352c-1.25-0.911-2.679-1.549-4.19-1.87c-1.46-0.479-3-1.239-3.6-2.659c-0.4-1-0.3-2.062-0.66-3
			c-0.59-1.591-2.26-2.46-3.89-2.859c-1.918,1.567-4.334,2.396-6.812,2.34c-2.604-0.101-5.182-0.545-7.67-1.318
			c-0.69-0.129-1.345-0.412-1.91-0.83c-0.114-0.107-0.22-0.229-0.31-0.359c-0.442,0.188-0.827,0.488-1.12,0.87
			c-0.293,0.663-0.1,1.439,0.47,1.89c0.562,0.426,1.218,0.714,1.91,0.841c2.487,0.776,5.066,1.218,7.67,1.312
			c2.475,0.064,4.889-0.762,6.801-2.33c1.631,0.399,3.312,1.26,3.899,2.85c0.36,1,0.26,2.08,0.66,3c0.6,1.421,2.13,2.182,3.6,2.66
			c1.51,0.32,2.935,0.954,4.181,1.86c1.932,1.76,1.892,4.76,1.672,7.358c-0.203,1.271-0.149,2.57,0.158,3.819
			c0.35,1.269,1.435,2.194,2.739,2.34c1.471,0,2.59-1.3,3.221-2.63c0.145-0.391,0.39-0.734,0.71-1c0.771-0.51,1.812,0.17,2.262,1
			c0.312,0.868,0.752,1.688,1.3,2.431c0.719,0.623,1.701,0.85,2.62,0.602c0.904-0.247,1.746-0.686,2.47-1.28
			c2.004-1.396,3.595-3.306,4.601-5.529c0.179-0.429,0.321-0.869,0.432-1.318C821.507,208.077,820.119,209.594,818.46,210.771
			L818.46,210.771z M820.46,191.152c0.21-0.46,0.41-0.92,0.601-1.37c0.189-0.449,0.262-0.699,0.37-1.061
			C821.065,189.512,820.74,190.324,820.46,191.152z M773.701,184.862c1-0.851,1.068-2.369,0.91-3.681
			c-0.118-0.765-0.183-1.537-0.19-2.311c-0.213,0.208-0.396,0.441-0.55,0.699c-0.66,1.199-0.38,2.659-0.22,4
			C773.703,183.998,773.72,184.43,773.701,184.862z"/>
	</g>
	<path opacity="0.05" enable-background="new    " d="M777.641,333.732c-1.858,0.13-4.471,0.271-7.608,0.38
		c-2.182,0.069-4.62,0.12-7.229,0.12c-2.279,0-4.688,0-7.188-0.11c-7.907-0.203-15.788-1.018-23.57-2.43c-10.39-2-20-5.45-26-11.29
		c1-1.938,1.91-3.551,2.25-4.12c0-0.561,0-1.21-0.06-1.91c10.55,5,43.438,18.892,68.648,11c0,0.83,0.119,1.382,0.119,1.382
		l0.57,0.479C777.281,328.271,777.46,331.692,777.641,333.732L777.641,333.732z"/>
	<path fill="#4B4442" d="M777.641,332.771c-1.858,0.131-4.471,0.271-7.608,0.37c-2.182,0.08-4.62,0.12-7.229,0.12
		c-2.279,0-4.688,0-7.188-0.109c-7.907-0.2-15.787-1.011-23.57-2.42c-10.39-2-20-5.461-26-11.301c1-1.939,1.91-3.54,2.25-4.12
		c0-0.561,0-1.199-0.06-1.909c10.55,5,43.438,18.899,68.648,11.05c0,0.83,0.119,1.38,0.119,1.38l0.57,0.479
		C777.281,327.311,777.46,330.732,777.641,332.771L777.641,332.771z"/>
	<path fill="#B7B6CC" d="M278.531,770.442c-2.424-2.917-3.534-6.706-3.069-10.471l44.141-361.17l3.659-30
		c0.85-6.902,6.688-12.105,13.641-12.16l129.292-0.859c7.638-0.047,13.791-6.275,13.743-13.914c0-0.099-0.002-0.196-0.006-0.296
		l-0.05-1.37c-0.26-7.639,5.724-14.042,13.362-14.302c0.156-0.006,0.312-0.009,0.468-0.009h135.86
		c7.626,0,13.812,6.175,13.83,13.801c-0.001,0.622-0.041,1.242-0.12,1.859c-1.015,7.569,4.303,14.527,11.873,15.542
		c0.493,0.064,0.988,0.104,1.484,0.118l130.48,3.328c7.63,0.188,13.664,6.525,13.477,14.156c-0.017,0.672-0.082,1.342-0.194,2.004
		l-65.23,381l-1.229,7.2c-0.306,1.84-0.985,3.597-2,5.159L278.531,770.442z"/>
	
		<linearGradient id="SVGID_3_" gradientUnits="userSpaceOnUse" x1="583.2053" y1="-22.0515" x2="583.2053" y2="240.7883" gradientTransform="matrix(0.8227 0.5684 0.5684 -0.8227 87.5621 135.8927)">
		<stop  offset="0" style="stop-color:#808080;stop-opacity:0.25"/>
		<stop  offset="0.54" style="stop-color:#808080;stop-opacity:0.12"/>
		<stop  offset="1" style="stop-color:#808080;stop-opacity:0.1"/>
	</linearGradient>
	<path opacity="0.5" fill="url(#SVGID_3_)" enable-background="new    " d="M521.776,462.689L671.171,246.45l66.115,45.678
		L587.889,508.367L521.776,462.689z"/>
	<path fill="#F9FAFB" d="M672.287,249.373l62.856,43.427L587.748,506.145l-62.856-43.427L672.287,249.373z"/>
	<path fill="#F7B643" d="M676.819,259.483l44.287,30.785l-30.785,44.288l-44.288-30.786L676.819,259.483z"/>
	<path opacity="0.5" fill="#F7B643" enable-background="new    " d="M642.122,312.853l44.437,30.7l-30.698,44.437l-44.438-30.7
		L642.122,312.853z"/>
	<path opacity="0.3" fill="#F7B643" enable-background="new    " d="M605.047,366.502l44.438,30.698l-30.7,44.438l-44.438-30.7
		L605.047,366.502z"/>
	
		<linearGradient id="SVGID_4_" gradientUnits="userSpaceOnUse" x1="611.5051" y1="104.1409" x2="611.5051" y2="365.9802" gradientTransform="matrix(0.9599 0.2805 0.2805 -0.9599 -69.6366 424.6193)">
		<stop  offset="0" style="stop-color:#808080;stop-opacity:0.25"/>
		<stop  offset="0.54" style="stop-color:#808080;stop-opacity:0.12"/>
		<stop  offset="1" style="stop-color:#808080;stop-opacity:0.1"/>
	</linearGradient>
	<path opacity="0.5" fill="url(#SVGID_4_)" enable-background="new    " d="M507.99,484.91l73.447-251.338l77.135,22.541
		l-73.448,251.338L507.99,484.91z"/>
	<path fill="#F9FAFB" d="M583.481,236.011l73.332,21.431l-72.462,247.96l-73.333-21.431L583.481,236.011z"/>
	<path fill="#F97878" d="M593.109,243.168l51.841,15.149l-15.15,51.842l-51.841-15.148L593.109,243.168z"/>
	<path opacity="0.5" fill="#F97878" enable-background="new    " d="M574.817,305.755l51.841,15.149l-15.15,51.842l-51.841-15.148
		L574.817,305.755z"/>
	<path opacity="0.3" fill="#F97878" enable-background="new    " d="M556.527,368.332l51.842,15.15l-15.15,51.841l-51.842-15.148
		L556.527,368.332z"/>
	
		<linearGradient id="SVGID_5_" gradientUnits="userSpaceOnUse" x1="641.1174" y1="225.7629" x2="641.1173" y2="487.6082" gradientTransform="matrix(0.9968 0.0802 0.0802 -0.9968 -108.9937 675.7951)">
		<stop  offset="0" style="stop-color:#808080;stop-opacity:0.25"/>
		<stop  offset="0.54" style="stop-color:#808080;stop-opacity:0.12"/>
		<stop  offset="1" style="stop-color:#808080;stop-opacity:0.1"/>
	</linearGradient>
	<path opacity="0.5" fill="url(#SVGID_5_)" enable-background="new    " d="M508.125,498.949l21-261.006l80.104,6.443l-21,261.007
		L508.125,498.949z"/>
	<path fill="#F9FAFB" d="M531.533,239.92l76.152,6.128l-20.718,257.499l-76.151-6.127L531.533,239.92z"/>
	<path fill="#73B53B" d="M542.37,244.987l53.837,4.331l-4.332,53.836l-53.836-4.331L542.37,244.987z"/>
	<path opacity="0.5" fill="#73B53B" enable-background="new    " d="M537.136,309.967l53.836,4.332l-4.332,53.836l-53.836-4.332
		L537.136,309.967z"/>
	<path opacity="0.3" fill="#73B53B" enable-background="new    " d="M531.911,374.969l53.836,4.332l-4.332,53.836l-53.836-4.332
		L531.911,374.969z"/>
	
		<linearGradient id="SVGID_6_" gradientUnits="userSpaceOnUse" x1="676.4983" y1="283.7078" x2="676.4983" y2="545.5525" gradientTransform="matrix(0.999 -0.0455 -0.0455 -0.999 -116.2998 822.5909)">
		<stop  offset="0" style="stop-color:#808080;stop-opacity:0.25"/>
		<stop  offset="0.54" style="stop-color:#808080;stop-opacity:0.12"/>
		<stop  offset="1" style="stop-color:#808080;stop-opacity:0.1"/>
	</linearGradient>
	<path opacity="0.5" fill="url(#SVGID_6_)" enable-background="new    " d="M494.556,248.637l80.276-3.66l11.924,261.579
		l-80.274,3.659L494.556,248.637z"/>
	<path fill="#FFFFFF" d="M497.275,250.276l76.317-3.479l11.766,258.062l-76.319,3.479L497.275,250.276z"/>
	<path fill="#BBB8FA" d="M508.653,253.923l53.951-2.46l2.461,53.954l-53.953,2.461L508.653,253.923z"/>
	<path opacity="0.5" fill="#BBB8FA" enable-background="new    " d="M513.737,316.992l54.01-2.698l2.7,54.01l-54.011,2.7
		L513.737,316.992z"/>
	<path opacity="0.3" fill="#BBB8FA" enable-background="new    " d="M514.585,384.198l53.954-2.459l2.46,53.954l-53.954,2.46
		L514.585,384.198z"/>
	<path fill="#E6ECF8" d="M529.68,590.711l-67.88,26.26l-99.21,38.351c-3.75-7-9.271-16.46-16.1-27.75
		c-23.5-38.938-62.382-99.511-97-152.739c-39-60-72.57-110.631-72.57-110.631l24.3-7l198.5-57.63L529.68,590.711z"/>
	<path opacity="0.1" enable-background="new    " d="M529.68,590.711l-67.88,26.26c-37.92,7.899-76.614,11.456-115.34,10.601
		c-23.5-38.938-62.38-99.511-97-152.739l-48.229-117.671l198.489-57.589L529.68,590.711z"/>
	<path fill="#BBB8FA" d="M580.18,574.369c0,0-105.447,62.381-262.89,48.271l-125.512-306l60.149-10.341l207.94-35.71l118,297.831
		L580.18,574.369z"/>
	<path opacity="0.1" enable-background="new    " d="M577.83,568.461c-24.83,1.22-53.561,1.1-82.46-2.352
		c-31.28-3.681-62.74-11.261-89.71-25.16c-22.552-11.608-41.83-24.238-58.642-39.391c-43.729-39.33-70.79-95.59-95.091-195.221
		l207.94-35.71L577.83,568.461z"/>
	<path fill="#F9FAFB" d="M655.193,551.351c0,0-77.73,15.221-156.853,5.851c-31.279-3.681-62.739-11.261-89.71-25.159
		c-22.55-11.609-41.819-24.239-58.64-39.391c-54.12-48.689-82.7-123.311-112.172-274c0,0,129.222,31.188,257.002-37.131
		C494.781,181.572,537.851,450.351,655.193,551.351z"/>
	<path opacity="0.1" enable-background="new    " d="M498.34,557.199c-31.279-3.681-62.739-11.26-89.71-25.16
		c-22.55-11.608-41.819-24.238-58.64-39.39c46.078-3.74,52.7-28.931,52.7-28.931C436.851,517.931,498.34,557.199,498.34,557.199z"/>
	<path opacity="0.3" fill="#BBB8FA" enable-background="new    " d="M304.661,273.971c0,0,105.08-5.938,134.42-28.591l4.45,14.301
		c0,0-69.432,30.63-138.87,31V273.971z M304.661,344.572c0,0,101.74-5.568,178.608-42.699l2.602,5.938c0,0-61,35.61-181.21,44.931
		V344.572L304.661,344.572z M312.851,372.079c0,0,101.739-5.568,178.602-42.698l2.6,5.938c0,0-61,35.602-181.199,44.93
		L312.851,372.079L312.851,372.079z M321.031,399.631c0,0,101.74-5.57,178.608-42.7l2.593,5.938c0,0-61,35.609-181.2,44.932
		L321.031,399.631z M329.22,427.181c0,0,101.74-5.569,178.603-42.699l2.6,5.939c0,0-61,35.608-181.2,44.93L329.22,427.181
		L329.22,427.181z M337.401,454.74c0,0,101.739-5.568,178.609-42.7l2.591,5.94c0,0-61,35.6-181.2,44.93V454.74z"/>
	<path fill="#BBB8FA" d="M1052.772,796.811c0,0-42.279-2.55-37.302,27.08c0,0-1,5.229,3.763,7.609c0,0,0.067-2.199,4.33-1.449
		c1.518,0.255,3.062,0.329,4.6,0.22c2.072-0.139,4.043-0.953,5.609-2.319c0,0,11.891-4.91,16.51-24.33c0,0,3.42-4.238,3.281-5.33
		l-7.132,3c0,0,2.438,5.15,0.521,9.42c0,0-0.229-9.229-1.6-9c-0.279,0-3.709,1.78-3.709,1.78s4.188,9,1,15.48
		c0,0,1.198-11.052-2.343-14.83l-5,2.93c0,0,4.899,9.26,1.58,16.82c0,0,0.853-11.59-2.64-16.11l-4.551,3.55
		c0,0,4.608,9.13,1.801,15.4c0,0-0.371-13.5-2.791-14.521c0,0-4,3.512-4.58,5c0,0,3.15,6.619,1.191,10.119c0,0-1.201-9-2.184-9
		c0,0-4,6-4.379,10c0,0,0.17-6.08,3.42-10.607c-2.289,0.437-4.401,1.53-6.08,3.147c0,0,0.619-4.22,7.062-4.58
		c0,0,3.278-4.52,4.146-4.8c0,0-6.396-0.529-10.278,1.19c0,0,3.421-4,11.462-2.17l4.487-3.66c0,0-8.431-1.16-12,0.119
		c0,0,4.11-3.521,13.211-1l4.892-2.92c0,0-7.183-1.55-11.461-1c0,0,4.51-2.439,12.899,0.2l3.489-1.569c0,0-5.26-1-6.801-1.2
		c-1.539-0.2-1.629-0.58-1.629-0.58c3.334-0.562,6.76-0.183,9.889,1.101C1045.46,800,1052.891,797.281,1052.772,796.811
		L1052.772,796.811z"/>
	<ellipse opacity="0.1" fill="#BBB8FA" enable-background="new    " cx="1023.653" cy="834.081" rx="29.92" ry="5.06"/>
	<ellipse opacity="0.1" fill="#BBB8FA" enable-background="new    " cx="813.75" cy="815.191" rx="102" ry="9.24"/>
	<path fill="#BBB8FA" d="M1072.46,699c0,0-23.83-1.439-21,15.271c-0.299,1.736,0.554,3.468,2.111,4.29c0,0,0.049-1.239,2.448-0.819
		c0.854,0.143,1.726,0.183,2.59,0.12c1.168-0.075,2.277-0.532,3.16-1.301c0,0,6.699-2.771,9.312-13.72c0,0,1.931-2.392,1.851-3
		l-4,1.71c0,0,1.368,2.91,0.289,5.318c0,0-0.13-5.21-0.897-5.09c-0.16,0-2.091,1-2.091,1s2.358,5,0.578,8.729
		c0,0,0.683-6.229-1.317-8.37l-2.83,1.66c0,0,2.76,5.22,0.889,9.479c0,0,0.48-6.54-1.487-9.08l-2.562,2c0,0,2.591,5.149,1,8.682
		c0,0-0.211-7.61-1.569-8.182c-0.972,0.823-1.841,1.761-2.591,2.79c0,0,1.779,3.739,0.682,5.71c0,0-0.682-5.068-1.23-5.091
		c0,0-2.24,3.351-2.469,5.65c0.106-2.136,0.772-4.203,1.93-6c-1.293,0.242-2.484,0.861-3.43,1.778c0,0,0.35-2.38,4-2.58
		c0,0,1.85-2.55,2.34-2.71c0,0-3.611-0.3-5.801,0.671c0,0,1.93-2.239,6.461-1.221l2.539-2.069c0,0-4.761-0.649-6.771,0.069
		c0,0,2.32-2,7.449-0.54l2.76-1.648c-2.122-0.466-4.297-0.65-6.469-0.552c0,0,2.549-1.38,7.271,0.109l2-0.88c0,0-3-0.59-3.84-0.681
		c-0.841-0.09-0.921-0.329-0.921-0.329c1.882-0.312,3.812-0.1,5.58,0.619C1068.421,700.801,1072.54,699.261,1072.46,699L1072.46,699
		z"/>
	<ellipse opacity="0.1" fill="#BBB8FA" enable-background="new    " cx="1056.063" cy="720.01" rx="16.868" ry="2.85"/>
	<path fill="#BBB8FA" d="M931.781,713.5c0,0-28.779-1.739-25.379,18.431c-0.363,2.098,0.666,4.188,2.549,5.181c0,0,0-1.5,3-1
		c1.033,0.175,2.084,0.227,3.131,0.149c1.412-0.095,2.754-0.648,3.82-1.58c0,0,8.09-3.34,11.237-16.562c0,0,2.33-2.88,2.229-3.63
		l-4.91,2.08c0,0,1.66,3.5,0.351,6.409c0,0-0.157-6.279-1.09-6.14c-0.188,0-2.521,1.22-2.521,1.22s2.85,6.101,0.701,10.54
		c0,0,0.816-7.521-1.593-10.102l-3.42,2c0,0,3.329,6.312,1.069,11.45c0,0,0.58-7.891-1.789-11l-3.1,2.42
		c0,0,3.139,6.21,1.219,10.479c0,0-0.24-9.189-1.889-9.88c0,0-2.711,2.39-3.121,3.369c0,0,2.141,4.511,0.811,6.891
		c0,0-0.818-6.12-1.489-6.149c0,0-2.688,4.062-3,6.83c0.136-2.567,0.938-5.058,2.33-7.221c-1.558,0.298-2.994,1.045-4.132,2.15
		c0,0,0.421-2.87,4.802-3.12c0,0,2.229-3.08,2.83-3.262c0,0-4.358-0.368-7,0.802c0,0,2.319-2.7,7.789-1.472l3.062-2.5
		c0,0-5.729-0.778-8.17,0.08c0,0,2.801-2.391,9-0.641l3.33-2c0,0-4.892-1.05-7.812-0.67c0,0,3.08-1.659,8.781,0.141l2.379-1.068
		c0,0-3.58-0.7-4.629-0.812c-1.051-0.108-1.101-0.398-1.101-0.398c2.269-0.386,4.599-0.13,6.729,0.738
		C926.79,715.659,931.87,713.811,931.781,713.5z"/>
	<ellipse opacity="0.1" fill="#BBB8FA" enable-background="new    " cx="911.96" cy="738.871" rx="20.371" ry="3.44"/>
	<ellipse opacity="0.1" fill="#BBB8FA" enable-background="new    " cx="54.651" cy="819.001" rx="29.92" ry="5.061"/>
	<path fill="#A8A8A8" d="M34.561,795.49c0,0,17.062-0.521,22.21-4.181c5.149-3.659,26.25-8,27.529-2.17
		c1.28,5.83,25.65,29.221,6.38,29.38c-19.27,0.16-44.77-3-49.909-6.13C35.63,809.261,34.561,795.49,34.561,795.49z"/>
	<path opacity="0.2" enable-background="new    " d="M91.021,816.471c-19.271,0.16-44.771-3-49.91-6.13
		c-3.898-2.381-5.46-10.932-6-14.87h-0.568c0,0,1.08,13.771,6.21,16.898c5.13,3.131,30.71,6.302,49.93,6.2
		c5.562-0.051,7.48-2,7.381-5C97.281,815.329,95.161,816.441,91.021,816.471L91.021,816.471z"/>
	
		<linearGradient id="SVGID_7_" gradientUnits="userSpaceOnUse" x1="1133.3284" y1="566.7366" x2="1133.3284" y2="737.4114" gradientTransform="matrix(0.951 0.3092 0.3092 -0.951 -318.0941 398.0671)">
		<stop  offset="0" style="stop-color:#808080;stop-opacity:0.25"/>
		<stop  offset="0.54" style="stop-color:#808080;stop-opacity:0.12"/>
		<stop  offset="1" style="stop-color:#808080;stop-opacity:0.1"/>
	</linearGradient>
	<path fill="url(#SVGID_7_)" d="M789.71,162.308L842.481,0l290.454,94.431l-52.771,162.309L789.71,162.308z"/>
	<path fill="#F6F7F9" d="M792.079,161.848L844.121,1.776l286.443,93.126l-52.043,160.072L792.079,161.848z"/>
	<circle opacity="0.2" fill="#BBB8FA" enable-background="new    " cx="874.943" cy="90.371" r="31.36"/>
	<path opacity="0.2" fill="#BBB8FA" enable-background="new    " d="M949.973,84.725l2.655-8.168l129.938,42.242l-2.656,8.169
		L949.973,84.725z M943.2,105.553l2.656-8.171l66.188,21.521l-2.656,8.17L943.2,105.553z M936.417,126.394l2.656-8.17
		l107.053,34.806l-2.655,8.171L936.417,126.394z M929.649,147.227l2.653-8.17l129.937,42.243l-2.656,8.171L929.649,147.227z"/>
	<path opacity="0.5" fill="#BBB8FA" enable-background="new    " d="M1011.368,215.49l5.135-15.796l35.959,11.688l-5.137,15.797
		L1011.368,215.49z"/>
	
		<linearGradient id="SVGID_8_" gradientUnits="userSpaceOnUse" x1="1074.8752" y1="137.5046" x2="1074.8752" y2="559.6833" gradientTransform="matrix(1 0 0 -1 -243.5854 956.6196)">
		<stop  offset="0" style="stop-color:#808080;stop-opacity:0.25"/>
		<stop  offset="0.54" style="stop-color:#808080;stop-opacity:0.12"/>
		<stop  offset="1" style="stop-color:#808080;stop-opacity:0.1"/>
	</linearGradient>
	<path fill="url(#SVGID_8_)" d="M934.971,482.961c-0.015-0.335-0.048-0.67-0.101-1c0-0.352-0.108-0.7-0.17-1
		c-0.129-0.682-0.271-1.352-0.431-2c-0.079-0.312-0.159-0.632-0.25-0.932c-0.946-3.547-2.651-6.848-5-9.67
		c-0.131-0.16-0.271-0.311-0.399-0.461c-0.129-0.148-0.539-0.579-0.81-0.85c-0.271-0.271-0.521-0.512-0.78-0.74
		c-0.261-0.229-0.5-0.439-0.74-0.64c-0.479-0.392-0.93-0.722-1.319-1c-0.39-0.28-0.567-0.382-0.81-0.521
		c-0.574-0.343-1.217-0.552-1.881-0.61l-4.15-0.408l-5.67-0.562l-20.269-7.87l-0.802,0.28c-0.595-1.638-1.096-3.308-1.5-5
		c0.613-0.267,1.161-0.665,1.602-1.171c0.479-0.372,0.854-0.855,1.1-1.409c0.511-1.181-0.47-3.688-0.27-5.131
		c0.318-2.311,1.52-4.539,2.5-6.63c2.08-4.489,3.6-9.359,3.35-14.29s-2.5-9.931-6.66-12.681c-2.148-1.431-4.681-2.188-6.921-3.489
		c-1.739-1-3.27-2.34-4.93-3.479c-8.307-5.537-18.911-6.297-27.92-2c-4.21,2.07-7.8,5.17-11.771,7.66
		c-3.971,2.489-8.648,4.399-13.301,3.659c-0.062,0.188-0.11,0.384-0.14,0.58l-0.392-0.05c-0.801,2.181,1.159,4.34,3,5.83
		c3.432,2.828,7.319,5.648,11.79,5.75c1.729,0,3.562-0.33,5.13,0.38c0.356,0.156,0.692,0.358,1,0.601
		c-2.027,8.131,0.677,16.712,7,22.21l-10.351-3.721c0,0-0.43,0.221-1.101,0.641l-14.359-9.561c0,0-28.79-10.439-36.79,5.819
		c-8,16.26,34.67,7.869,34.67,7.869l9.131,5c-0.308,1.889,0.047,3.823,1,5.48l24.894,15.383c-5,1.55-13.29,4-14.762,4
		c-2.13,0-8,2.1-11.729,10.489c-3.729,8.391-17.069,49.318-28.8,56.141c-11.729,6.819-42.66,52.47-42.66,52.47l0.141,0.359
		c-0.551,0.15-1.091,0.301-1.62,0.48c-6.495,2.254-12.115,6.493-16.068,12.118c-1.658,2.306-1.136,5.518,1.17,7.176
		c0.716,0.515,1.553,0.837,2.43,0.937c12.21,1.55,18.881-4.08,22.091-8.33c0.21-0.271,0.399-0.54,0.58-0.811
		c0.949,0.408,2.018,0.458,3,0.141l14.93-12.07c0,0-11.68,11.5-4.828,22l-0.521,0.729c-11.546,16.483-20.016,34.921-25,54.42
		c0,0-6.399,4.721-6.93,23.61c-0.531,18.889-6.939,49.318-6.939,49.318s-4.261,36.21-1.601,47.222c0,0,0.311,0.438,0.88,1.108
		c-0.2,0.239-0.42,0.5-0.66,0.76c-2.329,2.521-6.529,6-11.42,5c-7.46-1.578-7.46,11.54,3.2,12.592c6.87,0.67,20.37,3.738,29.12,5.84
		c3.281,0.828,6.614-1.162,7.441-4.445c0.173-0.684,0.227-1.393,0.156-2.095c-0.52-4.7-1.47-10.39-3.199-14.439
		c-0.108-0.25-0.221-0.5-0.33-0.729c0.312-0.3,0.63-0.602,0.939-0.92c0,0,0-23.09,3.74-29.38c0,0,10.13-47.75,9.59-59.82
		c-0.41-9.439,26.29-46.21,37.91-61.739l-0.102-0.591c3-4,4.859-6.399,4.859-6.399l8.99,57.199c0,0,4.27,12.591,9.6,19.41
		c0,0,22.931,43.551,25.601,57.19c2,10.35,6.182,16.46,8.08,18.818l-0.688,0.659c-2.431,2.23-6,4.46-10.062,3.61
		c-7.46-1.58-7.46,11.54,3.199,12.59c6.87,0.68,20.37,3.75,29.111,5.85c3.287,0.828,6.625-1.166,7.453-4.454
		c0.172-0.685,0.225-1.394,0.155-2.096c-0.608-5.46-1.801-12.25-4.101-16.26c-0.186-0.344-0.391-0.678-0.61-1
		c0.813-0.325,1.539-0.835,2.121-1.49c0,0-13.871-33.06-13.871-42c0,0-5.858-34.1-25.59-46.688c0,0,1.859-42.659,7.479-66.399
		c0.14-0.58,0.279-1.16,0.42-1.72c5.236-0.819,10.431-1.9,15.56-3.24l0.53-15.739l2.67,12.59l29.861-18.358
		c0,0-0.263-3.312-0.763-8.38c-0.261-2.54-0.567-5.521-0.938-8.75c-0.299-2.58-0.639-5.32-1-8.12c-0.101-0.7-0.188-1.41-0.289-2.11
		c-0.391-2.829-0.819-5.688-1.281-8.489c-0.18-1.054-0.357-2.094-0.538-3.119c-0.25-1.369-0.5-2.711-0.761-4
		c-0.131-0.649-0.271-1.301-0.399-1.932c-0.131-0.63-0.278-1.26-0.42-1.869c-0.142-0.608-0.278-1.2-0.42-1.79
		c-0.08-0.29-0.149-0.58-0.222-0.858c-0.149-0.57-0.299-1.13-0.449-1.67c-0.627-2.244-0.986-4.554-1.079-6.881v-2.771
		c0-0.92,0.142-1.84,0.271-2.76c0.061-0.45,0.141-0.91,0.229-1.359c0.338-1.829,0.845-3.623,1.511-5.359
		c0.33-0.869,0.711-1.729,1.118-2.579c1-2,2-4.132,3.062-6.4c0.541-1.13,1.08-2.29,1.621-3.47c0.539-1.182,1.09-2.38,1.639-3.602
		c5.191-11.568,10.312-24.46,11.681-32.931c0.142-0.89,0.25-1.729,0.302-2.521C934.999,484.404,935.01,483.681,934.971,482.961
		L934.971,482.961z"/>
	<path fill="#AE6E79" d="M845.903,451.572l-17.592-11.891c0,0-27.931-10.352-35.688,5.688s33.62,7.762,33.62,7.762l17.59,9.818
		L845.903,451.572z"/>
	<path fill="#F9FAFB" d="M655.065,550.224l90.978-141.524L966.356,550.33l-90.979,141.522L655.065,550.224z"/>
	<path fill="#B7B6CC" d="M687.708,540.352l25.526-40.176l9.453,6.006l-25.526,40.177L687.708,540.352z M717.924,548.49
		l56.062-88.235l8.668,5.508l-56.062,88.235L717.924,548.49z M736.445,560.244l56.062-88.235l8.669,5.507l-56.062,88.237
		L736.445,560.244z M754.954,572.019l56.062-88.236l8.668,5.508l-56.062,88.236L754.954,572.019z M774.114,589.075l56.452-87.812
		l8.627,5.545l-56.452,87.812L774.114,589.075z"/>
	<path fill="#FFFFFF" d="M791.986,595.541l56.061-88.236l8.669,5.508l-56.062,88.237L791.986,595.541z M810.5,607.297l56.062-88.237
		l8.668,5.509l-56.062,88.235L810.5,607.297z"/>
	<path fill="#B7B6CC" d="M888.243,557.173l14.517-22.85l22.851,14.519l-14.52,22.849L888.243,557.173z"/>
	<path fill="#BEBED0" d="M897.932,814.211c-8.489-2.07-21.581-5.092-28.239-5.762c-10.352-1-10.352-14-3.102-12.42
		c3.92,0.852,7.399-1.358,9.75-3.551c0.714-0.686,1.382-1.416,2-2.189c0.854-1.039,2.034-1.762,3.352-2.05
		c3.88-0.84,12-2.12,16.909,0.55c1.147,0.715,2.076,1.73,2.681,2.939c2.229,4,3.391,10.65,4,16c0.354,3.296-2.029,6.254-5.324,6.607
		C899.28,814.41,898.596,814.367,897.932,814.211z M767.061,819.381c-8.479-2.069-21.568-5.092-28.229-5.762
		c-10.35-1-10.35-14-3.109-12.408c4.739,1,8.819-2.41,11.069-4.892c0.28-0.301,0.53-0.591,0.74-0.858
		c0.859-1.021,2.035-1.725,3.34-2c3.88-0.852,12-2.132,16.92,0.55c1.46,0.778,2.62,2.5,3.551,4.729c1.67,4,2.59,9.602,3.102,14.229
		c0.317,3.298-2.098,6.229-5.396,6.55C768.382,819.584,767.709,819.536,767.061,819.381L767.061,819.381z"/>
	<path opacity="0.1" enable-background="new    " d="M771.341,798.699c-12.351,12.729-22.938-0.238-24.551-2.38
		c0.28-0.301,0.53-0.591,0.74-0.858c0.859-1.021,2.034-1.725,3.34-2c3.88-0.852,12-2.132,16.92,0.55
		C769.25,794.75,770.46,796.471,771.341,798.699z M901.331,791.732c-5.35,3.649-23.36,2.75-23.36,2.75
		c-0.594-0.625-1.139-1.294-1.63-2c0.714-0.687,1.382-1.418,2-2.19c0.854-1.038,2.034-1.762,3.352-2.05
		c3.88-0.84,12-2.12,16.909,0.55C899.767,789.496,900.712,790.515,901.331,791.732L901.331,791.732z"/>
	<path fill="#5C5C8E" d="M902.281,789.311c-3.629,4.66-24.311,3.62-24.311,3.62s-6.21-6.21-8.801-19.649
		c-2.59-13.438-24.829-56.38-24.829-56.38c-5.171-6.729-9.311-19.141-9.311-19.141l-8.79-56.38c0,0-42.41,55.858-41.892,67.76
		c0.521,11.898-9.318,59-9.318,59c-3.62,6.21-3.62,29-3.62,29c-13.439,14-24.819-2.59-24.819-2.59
		C744,783.691,748.141,748,748.141,748s6.21-30,6.722-48.619c0.51-18.62,6.729-23.271,6.729-23.271
		c4.83-19.191,13.058-37.365,24.289-53.66c3.12-4.471,5.19-6.858,5.19-6.858l83.79,9.83c-1.607,3.555-2.814,7.276-3.602,11.1
		c-5.45,23.4-7.261,65.45-7.261,65.45c19.141,12.41,24.83,46,24.83,46C888.83,756.721,902.281,789.311,902.281,789.311
		L902.281,789.311z"/>
	<g opacity="0.05">
		<path d="M821.63,648.271l-1.079-6.89c0,0-42.41,55.858-41.891,67.76c0.521,11.898-9.312,59-9.312,59c-3.63,6.21-3.63,29-3.63,29
			c-2.165,2.443-4.967,4.24-8.091,5.188c4.07,1.069,9,0.28,14.301-5.188c0,0,0-22.76,3.62-29c0,0,9.829-47.069,9.312-59
			C784.46,699.829,810.351,663.572,821.63,648.271L821.63,648.271z"/>
		<path d="M889.341,747.931c0,0-5.688-33.62-24.819-46c0,0,1.811-42.05,7.25-65.449c0.788-3.822,2-7.546,3.608-11.101l-83.79-9.812
			c0,0-0.199,0.22-0.56,0.659l78.14,9.171c-1.604,3.557-2.812,7.277-3.6,11.101c-5.45,23.399-7.26,65.449-7.26,65.449
			c19.14,12.41,24.828,46,24.828,46c0,8.79,13.45,41.381,13.45,41.381c-2.141,2.739-10.2,3.511-16.47,3.681
			c5,0.13,19.669,0.181,22.669-3.681C902.79,789.311,889.341,756.721,889.341,747.931L889.341,747.931z"/>
	</g>
	<path fill="#AE6E79" d="M775.551,608.281c-0.626,1.526-1.45,2.967-2.45,4.279c-3.108,4.19-9.579,9.729-21.42,8.21
		c-2.788-0.356-4.76-2.906-4.4-5.694c0.105-0.831,0.416-1.622,0.9-2.306c3.803-5.544,9.259-9.743,15.591-12
		c2.143-0.706,4.359-1.156,6.608-1.34L775.551,608.281z"/>
	<path fill="#42383C" d="M884.79,463.619l-41.479-15.17c0,0-11.898,6.21-7.238,15l40.39,25.352L884.79,463.619z"/>
	<path opacity="0.1" enable-background="new    " d="M884.951,463.789l-41.49-15.17c0,0-11.898,6.2-7.239,15l40.341,25.342
		L884.951,463.789z"/>
	<path fill="#AE6E79" d="M886.241,438.619c0,0-0.521,24.312,10.35,32.592c10.869,8.278-31.56,12.93-31.56,12.93s6.729-24.83,0-37.76
		C858.301,433.449,886.241,438.619,886.241,438.619L886.241,438.619z"/>
	<path opacity="0.1" enable-background="new    " d="M874.863,625.351c-1.607,3.557-2.814,7.278-3.602,11.101
		c-50,7.642-84.851-13.17-84.851-13.17c-0.189-0.3-0.37-0.601-0.53-0.898c3.12-4.472,5.19-6.859,5.19-6.859L874.863,625.351z
		 M775.551,608.281c-0.626,1.526-1.45,2.967-2.45,4.279c-4.79-0.8-8.618-10-9.329-11.739c2.143-0.707,4.36-1.156,6.608-1.34
		L775.551,608.281z"/>
	<path fill="#42383C" d="M890.38,460.351l-18.619,6.721L864,477.422c0,0-16,5.17-18.1,5.17c-2.102,0-7.762,2.068-11.381,10.34
		c-3.619,8.271-16.551,48.641-27.931,55.351c-11.381,6.71-41.381,51.722-41.381,51.722s5.171,14,11.381,11.898l14.479-11.898
		c0,0-11.38,11.38-4.66,21.729c0,0,42.42,25.341,100.87,9.82l0.51-15.511l2.591,12.409l29-18.101c0,0-2.591-33.391-7.261-50.38
		c-1.935-7.146-1.225-14.747,2-21.41c7.511-15.649,19.101-41.79,17.69-51.319c-1.672-11.229-8-16.108-10.44-17.58
		c-0.553-0.337-1.176-0.545-1.819-0.608l-9.47-0.939L890.38,460.351z"/>
	<path opacity="0.05" enable-background="new    " d="M858.573,512.329c0,0-10.352,48.102-21.729,55.86
		c-11.38,7.759-41.891,32.59-42.931,36.729"/>
	<path fill="#42383C" d="M853.911,510.781c0,0-10.34,48.102-21.72,55.859s-41.9,32.591-42.932,36.721"/>
	<path opacity="0.1" enable-background="new    " d="M863.741,477.159c0,0,35.689-11.898,46-8.8"/>
	<g opacity="0.05">
		<path d="M914.073,538.572c7.51-15.648,19.1-41.79,17.688-51.318c-1.67-11.229-8-16.11-10.438-17.58
			c-0.556-0.338-1.176-0.546-1.82-0.61l-4-0.398c0.425,0.098,0.828,0.263,1.199,0.489c2.42,1.479,8.771,6.352,10.43,17.59
			c1.41,9.521-10.18,35.671-17.68,51.319c-3.224,6.659-3.935,14.26-2,21.4c4.68,17,7.271,50.38,7.271,50.38l-24.938,15.59l0.63,3
			l29-18.1c0,0-2.59-33.392-7.26-50.382C910.198,552.824,910.88,545.236,914.073,538.572L914.073,538.572z M905.38,467.591
			l4.48,0.448l-19.48-7.688l-1.75,0.63L905.38,467.591z"/>
	</g>
	<path opacity="0.05" enable-background="new    " d="M853.911,560.949c0,0,16-8.79,21.21-6.721c5.21,2.07,24.311-0.52,24.311-0.52
		 M884.46,445.091c-0.59-5.189,1.812-4.4,1.812-4.4s-27.931-5.17-21.211,7.761c1.694,3.562,2.66,7.43,2.842,11.37h0.27
		C875.931,459.829,880.46,451.152,884.46,445.091z"/>
	<circle fill="#AE6E79" cx="868.141" cy="435.521" r="22.24"/>
	<path opacity="0.1" enable-background="new    " d="M892.46,442.101c2-4.43,3.49-9.229,3.25-14.09
		c-0.239-4.859-2.42-9.79-6.459-12.51c-2.08-1.4-4.54-2.15-6.71-3.432c-1.689-1-3.18-2.311-4.79-3.431
		c-8.019-5.465-18.346-6.229-27.08-2c-4.08,2-7.56,5.109-11.409,7.561c-3.851,2.449-8.391,4.33-12.898,3.609
		c-0.78,2.15,1.13,4.271,2.88,5.75c3.33,2.79,7.101,5.57,11.438,5.66c1.682,0,3.45-0.32,5,0.38c1.026,0.567,1.898,1.377,2.54,2.36
		c2.089,2.774,3.858,5.777,5.279,8.948c0.437,1.362,1.255,2.571,2.36,3.479c2,1.28,4.59,0.21,7,0.12c3.68-0.15,7,2.17,9.72,4.648
		c2.721,2.479,5.32,5.319,8.761,6.63c2.569,1,7.71,0.939,9-2.13c0.489-1.159-0.46-3.641-0.261-5.061
		C890.563,446.331,891.365,444.144,892.46,442.101L892.46,442.101z"/>
	<path fill="#42383C" d="M892.92,441.572c2-4.431,3.5-9.229,3.25-14.08c-0.25-4.851-2.409-9.8-6.45-12.51
		c-2.091-1.41-4.551-2.16-6.71-3.44c-1.688-1-3.181-2.3-4.79-3.43c-8.019-5.466-18.347-6.229-27.08-2
		c-4.08,2-7.561,5.102-11.409,7.55c-3.852,2.45-8.392,4.342-12.899,3.609c-0.779,2.16,1.12,4.28,2.88,5.75
		c3.33,2.79,7.101,5.57,11.44,5.67c1.68,0,3.448-0.329,5,0.381c1.03,0.562,1.903,1.373,2.538,2.359
		c2.09,2.771,3.855,5.771,5.271,8.938c0.438,1.364,1.263,2.572,2.37,3.479c2,1.28,4.59,0.21,7,0.12c3.681-0.142,7,2.18,9.71,4.66
		c2.71,2.479,5.32,5.31,8.771,6.619c2.569,1,7.71,0.938,9-2.131c0.5-1.158-0.448-3.641-0.25-5.061
		C891.037,445.797,891.83,443.613,892.92,441.572z"/>
	<path opacity="0.1" enable-background="new    " d="M731.92,770c-1.864,1.53-4.207,2.358-6.619,2.341l-446.771-1.899
		c-2.423-2.917-3.533-6.706-3.068-10.471l44.141-361.17l27.68-0.3c4.762-0.05,8.953,3.125,10.2,7.72l5.17,19.08
		c1.261,4.646,5.527,7.832,10.342,7.72l110.47-2.649c5.679-0.136,10.212-4.778,10.21-10.46v-12.641c0-5.729,4.61-10.395,10.34-10.46
		l153.08-1.649c5.056-0.047,9.419,3.525,10.37,8.49l67.7,354l0.438,2.279C736.331,763.71,734.916,767.582,731.92,770L731.92,770z"/>
	<path fill="#E6E8EE" d="M652.09,400.171l-153.08,1.648c-5.729,0.062-10.345,4.72-10.35,10.449v12.65
		c-0.004,5.673-4.529,10.31-10.2,10.448L368,438.019c-4.816,0.121-9.093-3.067-10.352-7.72l-5.188-19.067
		c-1.245-4.602-5.444-7.776-10.21-7.721l-147.55,1.59c-5.771,0.058-10.404,4.78-10.349,10.553c0.006,0.554,0.056,1.104,0.146,1.647
		l59.358,349.358c0.853,5.016,5.186,8.688,10.271,8.71l466.141,2c5.776,0.021,10.478-4.646,10.496-10.424
		c0.002-0.67-0.062-1.338-0.187-1.996l-68.12-356.29C661.512,403.696,657.147,400.118,652.09,400.171L652.09,400.171z"/>
	<path fill="#F6BAC2" d="M867.681,160.931l-0.801,8.899l0.58,15.739l-1.688,26.551c0,0-0.239,11.63-6.812,17.08l-16.77,25.75
		l-0.103,0.05l-6.31,3.08l-9.63,1l-5-12.109l3.31-13.301l1.841-2.479l0.511-0.561c2-2.199,9.721-10.189,15.851-12.68
		c0,0,4.09-3,3.37-7.7c-0.722-4.7,5.521-29.681,5.521-29.681s4-16.521,3.13-18.131c-0.869-1.608-0.159-38.181,13.642-38.738
		C882.121,123.141,867.681,160.931,867.681,160.931L867.681,160.931z"/>
	<ellipse opacity="0.1" fill="#BBB8FA" enable-background="new    " cx="151.43" cy="700.882" rx="16.21" ry="2.23"/>
	<ellipse opacity="0.1" fill="#BBB8FA" enable-background="new    " cx="89.34" cy="707.172" rx="16.21" ry="2.23"/>
	<ellipse opacity="0.1" fill="#BBB8FA" enable-background="new    " cx="16.21" cy="698.651" rx="16.21" ry="2.23"/>
	<ellipse opacity="0.1" fill="#BBB8FA" enable-background="new    " cx="114.191" cy="725.101" rx="11.521" ry="1.58"/>
	<ellipse opacity="0.1" fill="#BBB8FA" enable-background="new    " cx="49.75" cy="723.521" rx="11.521" ry="1.58"/>
	<path fill="#BBB8FA" d="M88.991,706.681c0,0,22.729-74.521-3.562-104.37c-19.67-22.329-42-19.659-52-16.899
		c-5.232,1.397-9.59,5.021-11.92,9.91c-3.5,7.54-2.87,19.779,21.811,34.069c41.312,23.92,43.882,56.729,43.882,56.729
		L88.991,706.681z"/>
	<path fill="none" stroke="#565987" stroke-miterlimit="10" d="M37,595.982c0,0,67,21,52,110.699 M76.14,603.49
		c0,0-9.229,6.221-6.289,15.569 M43.72,609.031c0,0,5.641-5.739,12.511-2.568 M70.21,637.891c0,0,9.91-5,12.47,1.271 M94.72,648.362
		c0,0-7.439-0.591-7.569,3"/>
	<path fill="#BBB8FA" d="M89.911,707.271c0,0-26.632-54.159-33.94-53c-3.47,0.57-5.069,4-5.8,7.42
		c-0.896,4.438-0.392,9.045,1.45,13.181C55.401,683.572,65.55,700.021,89.911,707.271z"/>
	<path fill="none" stroke="#565987" stroke-miterlimit="10" d="M56.17,664.572c0,0,27.938,40.521,33.34,42.3 M53.601,670.902h6.521
		 M61.411,685.721l10.229,0.438 M67.64,673.862l-1.109,5.33 M78.51,690.072l-0.199,4.84"/>
	<path fill="#BBB8FA" d="M89.12,707.271c0,0,26.62-54.159,33.93-53c3.479,0.57,5.08,4,5.801,7.42
		c0.896,4.438,0.392,9.045-1.45,13.181C123.62,683.572,113.46,700.021,89.12,707.271z"/>
	<path fill="none" stroke="#565987" stroke-miterlimit="10" d="M122.861,664.572c0,0-28,40.521-33.351,42.3 M125.43,670.902h-6.52
		 M117.62,685.721l-10.23,0.438 M111.39,673.862l1.11,5.33 M100.521,690.072l0.199,4.84"/>
	<path fill="#BBB8FA" d="M43.401,719.921c-0.726-0.594-1.251-1.393-1.511-2.29c-0.255-0.932,0.191-1.911,1.062-2.33
		c1-0.37,2,0.3,2.8,1s1.71,1.438,2.71,1.271c-1.08-0.979-1.564-2.451-1.28-3.88c0.041-0.291,0.162-0.563,0.352-0.79
		c0.54-0.58,1.521-0.33,2.171,0.13c2,1.439,2.63,4.229,2.64,6.75c0.101-0.924,0.101-1.854,0-2.778
		c-0.054-0.946,0.366-1.856,1.12-2.432c0.486-0.267,1.035-0.396,1.59-0.38c0.931-0.134,1.871,0.137,2.591,0.739
		c0.699,0.953,0.658,2.263-0.101,3.17c-0.768,0.859-1.673,1.583-2.682,2.141c-0.766,0.461-1.417,1.086-1.908,1.83
		c-0.062,0.102-0.108,0.208-0.142,0.319h-5.818C45.688,721.735,44.481,720.904,43.401,719.921L43.401,719.921z M144.851,698.101
		c-0.727-0.586-1.254-1.383-1.511-2.279c-0.257-0.929,0.186-1.907,1.05-2.33c1-0.37,2,0.3,2.801,1
		c0.802,0.699,1.699,1.46,2.729,1.312c-1.08-0.976-1.568-2.443-1.29-3.87c0.044-0.292,0.169-0.564,0.36-0.79
		c0.538-0.58,1.52-0.33,2.17,0.12c2.05,1.449,2.63,4.239,2.64,6.76c0.101-0.928,0.101-1.861,0-2.79c-0.091-0.935,0.283-1.854,1-2.46
		c0.489-0.259,1.037-0.387,1.59-0.369c0.929-0.132,1.867,0.135,2.591,0.729c0.703,0.958,0.656,2.271-0.108,3.18
		c-0.762,0.861-1.664,1.585-2.67,2.141c-0.767,0.456-1.418,1.078-1.91,1.819c-0.06,0.104-0.104,0.216-0.142,0.33h-5.688
		C147.149,699.937,145.934,699.096,144.851,698.101z M111.04,719.921c-0.726-0.596-1.254-1.394-1.521-2.29
		c-0.256-0.932,0.19-1.911,1.062-2.33c1-0.37,2,0.3,2.8,1s1.688,1.46,2.729,1.318c-1.078-0.979-1.565-2.449-1.29-3.88
		c0.045-0.291,0.17-0.563,0.359-0.79c0.54-0.58,1.521-0.33,2.171,0.13c2.05,1.439,2.619,4.229,2.642,6.75
		c0.1-0.924,0.1-1.854,0-2.778c-0.079-0.942,0.312-1.864,1.05-2.46c0.485-0.269,1.035-0.397,1.59-0.381
		c0.93-0.132,1.87,0.138,2.59,0.739c0.701,0.955,0.655,2.268-0.109,3.17c-0.762,0.858-1.665,1.583-2.67,2.142
		c-0.766,0.46-1.417,1.085-1.91,1.83c-0.061,0.1-0.106,0.207-0.14,0.318h-5.801C113.301,721.741,112.109,720.906,111.04,719.921z
		 M15.151,675.822c0,0-2.17,2.84,1,7.13s5.79,7.91,4.729,10.58c0,0-4.79-8-8.689-8.068C8.29,685.391,10.861,680.572,15.151,675.822z
		"/>
	<path opacity="0.1" enable-background="new    " d="M15.151,675.822c-0.188,0.274-0.335,0.573-0.438,0.892
		c-3.8,4.47-5.83,8.64-2.17,8.75c3.398,0.1,7.488,6.18,8.46,7.72c-0.031,0.118-0.066,0.235-0.109,0.351c0,0-4.79-8-8.688-8.069
		C8.3,685.391,10.861,680.572,15.151,675.822L15.151,675.822z"/>
	<path fill="#FFD037" d="M11.12,679.442c0,1,0.108,1.812,0.25,1.812c0.14,0,0.25-0.812,0.25-1.812s-0.142-0.53-0.28-0.53
		C11.201,678.91,11.12,678.442,11.12,679.442z"/>
	<path fill="#FFD037" d="M9.731,680.641c0.88,0.479,1.642,0.761,1.71,0.641c0.069-0.12-0.59-0.601-1.471-1.08
		c-0.88-0.479-0.529-0.13-0.6,0C9.3,680.329,8.851,680.159,9.731,680.641z"/>
	<path fill="#BBB8FA" d="M26.62,675.822c0,0,2.18,2.84-1,7.13c-3.182,4.29-5.79,7.91-4.73,10.58c0,0,4.79-8,8.69-8.068
		C33.481,685.391,30.911,680.572,26.62,675.822z"/>
	<path opacity="0.1" enable-background="new    " d="M26.62,675.822c0.188,0.274,0.34,0.574,0.448,0.892
		c3.802,4.47,5.83,8.64,2.172,8.75c-3.4,0.1-7.49,6.18-8.472,7.72c0.028,0.12,0.068,0.237,0.119,0.351c0,0,4.79-8,8.69-8.069
		C33.481,685.391,30.911,680.572,26.62,675.822L26.62,675.822z"/>
	<path fill="#FFD037" d="M30.661,679.442c0,1-0.11,1.812-0.25,1.812c-0.142,0-0.25-0.812-0.25-1.812s0.14-0.53,0.278-0.53
		C30.58,678.909,30.661,678.442,30.661,679.442z"/>
	<path fill="#FFD037" d="M32.05,680.641c-0.88,0.479-1.649,0.761-1.71,0.641c-0.062-0.12,0.59-0.601,1.471-1.08
		c0.88-0.479,0.529-0.13,0.59,0C32.46,680.329,32.92,680.159,32.05,680.641z"/>
	<path fill="#A8A8A8" d="M29.97,693.159c0,0-6.069-0.188-7.899-1.488c-1.828-1.302-9.34-2.86-9.8-0.771
		c-0.46,2.09-9.12,10.4-2.271,10.45c6.851,0.051,15.93-1.069,17.76-2.18C29.59,698.061,29.97,693.159,29.97,693.159z"/>
	<path opacity="0.2" enable-background="new    " d="M9.88,700.619c6.86,0.062,15.931-1.061,17.76-2.18
		c1.391-0.841,1.94-3.881,2.131-5.29h0.199c0,0-0.38,4.899-2.21,6c-1.83,1.102-10.899,2.24-17.76,2.18c-2,0-2.66-0.72-2.62-1.76
		C7.651,700.221,8.46,700.572,9.88,700.619z"/>
	<circle opacity="0.1" fill="#BBB8FA" enable-background="new    " cx="33.941" cy="126.71" r="21.63"/>
	<circle opacity="0.1" fill="#BBB8FA" enable-background="new    " cx="1074.031" cy="299.561" r="21.63"/>
	<circle opacity="0.1" fill="#BBB8FA" enable-background="new    " cx="685.21" cy="58.022" r="21.63"/>
	<circle opacity="0.1" fill="#BBB8FA" enable-background="new    " cx="77.201" cy="246.04" r="36.25"/>
	<path fill="#F6F7F9" d="M430.201,588.641l-1.28-1.279c-0.552-0.518-0.581-1.385-0.062-1.938c0.021-0.021,0.042-0.043,0.062-0.062
		l11.23-11.24c0.517-0.552,1.384-0.58,1.937-0.062c0.021,0.021,0.043,0.042,0.063,0.062l11.229,11.229
		c0.554,0.533,0.568,1.413,0.035,1.965c-0.012,0.013-0.022,0.023-0.035,0.035l-1.279,1.28c-0.532,0.552-1.412,0.566-1.966,0.033
		c-0.012-0.012-0.021-0.021-0.034-0.033l-6.641-7v16.608c0.006,0.764-0.605,1.386-1.37,1.392c-0.003,0-0.007,0-0.01,0h-1.85
		c-0.771,0-1.393-0.623-1.393-1.392l0,0v-16.59l-6.64,7c-0.536,0.551-1.416,0.562-1.966,0.024
		C430.223,588.663,430.211,588.654,430.201,588.641L430.201,588.641z"/>
	<path fill="#F6F7F9" d="M441.13,563.909c12.587,0,22.79,10.204,22.79,22.79c0,12.587-10.203,22.79-22.79,22.79
		s-22.79-10.203-22.79-22.79l0,0C418.352,574.117,428.548,563.922,441.13,563.909 M441.13,560.909
		c-14.243,0-25.79,11.547-25.79,25.79c0,14.244,11.547,25.79,25.79,25.79s25.79-11.546,25.79-25.79l0,0
		C466.92,572.456,455.373,560.909,441.13,560.909z"/>
</g>
</svg>
