<?xml version="1.0" encoding="utf-8"?>
<!-- Generator: Adobe Illustrator 14.0.0, SVG Export Plug-In . SVG Version: 6.00 Build 43363)  -->
<!DOCTYPE svg PUBLIC "-//W3C//DTD SVG 1.1//EN" "http://www.w3.org/Graphics/SVG/1.1/DTD/svg11.dtd">
<svg version="1.1" id="Layer_1" xmlns="http://www.w3.org/2000/svg" xmlns:xlink="http://www.w3.org/1999/xlink" x="0px" y="0px"
	 width="1132.93px" height="839.141px" viewBox="0 0 1132.93 839.141" enable-background="new 0 0 1132.93 839.141"
	 xml:space="preserve">
<g>
	<path opacity="0.1" fill="#BBB8FA" enable-background="new    " d="M481.34,56.33c-37.17-15.109-76.45-27.76-116.55-26.148
		c-59,2.318-115.511,37.778-143.271,89.85c-23.521,44.109-26.421,95.819-36.551,144.77c-12.479,60.32-36.38,117.642-61.92,173.701
		c-13.72,30.069-28.189,60.869-30.439,93.88c-3.13,45.819,18.779,91.489,53.13,122c34.351,30.51,80,46.561,125.771,50.069
		c24.37,1.87,49.83,0.141,71.48-11.199c22.898-12,39.59-33.69,62.58-45.511c21.31-11,46.229-12.5,70.148-11.069
		c31.331,1.874,62.204,8.435,91.591,19.46c33.431,12.561,64.521,30.739,97.881,43.471c33.358,12.729,70.63,19.84,104.729,9.21
		c32-10,57.341-34.2,80.17-58.75c37.473-40.297,71.649-83.534,102.2-129.301c20.591-30.84,39.75-63.38,48.861-99.33
		c17.398-68.72-6.551-146.261-59.691-193.199c-44-38.88-103.089-55.761-160.919-66c-52.729-9.341-113.7-9.92-162.24-34.261
		C572,104.721,529.88,76.072,481.34,56.33L481.34,56.33z"/>
	
		<linearGradient id="SVGID_1_" gradientUnits="userSpaceOnUse" x1="959.9075" y1="371.5583" x2="959.9075" y2="-94.8167" gradientTransform="matrix(1 0 0 1 -173.5703 196.709)">
		<stop  offset="0" style="stop-color:#808080;stop-opacity:0.25"/>
		<stop  offset="0.54" style="stop-color:#808080;stop-opacity:0.12"/>
		<stop  offset="1" style="stop-color:#808080;stop-opacity:0.1"/>
	</linearGradient>
	<path fill="url(#SVGID_1_)" d="M871.192,120.271c-14.28,0.569-15,37.439-14.11,39.051c0.891,1.61-3.239,18.25-3.239,18.25
		s-6.479,25.229-5.729,29.92c0.75,4.69-3.49,7.76-3.49,7.76c-6.34,2.5-14.29,10.561-16.399,12.771l-0.529,0.568
		c0,0-6.141,4-7.221,5.58s-4,0.32-4,0.32s-8.3-0.8-9.38-0.48c-0.74,0.222-1.899-1.14-2.561-2c-0.311-0.409-0.511-0.72-0.511-0.72
		l-0.25-7.439c-0.312-0.238-0.646-0.445-1-0.619c0.171-0.841,0.381-1.71,0.641-2.602c3.73-1.819,6.879-4.646,9.09-8.159
		c0.24-0.381,0.46-0.771,0.671-1.16c0.553,0.384,1.219,0.57,1.891,0.529c0.295,0.009,0.59-0.019,0.88-0.08
		c0.932-0.251,1.803-0.689,2.56-1.289c2.064-1.394,3.711-3.321,4.761-5.58c0.185-0.432,0.335-0.876,0.45-1.33
		c-0.149,0.25-0.311,0.5-0.471,0.739c0.793-2.135,0.6-4.512-0.529-6.489c-0.78-1.261-2-2.279-2.5-3.681
		c-0.841-2.409,0.75-4.898,1.729-7.26c0.947-2.146,1.257-4.521,0.89-6.84c-0.396-2.348-1.731-4.432-3.699-5.771
		c-3.931-2.55-9.261-1.148-13.811-2.38c-1.625-0.527-3.213-1.165-4.75-1.909c-2.337-1.009-4.772-1.767-7.271-2.261
		c-2.471-0.489-5.46-0.54-7,1.391c-0.431,0.612-0.812,1.259-1.141,1.931c-1.002,1.623-2.61,2.778-4.47,3.21
		c-0.907,0.172-1.827,0.27-2.75,0.29c0.082-0.376,0.082-0.766,0-1.141c-1.16-3.801,2.159-6.62,6.479-8.319
		c4.319-1.7,20.75-14.641,22.659-17.71c1.91-3.07,15.28-12.7,15.28-12.7s20-5.66,26.561-26.28c6.561-20.619-31.381,14.4-35.2,15.45
		s-9.29,5-9.29,5l-24.33,14.07c-4.638,2.616-9.029,5.648-13.119,9.06c-5.891,5.09-9.62,13.74-9.62,13.74s-2.33,3.8-5.729,9.3
		c-1.875,3.135-4.406,5.826-7.42,7.891l0.109-0.199c-0.271,0.329-8.641,10.898-9.38,15.52c-0.74,4.62-4.15,23.45-4.15,23.45
		s-3,14.79-5.06,17.7c0,0-1.67,8.489-2.66,9.63c-0.99,1.14-5,13.17-4.32,14.39c0,0-3.819,8.33-3.149,11.48l-6.891,16.5
		c0,0-3.739,8.159-3.489,12.93c0.119,2.311,0.221,5,0.289,7.2v2c-0.369,0.62-1.318,2.2-2.31,4.109c-1.42,2.78-2.931,6.25-2.84,8.391
		c0.159,3.761,0.17,12.939-1.562,16.311l-0.51-0.2c-0.605,1.006-0.95,2.146-1,3.32l0.12,0.061c0,0.289-0.09,0.59-0.12,0.909
		c-0.42,3.83,0.19,9.16-0.771,10.33c-1.33,1.62-0.67,37.521-0.67,37.521s-2.159,22.471,2.159,36.71l-0.329,11.149
		c0,0-0.171,10.511,0.329,12c0.5,1.49,0.671,12.131,0.671,12.131l2.489,17.789c0,0-3.33,27.49-0.5,34.28
		c1.641,3.746,2.653,7.735,3,11.811c1.44,0.792,2.981,1.388,4.58,1.771v1l-0.649,16.72v0.921c0,0-0.08,0.438-0.141,1.17v0.409
		c-0.005,0.04-0.005,0.08,0,0.12v0.351c-0.005,0.09-0.005,0.18,0,0.271c0.005,0.079,0.005,0.16,0,0.239v2.971
		c0,0.17,0.05,0.33,0.08,0.5c-0.005,0.04-0.005,0.08,0,0.12c0,0.189,0.07,0.369,0.11,0.55c0,0.181,0.079,0.359,0.13,0.54
		c0.004,0.021,0.004,0.04,0,0.061c0,0.09,0.05,0.189,0.08,0.279c-0.006,0.043-0.006,0.087,0,0.131c0,0.109,0.068,0.22,0.1,0.34v0.08
		c0.101,0.279,0.2,0.561,0.32,0.84c-0.004,0.03-0.004,0.061,0,0.091c0,0.1,0.09,0.21,0.14,0.31l0.061,0.141l0.131,0.271l0.079,0.149
		l0.141,0.25l0.09,0.15c0,0.079,0.09,0.159,0.141,0.239s0.069,0.101,0.101,0.16l0.149,0.229l0.109,0.149l0.16,0.229l0.12,0.149
		l0.18,0.221l0.12,0.14l0.21,0.24l0.11,0.12l0.34,0.329c0.031,0.038,0.068,0.072,0.109,0.101c0.079,0.082,0.161,0.159,0.25,0.229
		l0.159,0.131l0.222,0.18l0.188,0.141l0.221,0.16l0.21,0.14l0.221,0.141l0.229,0.13l0.23,0.141l0.239,0.12l0.25,0.12l0.25,0.119
		l0.25,0.109l0.271,0.11l0.271,0.101l0.279,0.1l0.301,0.091l0.471,0.14l0.39,0.101l0.311,0.061l0.319,0.069h0.341l0.329,0.051h4.222
		l0.54-0.051h0.329l0.91-0.1c0,0,11.33,1.689,11.7-2.79c0-0.229,0-0.471,0.05-0.721v-0.569c-0.005-0.069-0.005-0.141,0-0.21v-0.811
		v-1.301v-1.34v-0.5v-1.431v-0.31c-0.069-2.221-0.181-4.28-0.25-5.431c0-0.609-0.061-1-0.061-1s-3.859-5.819-3.229-8
		s0.489-9.58,0.489-9.58s-1.5-3.551-2.51-6.689c-0.08-0.24-0.149-0.479-0.22-0.71c0.838-0.959,1.625-1.96,2.359-3
		c1.436-7.709,0.449-15.673-2.819-22.8c-0.384-0.268-0.611-0.704-0.61-1.171c-0.005-0.039-0.005-0.08,0-0.119l1.931-23.61
		l-1.17-13.74c0,0-0.83-9.39,1-13.43l3.649-35.57l5.18-20.688c0,0,1.66-0.812,3,3.08c1.341,3.89,4.641,21.5,4.641,21.5l8,29.108
		c0,0,1.33,10.352,2.49,11.812c1.159,1.46,1.17,7.92,1.17,7.92s2.489,5.18,2.159,7.438c-0.329,2.26,0,8.41,0.82,10.511
		c0.819,2.101,1.17,17,1.17,17c-0.956,4.873-0.843,9.896,0.33,14.721c2,7.439,0.83,16.819,0.83,16.819
		c0.21,0.325,0.438,0.639,0.68,0.939c-0.08,0.221-0.17,0.439-0.25,0.641c-0.52,1.351-0.93,2.3-0.93,2.3s-0.12,7.399,0.5,9.58
		s-3.24,8-3.24,8s0,0.359-0.061,1c-0.069,1.149-0.18,3.2-0.25,5.431v5.7c-0.004,0.062-0.004,0.126,0,0.189v0.579
		c0,0.19,0,0.49,0.051,0.721c0.38,4.479,11.71,2.79,11.71,2.79l0.91,0.109h5.06l0.341-0.061l0.329-0.05l0.32-0.069l0.32-0.061
		l0.39-0.101l0.47-0.141l0.29-0.09l0.28-0.101c0.092-0.026,0.184-0.061,0.271-0.101l0.271-0.109l0.26-0.109l0.25-0.109l0.25-0.131
		l0.23-0.119l0.239-0.131l0.221-0.141l0.229-0.14l0.199-0.141l0.221-0.159c0.066-0.041,0.131-0.088,0.189-0.141
		c0.077-0.052,0.15-0.107,0.22-0.17l0.171-0.141l0.25-0.221l0.109-0.109l0.34-0.33l0.101-0.12l0.22-0.229l0.11-0.149
		c0.067-0.067,0.132-0.143,0.189-0.22l0.109-0.15l0.17-0.229l0.101-0.149l0.16-0.229c0.029-0.056,0.062-0.108,0.101-0.159
		c0-0.08,0.09-0.16,0.14-0.24l0.09-0.149c0-0.091,0.091-0.17,0.131-0.25c0.03-0.048,0.058-0.099,0.079-0.149
		c0-0.091,0.091-0.181,0.131-0.271l0.069-0.141c0-0.101,0.091-0.2,0.141-0.311v-0.09c0.109-0.28,0.221-0.561,0.311-0.841v-0.08
		c0-0.109,0.07-0.22,0.109-0.329c-0.005-0.048-0.005-0.095,0-0.141c0-0.091,0-0.189,0.08-0.28v-0.05c0.005-0.02,0.005-0.041,0-0.061
		c0-0.181,0.101-0.359,0.141-0.529c0-0.181,0.08-0.36,0.109-0.54v-0.131c0-0.17,0.061-0.329,0.08-0.489c0.021-0.159,0-0.109,0-0.17
		v-0.33v-0.25v-0.159v-0.562v-1.75c-0.005-0.09-0.005-0.18,0-0.27v-0.351c-0.005-0.04-0.005-0.08,0-0.12v-0.399
		c-0.061-0.729-0.13-1.17-0.13-1.17v-0.91l-0.631-16.18v-1c0.931-0.521,1.881-1.11,2.87-1.801c0,0-0.17-9.221,2.49-12.931
		c2.659-3.71-1.33-13.43-1.33-13.43l-1.66-34.771l0.66-16c-1.317-2.374-2.006-5.046-2-7.761c-0.264-3.469-1.165-6.858-2.66-10
		c0,0-1.66-5.5,0.34-7.12c2-1.619-2.159-37-2.159-37s1-25.85-0.899-41.199v-0.25l0.529-0.239c-0.16-1.23-0.33-2.381-0.521-3.45
		l-0.561,0.17c-0.234-1.355-0.568-2.692-1-4l-2.659-12.21c0,0-0.061-0.641-0.131-1.569c-0.09-1.101-0.189-2.591-0.21-3.9
		c-0.009-0.552,0.053-1.104,0.181-1.64l-0.141-0.12c0.014-0.288,0.061-0.572,0.141-0.851l-0.58-0.489c0,0-0.08-0.551-0.141-1.391
		c-0.13-1.859-0.199-5.101,0.721-6.931c1.33-2.67,15-12.779,15-12.779l7.66-15.33c0,0,7.64-10.761,13.449-12.86
		c5.811-2.1,23.91-14.14,23.91-14.14s6.311-6.471,6.811-8l0.21-0.32h0.12v-0.21l17-25.47c6.8-5.5,7.05-17.221,7.05-17.221
		l1.771-26.779l-0.58-15.84l0.819-9C870.521,157.732,885.46,119.71,871.192,120.271z M773.811,189.572
		c-1.847,3.233-2.818,6.896-2.819,10.62v0.97c0,3.326,0.777,6.606,2.271,9.58c-0.755,0.846-1.318,1.846-1.649,2.93
		c-0.841-1.06-3.301-4.3-3.439-6.449c-0.171-2.58-2.66-4.359-2.66-4.359s-0.46-4.9,0.16-5.74l0.09-0.08c0,0,0.069-0.12,0.21-0.319
		c0.71-1.069,3.101-4.681,5.569-8.79c0.411,0.177,0.836,0.315,1.271,0.42l1.52,0.381L773.811,189.572z"/>
	
		<linearGradient id="SVGID_2_" gradientUnits="userSpaceOnUse" x1="995.7112" y1="-8.449" x2="995.7112" y2="-10.8992" gradientTransform="matrix(1 0 0 1 -173.5703 196.709)">
		<stop  offset="0" style="stop-color:#808080;stop-opacity:0.25"/>
		<stop  offset="0.54" style="stop-color:#808080;stop-opacity:0.12"/>
		<stop  offset="1" style="stop-color:#808080;stop-opacity:0.1"/>
	</linearGradient>
	<path fill="url(#SVGID_2_)" d="M822.25,186.87c0.15-0.34,0.271-0.7,0.391-1.061c-0.382,0.797-0.716,1.614-1,2.45
		C821.851,187.79,822.061,187.33,822.25,186.87z"/>
	<path fill="#F6BAC2" d="M778.25,210.652c0,0-3.13,14.92-8.899,16.85c-5.771,1.931,7,19,7,19l26.471-1.45l0.479-5.528
		c0,0-5-11.07,3.369-24.54C815.04,201.512,778.25,210.652,778.25,210.652L778.25,210.652z"/>
	<path fill="#B77983" d="M736.741,562.921c-0.359,4.449-11.311,2.771-11.311,2.771c-18.16,2.521-15.16-15.28-15.16-15.28v-0.909
		l0.631-16.601l0.18-4.631c0,0,20-9.14,19.49-7.22c-0.189,0.72,0.229,2.45,0.811,4.319c1,3.109,2.43,6.631,2.43,6.631
		s0.12,7.34-0.479,9.5c-0.6,2.159,3.13,7.939,3.13,7.939s0,0.359,0.061,1C736.818,554.594,736.891,558.76,736.741,562.921
		L736.741,562.921z M771.75,567.732c0,0-10.949,1.689-11.31-2.771c-0.167-4.17-0.104-8.346,0.188-12.51c0-0.601,0.051-1,0.051-1
		s3.729-5.779,3.13-7.939c-0.601-2.16-0.479-9.511-0.479-9.511s0.391-0.93,0.9-2.271c1.069-2.81,2.68-7.369,2.35-8.67
		c-0.479-1.93,19.49,7.21,19.49,7.21l0.199,5.181l0.609,16.05v0.91C786.88,552.41,789.92,570.261,771.75,567.732L771.75,567.732z"/>
	<path fill="#F6BAC2" d="M846.822,111.92c-6.36,20.45-25.66,26.07-25.66,26.07s-12.92,9.58-14.76,12.58
		c-1.841,3-17.721,15.88-21.9,17.569s-7.369,4.489-6.25,8.25c1,3.489-9.939,20.569-11.59,23.109l-0.2,0.32l-3.449,3.609
		l-11.71,5.931l-9.54-3.051l-1.21-11.46l5.061-9c2.926-2.062,5.372-4.733,7.17-7.83c3.29-5.46,5.54-9.221,5.54-9.221
		s3.609-8.579,9.3-13.64c3.938-3.386,8.179-6.397,12.67-9l23.511-14c0,0,5.29-3.931,9-5
		C816.513,126.088,853.161,91.471,846.822,111.92L846.822,111.92z"/>
	<path opacity="0.05" enable-background="new    " d="M751.301,201.991l15.641-3.13c-0.17,0.175-0.271,0.405-0.28,0.649l-0.2,0.319
		l-3.449,3.61l-11.71,5.93l-9.54-3.05l-1.21-11.46l5.061-9c-4.79,10-0.12,17.1-0.12,17.1L751.301,201.991z M842.761,253.652
		c-0.043,0.104-0.079,0.211-0.109,0.319c-0.148,0.357-0.344,0.693-0.58,1l-6.311,3.079l-9.631,1l-5-12.108l3.33-13.271l1.841-2.479
		l0.511-0.562c0.188,2.4,1.159,14.92,1.1,18.681c-0.08,4.171,3,4.5,3,4.5L842.761,253.652z"/>
	<path fill="#D39999" d="M842.281,254.572c-0.043,0.104-0.08,0.211-0.11,0.319c-0.479,1.521-6.569,7.939-6.569,7.939
		s-17.489,11.95-23.101,14c-5.61,2.05-13,12.75-13,12.75l-7.38,15.229c0,0-13.229,10-14.51,12.681c-0.891,1.819-0.82,5-0.69,6.88
		c0,0.83,0.12,1.381,0.12,1.381l-3.899,4.069l-3.109,3.239l-4.38,4.561l-7.131-1l-22.22-3.529l-4.261-2.4l-23.65-13.319
		c0,0,0-0.83-0.06-2.101c0-0.56,0-1.199-0.061-1.909c-0.069-2.16-0.171-4.851-0.279-7.141c-0.24-4.729,3.37-12.83,3.37-12.83
		l6.648-16.37c-0.64-3.119,3.051-11.391,3.051-11.391c-0.641-1.199,3.21-13.149,4.171-14.27c0.959-1.12,2.568-9.551,2.568-9.551
		c2-2.88,4.892-17.561,4.892-17.561s3.29-18.609,4-23.26c0.71-4.651,8.8-15.07,9.06-15.391c-5.77,10.58-0.72,18.279-0.72,18.279
		l5.78-1l15.648-3.05c-0.72,0.479-0.239,5.771-0.239,5.771c1.386,1.055,2.305,2.607,2.561,4.33c0.149,2.351,3,6,3.53,6.649
		l0.08,0.09c0.405-2.259,1.785-4.227,3.77-5.38l3.61,4.819l1.21,5.771c0,0-0.33,0.811-2.41,2.41c-2.08,1.601,0.88,5.771,0.88,5.771
		c1,1.689,1.29,7.939,1.29,7.939c2.65-2.319,6.81-2.319,6.81-2.319c1.694-1.701,3.078-3.684,4.092-5.859
		c0.308-1.302,1.61-2.105,2.912-1.798c0.187,0.044,0.366,0.11,0.536,0.197c1.208-1.05,2.525-1.965,3.932-2.729c1.93-1,4.17,1,4.17,1
		l0.239,7.39c0,0,0.189,0.301,0.5,0.71c0.631,0.881,1.761,2.23,2.471,2c1-0.319,9.06,0.48,9.06,0.48s2.812,1.199,3.852-0.32
		c1.039-1.521,7-5.529,7-5.529s1.148,14.891,1.148,19.05c0,4.16,3,4.5,3,4.5L842.281,254.572z"/>
	<path fill="none" d="M842.46,254.572h-0.21C842.63,253.572,842.46,254.572,842.46,254.572z"/>
	<circle fill="#4B4442" cx="776.652" cy="244.821" r="1.44"/>
	<circle fill="#4B4442" cx="766.141" cy="265.761" r="1.44"/>
	<circle fill="#4B4442" cx="745.451" cy="310.592" r="1.44"/>
	<circle fill="#4B4442" cx="755.232" cy="287.971" r="1.44"/>
	<path opacity="0.05" enable-background="new    " d="M731.46,525.37c-7.52,8.939-15.64,8.79-20.479,7.53l0.18-4.631
		c0,0,20-9.14,19.49-7.22C730.46,521.771,730.841,523.501,731.46,525.37L731.46,525.37z M786.271,535.491
		c-12.771,7.38-20.26-1.271-22-3.721c1.07-2.81,2.681-7.369,2.351-8.67c-0.479-1.93,19.49,7.211,19.49,7.211L786.271,535.491z"/>
	<path fill="#8499F0" d="M791.402,519.931c-2.561,3.689-2.41,12.83-2.41,12.83c-16.521,11.87-25.18-2.569-25.18-2.569
		s1.119-9.301-0.801-16.681c-1.139-4.789-1.246-9.766-0.319-14.601c0,0-0.32-14.76-1.13-16.84c-0.812-2.08-1.12-8.181-0.801-10.431
		s-2.08-7.37-2.08-7.37s0-6.42-1.13-7.859c-1.131-1.439-2.399-11.72-2.399-11.72l-7.69-28.87c0,0-3.21-17.479-4.489-21.33
		s-2.891-3.05-2.891-3.05l-4.62,20.689l-3.529,35.29c-1.771,4-1,13.319-1,13.319l1.12,13.63l-1.859,23.421
		c-0.005,0.039-0.005,0.08,0,0.119c-0.004,0.458,0.212,0.889,0.579,1.16c3.156,7.097,4.094,14.98,2.689,22.62
		c-12.189,17.649-26.95,8.5-26.95,8.5c-0.32-4.029-1.294-7.98-2.88-11.7c-2.729-6.739,0.48-34,0.48-34l-2.41-17.649
		c0,0-0.16-10.59-0.641-12c-0.479-1.41-0.319-11.87-0.319-11.87l0.319-11.069c-4.171-14.12-2.091-36.41-2.091-36.41
		s-0.64-35.609,0.65-37.22c0.93-1.16,0.34-6.439,0.74-10.25c0.042-1.156,0.364-2.285,0.938-3.29l0.16-0.16
		c2.09-2.569,2.09-12.83,1.92-16.851c-0.08-2.119,1.37-5.561,2.75-8.319c1-1.939,1.91-3.54,2.25-4.12l0.141-0.229
		c0,0,9.141,2.25,33.36,13.8c4.337,2.146,8.988,3.589,13.779,4.271c2.384,0.319,4.797,0.354,7.189,0.11
		c3.65-0.352,7.181-1.498,10.341-3.36c1.67-0.952,3.179-2.164,4.47-3.59c-0.33,1-0.13,4.42,0,6.46
		c0.061,0.931,0.13,1.561,0.13,1.561l2.67,11.899c0.436,1.411,0.77,2.852,1,4.311c0.19,1.061,0.351,2.21,0.5,3.431
		c1.87,15.22,0.87,40.869,0.87,40.869s4,35.131,2.09,36.729c-1.909,1.601-0.329,7.061-0.329,7.061
		c1.451,3.131,2.322,6.498,2.569,9.939c-0.014,2.688,0.65,5.337,1.931,7.7l-0.65,15.88l1.681,34.45
		C790.12,506.572,793.971,516.241,791.402,519.931L791.402,519.931z"/>
	<path opacity="0.05" enable-background="new    " d="M772.591,461.862c0,0,12.149-7,14.8-3.851
		C790.04,461.16,772.591,461.862,772.591,461.862z M779.931,465.711c0,0-2,1,2.41,2.279
		C786.75,469.271,779.931,465.711,779.931,465.711z M706.46,446.461c-0.41,0.119,10.11,7.1,19.61,1.319
		C726.031,447.781,708.83,445.741,706.46,446.461z M725.551,459.811c0,0-2.881,5.66-8.78,6.5
		C710.87,467.152,725.551,459.811,725.551,459.811z M764.17,472.091c0,0,13.841,22,11.19,27.189
		C772.71,504.471,764.17,472.091,764.17,472.091z M740.83,338.66l-1.439,43.069c0,0,8.54-0.359,10-14.55
		c1.46-14.189,2.529-25.75,2.529-25.75L740.83,338.66z"/>
	<path fill="#8499F0" d="M740.351,337.7l-1.439,43.069c0,0,8.54-0.359,10-14.56s2.55-25.74,2.55-25.74L740.351,337.7z"/>
	<path opacity="0.05" enable-background="new    " d="M723.031,339.631c0,0-6.74,18.069-22.16,9.319
		c0.041-1.156,0.363-2.286,0.94-3.29c4.22,1.771,14,4.359,18-7.359L723.031,339.631z"/>
	<path opacity="0.05" enable-background="new    " d="M722.551,337.7c0,0-6.74,18.069-22.161,9.319
		c0.044-1.155,0.365-2.284,0.94-3.29c4.22,1.78,14,4.36,18-7.35L722.551,337.7z"/>
	<path fill="#8499F0" d="M722.551,338.66c0,0-6.74,18.069-22.161,9.319c0.044-1.155,0.365-2.284,0.94-3.289
		c4.22,1.779,14,4.359,18-7.351L722.551,338.66z"/>
	<path opacity="0.05" enable-background="new    " d="M781.551,354.902c-16.939,8.061-23.149-10.939-23.149-10.939l4,0.119
		c0.699,12.15,14.09,8.881,18.68,7.391C781.241,352.572,781.402,353.681,781.551,354.902L781.551,354.902z"/>
	<path opacity="0.05" enable-background="new    " d="M782.511,353.461c-16.931,8.05-23.149-10.95-23.149-10.95l4,0.12
		c0.699,12.149,14.09,8.89,18.68,7.399C782.201,351.091,782.362,352.241,782.511,353.461L782.511,353.461z"/>
	<path fill="#8499F0" d="M782.031,353.942c-16.931,8.05-23.149-10.95-23.149-10.95l4,0.12c0.699,12.159,14.09,8.891,18.68,7.399
		C781.721,351.572,781.88,352.721,782.031,353.942L782.031,353.942z"/>
	<path opacity="0.1" fill="#FFFFFF" enable-background="new    " d="M722.551,338.66c0,0-6.74,18.069-22.161,9.319
		c0.044-1.155,0.365-2.284,0.94-3.289c4.22,1.779,14,4.359,18-7.351L722.551,338.66z M782.031,353.942
		c-16.931,8.05-23.149-10.95-23.149-10.95l4,0.12c0.699,12.159,14.09,8.891,18.68,7.399
		C781.721,351.572,781.88,352.721,782.031,353.942L782.031,353.942z"/>
	<path opacity="0.05" enable-background="new    " d="M736.862,559.572c0,1.229,0,2.38-0.12,3.33
		c-0.359,4.449-11.311,2.771-11.311,2.771c-10.001,1.39-13.601-3.41-14.791-8c-0.373-1.491-0.559-3.022-0.55-4.561
		c-0.006-0.916,0.055-1.832,0.181-2.74v-0.909c2.154-0.65,4.492-0.173,6.221,1.271c4.45,3.609,10.351,0.84,10.351,0.84
		s4.329,0.359,6,1.8c0.939,0.811,2.489-1.14,3.67-3c0.069,1.2,0.18,3.37,0.25,5.69C736.841,557.251,736.862,558.45,736.862,559.572
		L736.862,559.572z"/>
	<path opacity="0.05" enable-background="new    " d="M719.3,559.311c0,0-3,2.94-8.66-1.6c-0.373-1.491-0.559-3.022-0.55-4.561
		C712.982,555.351,718.34,559.311,719.3,559.311L719.3,559.311z M736.862,559.572c-0.988,0.763-2.408,0.579-3.17-0.409
		c-0.028-0.036-0.055-0.073-0.08-0.11c1.166-0.888,2.238-1.894,3.199-3C736.841,557.251,736.862,558.45,736.862,559.572z
		 M760.33,561.631c0,1.239,0,2.39,0.11,3.33c0.359,4.46,11.31,2.771,11.31,2.771c10,1.399,13.601-3.4,14.79-8
		c0.589-2.388,0.715-4.865,0.37-7.301v-0.909c-2.159-0.64-4.494-0.163-6.229,1.271c-4.449,3.609-10.34,0.84-10.34,0.84
		s-4.33,0.37-6,1.811c-0.939,0.811-2.49-1.141-3.66-3c-0.069,1.199-0.189,3.37-0.261,5.689
		C760.341,559.301,760.322,560.501,760.33,561.631L760.33,561.631z"/>
	<path opacity="0.05" enable-background="new    " d="M777.891,561.351c0,0,3,2.939,8.649-1.6c0.377-1.487,0.565-3.017,0.561-4.551
		C784.201,557.391,778.841,561.351,777.891,561.351L777.891,561.351z M760.33,561.631c0.983,0.76,2.396,0.579,3.156-0.404
		c0.029-0.038,0.057-0.075,0.084-0.115c-1.168-0.888-2.24-1.893-3.2-3C760.341,559.301,760.322,560.501,760.33,561.631z
		 M747.13,254.572c0,0-15.398,42.51-9.47,46.199C743.591,304.46,747.13,254.572,747.13,254.572z M758.362,241.45
		c0,0-2.9,14.12-1.45,15.399C758.362,258.13,758.362,241.45,758.362,241.45z M789.46,274.34c0,0-18.93,17.642-17.649,19.091
		S789.46,274.34,789.46,274.34z M803.931,235.511c-7.17,2.189-23.931,7.311-24.12,7.271l0.931-3.82
		c2.649-2.319,6.811-2.319,6.811-2.319c1.693-1.7,3.077-3.684,4.09-5.859c0.309-1.301,1.611-2.105,2.913-1.797
		c0.187,0.044,0.365,0.109,0.537,0.196c1.211-1.046,2.527-1.961,3.93-2.729c1.931-1,4.171,1,4.171,1l0.239,7.38
		C803.431,234.83,803.62,235.101,803.931,235.511L803.931,235.511z"/>
	<path fill="#D39999" d="M803.931,234.572c-7.17,2.189-23.931,7.31-24.12,7.26l0.931-3.811c2.649-2.319,6.811-2.319,6.811-2.319
		c1.693-1.7,3.077-3.685,4.09-5.86c0.309-1.3,1.611-2.104,2.913-1.797c0.187,0.045,0.365,0.11,0.537,0.197
		c1.208-1.049,2.524-1.965,3.93-2.729c1.931-1,4.171,1,4.171,1l0.239,7.391C803.431,233.902,803.62,234.141,803.931,234.572z"/>
	<path opacity="0.05" enable-background="new    " d="M778.971,230.572c1,1.689,1.279,7.939,1.279,7.939l-2.79,2.221l-5.3-15.28
		l-0.24-7.939l-0.1-0.45l0.08,0.091c0.404-2.259,1.784-4.224,3.77-5.37l3.61,4.81l1.21,5.771c0,0-0.33,0.81-2.41,2.409
		C776,226.37,778.971,230.572,778.971,230.572L778.971,230.572z"/>
	<path fill="#D39999" d="M779.46,230.061c1,1.689,1.29,7.939,1.29,7.939l-2.79,2.25l-5.3-15.279l-0.24-7.939l-0.108-0.45l0.079,0.09
		c0.407-2.259,1.786-4.226,3.771-5.38l3.61,4.82l1.21,5.77c0,0-0.33,0.812-2.41,2.41C776.491,225.891,779.46,230.061,779.46,230.061
		L779.46,230.061z"/>
	<path opacity="0.05" enable-background="new    " d="M814.822,203.92c-0.006,11.957-9.703,21.646-21.66,21.641
		s-21.646-9.702-21.641-21.659c0.006-11.953,9.697-21.641,21.649-21.641c11.857-0.101,21.552,9.432,21.65,21.288
		C814.823,203.673,814.823,203.797,814.822,203.92z"/>
	<path fill="#F6BAC2" d="M814.822,202.95c0.005,11.963-9.688,21.664-21.65,21.67c-11.962,0.006-21.663-9.688-21.67-21.649
		c-0.006-11.963,9.688-21.665,21.65-21.671c0.006,0,0.013,0,0.02,0c11.892-0.065,21.584,9.521,21.65,21.41
		C814.822,202.79,814.822,202.87,814.822,202.95z"/>
	<path opacity="0.05" enable-background="new    " d="M814.822,202.95c0.007,3.969-1.084,7.861-3.15,11.25
		c-0.319-0.57-0.51-1.229-0.829-1.811c-0.45-0.811-1.49-1.489-2.261-1c-0.321,0.264-0.567,0.608-0.71,1
		c-0.63,1.33-1.75,2.659-3.22,2.63c-1.309-0.141-2.397-1.068-2.74-2.34c-0.309-1.25-0.362-2.549-0.16-3.819
		c0.221-2.601,0.261-5.601-1.67-7.351c-1.246-0.912-2.67-1.549-4.18-1.87c-1.471-0.479-3-1.239-3.601-2.66
		c-0.399-1-0.301-2.061-0.66-3c-0.755-1.527-2.205-2.595-3.891-2.859c-1.911,1.578-4.332,2.407-6.81,2.33
		c-2.271-0.055-4.524-0.41-6.7-1.061c5.823-10.448,19.016-14.198,29.465-8.376c6.857,3.822,11.109,11.056,11.115,18.905
		L814.822,202.95L814.822,202.95z"/>
	<path fill="#7E646B" d="M791.641,193.04c0.359,1,0.261,2.08,0.66,3c0.59,1.42,2.13,2.181,3.601,2.66
		c1.508,0.319,2.932,0.954,4.18,1.859c1.931,1.761,1.891,4.761,1.67,7.359c-0.202,1.271-0.147,2.57,0.16,3.82
		c0.349,1.268,1.435,2.193,2.74,2.34c1.47,0,2.59-1.3,3.22-2.63c0.144-0.392,0.389-0.736,0.71-1c0.771-0.511,1.811,0.17,2.261,1
		c0.314,0.866,0.749,1.684,1.29,2.43c0.723,0.624,1.708,0.849,2.63,0.601c0.903-0.246,1.746-0.684,2.47-1.279
		c2.004-1.396,3.594-3.307,4.601-5.53c0.993-2.252,0.888-4.838-0.29-7c-0.75-1.26-1.939-2.27-2.409-3.659
		c-0.82-2.391,0.72-4.851,1.67-7.189c0.909-2.141,1.205-4.492,0.85-6.79c-0.372-2.312-1.658-4.377-3.569-5.73
		c-3.8-2.529-8.939-1.14-13.34-2.358c-1.574-0.518-3.107-1.148-4.591-1.892c-2.245-0.997-4.592-1.748-7-2.239
		c-2.39-0.479-5.279-0.54-6.79,1.37c-0.412,0.612-0.78,1.254-1.1,1.92c-0.953,1.6-2.512,2.745-4.32,3.181
		c-1.29,0.31-2.64,0.229-4,0.42c-1.344,0.094-2.57,0.797-3.33,1.91c-0.659,1.199-0.38,2.659-0.22,4c0.16,1.34,0.08,2.938-1,3.77
		c-0.51,0.391-1.21,0.58-1.521,1.131c-0.293,0.663-0.1,1.44,0.471,1.891c0.562,0.426,1.217,0.713,1.909,0.84
		c2.486,0.775,5.066,1.217,7.671,1.31c2.631,0.086,5.191-0.856,7.14-2.63c-0.17,0.17-1.271,0.102-1.47,0.09
		C788.531,190.221,790.911,191.08,791.641,193.04L791.641,193.04z"/>
	<g opacity="0.05">
		<path d="M818.46,210.771c-0.726,0.597-1.565,1.034-2.47,1.29c-0.921,0.238-1.898,0.012-2.62-0.609
			c-0.546-0.744-0.982-1.562-1.3-2.431c-0.45-0.811-1.49-1.489-2.26-1c-0.318,0.269-0.562,0.611-0.711,1
			c-0.619,1.33-1.75,2.66-3.221,2.631c-1.307-0.14-2.393-1.069-2.729-2.341c-0.312-1.249-0.37-2.549-0.17-3.819
			c0.229-2.601,0.26-5.59-1.66-7.351c-1.25-0.911-2.678-1.549-4.19-1.87c-1.46-0.479-3-1.239-3.6-2.659c-0.4-1-0.3-2.062-0.66-3
			c-0.59-1.591-2.26-2.46-3.89-2.86c-1.918,1.568-4.334,2.397-6.812,2.34c-2.604-0.101-5.182-0.545-7.67-1.318
			c-0.69-0.129-1.345-0.412-1.91-0.83c-0.115-0.108-0.22-0.229-0.31-0.36c-0.442,0.189-0.827,0.489-1.12,0.87
			c-0.293,0.663-0.1,1.44,0.47,1.89c0.562,0.426,1.218,0.714,1.91,0.841c2.487,0.776,5.066,1.218,7.67,1.311
			c2.475,0.065,4.889-0.761,6.801-2.33c1.631,0.4,3.311,1.26,3.899,2.85c0.36,1,0.26,2.08,0.66,3c0.6,1.421,2.13,2.182,3.6,2.66
			c1.51,0.32,2.934,0.954,4.181,1.86c1.931,1.76,1.891,4.76,1.671,7.359c-0.203,1.271-0.149,2.57,0.159,3.819
			c0.349,1.269,1.434,2.194,2.739,2.34c1.471,0,2.59-1.3,3.221-2.63c0.144-0.391,0.389-0.734,0.71-1c0.771-0.51,1.811,0.17,2.261,1
			c0.313,0.868,0.752,1.688,1.3,2.431c0.719,0.623,1.701,0.849,2.62,0.601c0.904-0.247,1.746-0.685,2.47-1.28
			c2.004-1.395,3.595-3.306,4.601-5.529c0.178-0.429,0.321-0.869,0.431-1.319C821.507,208.077,820.119,209.594,818.46,210.771
			L818.46,210.771z M820.46,191.152c0.21-0.46,0.41-0.92,0.601-1.37c0.189-0.45,0.261-0.7,0.37-1.061
			C821.064,189.512,820.74,190.324,820.46,191.152z M773.701,184.862c1-0.851,1.069-2.37,0.91-3.681
			c-0.118-0.765-0.182-1.537-0.19-2.311c-0.213,0.208-0.397,0.442-0.55,0.7c-0.66,1.199-0.38,2.659-0.22,4
			C773.703,183.998,773.72,184.43,773.701,184.862z"/>
	</g>
	<path opacity="0.05" enable-background="new    " d="M777.641,333.732c-1.859,0.13-4.471,0.271-7.609,0.38
		c-2.181,0.069-4.62,0.12-7.229,0.12c-2.28,0-4.689,0-7.189-0.11c-7.907-0.204-15.788-1.018-23.57-2.43c-10.39-2-20-5.45-26-11.29
		c1-1.939,1.91-3.551,2.25-4.12c0-0.561,0-1.21-0.06-1.91c10.55,5,43.438,18.891,68.649,11c0,0.83,0.119,1.381,0.119,1.381
		l0.57,0.479C777.281,328.271,777.46,331.692,777.641,333.732L777.641,333.732z"/>
	<path fill="#4B4442" d="M777.641,332.771c-1.859,0.131-4.471,0.271-7.609,0.37c-2.181,0.08-4.62,0.12-7.229,0.12
		c-2.28,0-4.689,0-7.189-0.109c-7.907-0.2-15.787-1.011-23.57-2.42c-10.39-2-20-5.461-26-11.301c1-1.939,1.91-3.54,2.25-4.12
		c0-0.56,0-1.199-0.06-1.909c10.55,5,43.438,18.899,68.649,11.05c0,0.83,0.119,1.38,0.119,1.38l0.57,0.479
		C777.281,327.311,777.46,330.732,777.641,332.771L777.641,332.771z"/>
	<path fill="#B7B6CC" d="M278.531,770.442c-2.423-2.917-3.534-6.706-3.069-10.471l44.141-361.17l3.659-30
		c0.85-6.902,6.687-12.105,13.641-12.16l129.291-0.859c7.638-0.047,13.791-6.276,13.744-13.914c0-0.099-0.002-0.197-0.006-0.296
		l-0.05-1.37c-0.26-7.639,5.724-14.042,13.362-14.302c0.156-0.006,0.312-0.009,0.468-0.009h135.86
		c7.626,0,13.812,6.175,13.83,13.801c-0.001,0.622-0.041,1.242-0.12,1.859c-1.014,7.57,4.303,14.528,11.873,15.542
		c0.493,0.065,0.989,0.105,1.485,0.118l130.48,3.329c7.63,0.188,13.664,6.525,13.477,14.156c-0.017,0.672-0.082,1.342-0.195,2.004
		l-65.23,381l-1.229,7.2c-0.305,1.84-0.985,3.597-2,5.159L278.531,770.442z"/>
	
		<linearGradient id="SVGID_3_" gradientUnits="userSpaceOnUse" x1="547.5364" y1="664.9338" x2="547.5364" y2="402.0925" gradientTransform="matrix(0.8227 0.5684 -0.5684 0.8227 482.3201 -372.7325)">
		<stop  offset="0" style="stop-color:#808080;stop-opacity:0.25"/>
		<stop  offset="0.54" style="stop-color:#808080;stop-opacity:0.12"/>
		<stop  offset="1" style="stop-color:#808080;stop-opacity:0.1"/>
	</linearGradient>
	<path opacity="0.5" fill="url(#SVGID_3_)" enable-background="new    " d="M521.775,462.689l149.396-216.239l66.115,45.678
		l-149.397,216.24L521.775,462.689z"/>
	<path fill="#F9FAFB" d="M672.287,249.373l62.857,43.427L587.748,506.145l-62.856-43.427L672.287,249.373z"/>
	<path fill="#F7B643" d="M676.818,259.483l44.287,30.785l-30.785,44.288l-44.288-30.786L676.818,259.483z"/>
	<path opacity="0.5" fill="#F7B643" enable-background="new    " d="M642.122,312.853l44.437,30.7L655.86,387.99l-44.438-30.7
		L642.122,312.853z"/>
	<path opacity="0.3" fill="#F7B643" enable-background="new    " d="M605.047,366.502l44.438,30.699l-30.7,44.437l-44.438-30.7
		L605.047,366.502z"/>
	
		<linearGradient id="SVGID_4_" gradientUnits="userSpaceOnUse" x1="566.4939" y1="603.3967" x2="566.4939" y2="341.5569" gradientTransform="matrix(0.9599 0.2805 -0.2805 0.9599 172.0339 -241.9183)">
		<stop  offset="0" style="stop-color:#808080;stop-opacity:0.25"/>
		<stop  offset="0.54" style="stop-color:#808080;stop-opacity:0.12"/>
		<stop  offset="1" style="stop-color:#808080;stop-opacity:0.1"/>
	</linearGradient>
	<path opacity="0.5" fill="url(#SVGID_4_)" enable-background="new    " d="M507.99,484.911l73.448-251.338l77.134,22.541
		l-73.448,251.338L507.99,484.911z"/>
	<path fill="#F9FAFB" d="M583.48,236.011l73.332,21.431l-72.461,247.96l-73.333-21.431L583.48,236.011z"/>
	<path fill="#F97878" d="M593.108,243.168l51.841,15.15l-15.15,51.842l-51.841-15.149L593.108,243.168z"/>
	<path opacity="0.5" fill="#F97878" enable-background="new    " d="M574.816,305.755l51.841,15.15l-15.15,51.842l-51.841-15.149
		L574.816,305.755z"/>
	<path opacity="0.3" fill="#F97878" enable-background="new    " d="M556.526,368.333l51.842,15.15l-15.15,51.841l-51.842-15.149
		L556.526,368.333z"/>
	
		<linearGradient id="SVGID_5_" gradientUnits="userSpaceOnUse" x1="579.6555" y1="520.1096" x2="579.6554" y2="258.2644" gradientTransform="matrix(0.9968 0.0802 -0.0802 0.9968 12.0884 -62.7602)">
		<stop  offset="0" style="stop-color:#808080;stop-opacity:0.25"/>
		<stop  offset="0.54" style="stop-color:#808080;stop-opacity:0.12"/>
		<stop  offset="1" style="stop-color:#808080;stop-opacity:0.1"/>
	</linearGradient>
	<path opacity="0.5" fill="url(#SVGID_5_)" enable-background="new    " d="M508.125,498.95l21-261.006l80.103,6.443l-21,261.007
		L508.125,498.95z"/>
	<path fill="#F9FAFB" d="M531.533,239.92l76.153,6.128l-20.718,257.499l-76.152-6.127L531.533,239.92z"/>
	<path fill="#73B53B" d="M542.37,244.987l53.837,4.331l-4.332,53.836l-53.836-4.331L542.37,244.987z"/>
	<path opacity="0.5" fill="#73B53B" enable-background="new    " d="M537.136,309.967l53.836,4.332l-4.332,53.836l-53.836-4.332
		L537.136,309.967z"/>
	<path opacity="0.3" fill="#73B53B" enable-background="new    " d="M531.911,374.969l53.836,4.332l-4.332,53.836l-53.836-4.332
		L531.911,374.969z"/>
	
		<linearGradient id="SVGID_6_" gradientUnits="userSpaceOnUse" x1="601.1331" y1="483.8372" x2="601.1331" y2="221.9924" gradientTransform="matrix(0.999 -0.0455 0.0455 0.999 -75.9336 52.386)">
		<stop  offset="0" style="stop-color:#808080;stop-opacity:0.25"/>
		<stop  offset="0.54" style="stop-color:#808080;stop-opacity:0.12"/>
		<stop  offset="1" style="stop-color:#808080;stop-opacity:0.1"/>
	</linearGradient>
	<path opacity="0.5" fill="url(#SVGID_6_)" enable-background="new    " d="M494.556,248.637l80.276-3.66l11.924,261.579
		l-80.275,3.659L494.556,248.637z"/>
	<path fill="#FFFFFF" d="M497.274,250.276l76.318-3.479l11.765,258.062l-76.319,3.479L497.274,250.276z"/>
	<path fill="#BBB8FA" d="M508.652,253.923l53.952-2.46l2.46,53.954l-53.953,2.461L508.652,253.923z"/>
	<path opacity="0.5" fill="#BBB8FA" enable-background="new    " d="M513.736,316.993l54.01-2.699l2.7,54.01l-54.011,2.7
		L513.736,316.993z"/>
	<path opacity="0.3" fill="#BBB8FA" enable-background="new    " d="M514.585,384.198l53.954-2.459l2.46,53.954l-53.954,2.46
		L514.585,384.198z"/>
	<path fill="#E6ECF8" d="M529.68,590.711l-67.88,26.26l-99.21,38.351c-3.75-7-9.271-16.46-16.1-27.75
		c-23.5-38.939-62.381-99.511-97-152.74c-39-60-72.57-110.63-72.57-110.63l24.3-7l198.5-57.63L529.68,590.711z"/>
	<path opacity="0.1" enable-background="new    " d="M529.68,590.711l-67.88,26.26c-37.92,7.9-76.614,11.456-115.34,10.601
		c-23.5-38.939-62.38-99.511-97-152.74l-48.229-117.67l198.489-57.59L529.68,590.711z"/>
	<path fill="#BBB8FA" d="M580.18,574.37c0,0-105.448,62.381-262.89,48.271l-125.511-306l60.149-10.341l207.94-35.71l118,297.831
		L580.18,574.37z"/>
	<path opacity="0.1" enable-background="new    " d="M577.83,568.461c-24.83,1.22-53.561,1.1-82.46-2.351
		c-31.28-3.681-62.74-11.261-89.71-25.16c-22.551-11.609-41.83-24.239-58.641-39.391c-43.729-39.33-70.79-95.59-95.091-195.221
		l207.94-35.71L577.83,568.461z"/>
	<path fill="#F9FAFB" d="M655.192,551.351c0,0-77.73,15.221-156.852,5.851c-31.279-3.681-62.739-11.261-89.71-25.16
		c-22.55-11.609-41.819-24.239-58.64-39.39c-54.12-48.69-82.7-123.311-112.171-274c0,0,129.221,31.188,257.001-37.131
		C494.781,181.572,537.851,450.351,655.192,551.351z"/>
	<path opacity="0.1" enable-background="new    " d="M498.34,557.2c-31.279-3.681-62.739-11.26-89.71-25.16
		c-22.55-11.609-41.819-24.239-58.64-39.39c46.079-3.74,52.7-28.931,52.7-28.931C436.851,517.931,498.34,557.2,498.34,557.2z"/>
	<path opacity="0.3" fill="#BBB8FA" enable-background="new    " d="M304.661,273.971c0,0,105.08-5.939,134.42-28.591l4.45,14.301
		c0,0-69.431,30.63-138.87,31V273.971z M304.661,344.572c0,0,101.74-5.569,178.609-42.7l2.601,5.939c0,0-61,35.61-181.21,44.931
		V344.572L304.661,344.572z M312.851,372.08c0,0,101.739-5.569,178.601-42.699l2.6,5.939c0,0-61,35.601-181.199,44.93
		L312.851,372.08L312.851,372.08z M321.031,399.631c0,0,101.74-5.57,178.609-42.7l2.592,5.939c0,0-61,35.609-181.2,44.931
		L321.031,399.631z M329.22,427.181c0,0,101.74-5.569,178.602-42.699l2.6,5.939c0,0-61,35.609-181.2,44.93L329.22,427.181
		L329.22,427.181z M337.401,454.741c0,0,101.739-5.569,178.609-42.7l2.591,5.94c0,0-61,35.6-181.2,44.93V454.741z"/>
	<path fill="#BBB8FA" d="M1052.771,796.811c0,0-42.279-2.55-37.301,27.08c0,0-1,5.229,3.762,7.61c0,0,0.068-2.2,4.33-1.45
		c1.518,0.255,3.062,0.329,4.6,0.22c2.072-0.139,4.043-0.953,5.609-2.319c0,0,11.891-4.91,16.51-24.33c0,0,3.42-4.239,3.281-5.33
		l-7.131,3c0,0,2.438,5.15,0.52,9.42c0,0-0.229-9.229-1.6-9c-0.279,0-3.709,1.78-3.709,1.78s4.188,9,1,15.48
		c0,0,1.199-11.051-2.342-14.83l-5,2.93c0,0,4.899,9.26,1.58,16.82c0,0,0.852-11.59-2.64-16.11l-4.551,3.55
		c0,0,4.609,9.13,1.801,15.4c0,0-0.371-13.5-2.791-14.521c0,0-4,3.512-4.58,5c0,0,3.15,6.62,1.191,10.12c0,0-1.201-9-2.183-9
		c0,0-4,6-4.379,10c0,0,0.17-6.08,3.42-10.608c-2.289,0.437-4.401,1.53-6.08,3.148c0,0,0.619-4.22,7.062-4.58
		c0,0,3.279-4.52,4.147-4.8c0,0-6.397-0.53-10.278,1.19c0,0,3.42-4,11.461-2.17l4.488-3.66c0,0-8.431-1.16-12,0.119
		c0,0,4.11-3.521,13.211-1l4.891-2.92c0,0-7.182-1.55-11.461-1c0,0,4.51-2.439,12.9,0.2l3.489-1.569c0,0-5.26-1-6.801-1.2
		c-1.539-0.2-1.629-0.58-1.629-0.58c3.334-0.562,6.76-0.183,9.889,1.1C1045.46,800,1052.891,797.281,1052.771,796.811
		L1052.771,796.811z"/>
	<ellipse opacity="0.1" fill="#BBB8FA" enable-background="new    " cx="1023.652" cy="834.081" rx="29.92" ry="5.06"/>
	<ellipse opacity="0.1" fill="#BBB8FA" enable-background="new    " cx="813.75" cy="815.191" rx="102" ry="9.24"/>
	<path fill="#BBB8FA" d="M1072.46,699.001c0,0-23.83-1.44-21,15.27c-0.299,1.736,0.554,3.468,2.111,4.29
		c0,0,0.049-1.239,2.449-0.819c0.854,0.142,1.725,0.182,2.59,0.12c1.168-0.075,2.277-0.532,3.16-1.301c0,0,6.699-2.771,9.311-13.72
		c0,0,1.931-2.391,1.851-3l-4,1.71c0,0,1.368,2.91,0.289,5.319c0,0-0.13-5.21-0.898-5.09c-0.16,0-2.09,1-2.09,1s2.358,5,0.578,8.729
		c0,0,0.682-6.229-1.318-8.37l-2.83,1.66c0,0,2.76,5.22,0.889,9.479c0,0,0.48-6.54-1.487-9.08l-2.562,2c0,0,2.591,5.149,1,8.681
		c0,0-0.211-7.61-1.569-8.181c-0.972,0.823-1.841,1.761-2.591,2.79c0,0,1.779,3.739,0.681,5.71c0,0-0.681-5.069-1.23-5.091
		c0,0-2.24,3.351-2.469,5.65c0.107-2.135,0.773-4.203,1.93-6c-1.293,0.243-2.485,0.862-3.43,1.779c0,0,0.35-2.38,4-2.58
		c0,0,1.85-2.55,2.34-2.71c0,0-3.611-0.3-5.801,0.671c0,0,1.93-2.24,6.461-1.221l2.539-2.069c0,0-4.76-0.65-6.771,0.069
		c0,0,2.32-2,7.449-0.54l2.76-1.649c-2.122-0.465-4.297-0.65-6.469-0.551c0,0,2.549-1.38,7.271,0.109l2-0.88c0,0-3-0.59-3.84-0.68
		c-0.841-0.09-0.921-0.33-0.921-0.33c1.882-0.312,3.812-0.099,5.58,0.62C1068.421,700.801,1072.54,699.261,1072.46,699.001
		L1072.46,699.001z"/>
	<ellipse opacity="0.1" fill="#BBB8FA" enable-background="new    " cx="1056.062" cy="720.011" rx="16.869" ry="2.85"/>
	<path fill="#BBB8FA" d="M931.781,713.501c0,0-28.779-1.74-25.379,18.43c-0.363,2.098,0.666,4.188,2.549,5.181c0,0,0-1.5,3-1
		c1.033,0.175,2.084,0.226,3.131,0.149c1.412-0.095,2.754-0.648,3.82-1.58c0,0,8.09-3.34,11.238-16.561c0,0,2.33-2.88,2.229-3.63
		l-4.91,2.08c0,0,1.66,3.5,0.351,6.409c0,0-0.158-6.279-1.09-6.14c-0.189,0-2.521,1.22-2.521,1.22s2.85,6.101,0.701,10.54
		c0,0,0.817-7.521-1.592-10.101l-3.42,2c0,0,3.329,6.311,1.069,11.45c0,0,0.58-7.891-1.789-11l-3.1,2.42
		c0,0,3.139,6.21,1.219,10.479c0,0-0.24-9.189-1.889-9.88c0,0-2.711,2.39-3.121,3.37c0,0,2.141,4.51,0.811,6.89
		c0,0-0.819-6.12-1.489-6.149c0,0-2.689,4.061-3,6.83c0.135-2.568,0.938-5.058,2.33-7.221c-1.558,0.298-2.994,1.045-4.132,2.15
		c0,0,0.421-2.87,4.802-3.12c0,0,2.229-3.08,2.83-3.261c0,0-4.359-0.369-7,0.801c0,0,2.319-2.7,7.789-1.471l3.061-2.5
		c0,0-5.729-0.779-8.17,0.08c0,0,2.801-2.391,9-0.641l3.33-2c0,0-4.891-1.05-7.812-0.67c0,0,3.08-1.659,8.781,0.141l2.379-1.069
		c0,0-3.58-0.7-4.629-0.811c-1.051-0.109-1.1-0.399-1.1-0.399c2.268-0.385,4.598-0.129,6.729,0.739
		C926.79,715.66,931.87,713.811,931.781,713.501z"/>
	<ellipse opacity="0.1" fill="#BBB8FA" enable-background="new    " cx="911.96" cy="738.871" rx="20.371" ry="3.44"/>
	<ellipse opacity="0.1" fill="#BBB8FA" enable-background="new    " cx="54.651" cy="819.001" rx="29.92" ry="5.061"/>
	<path fill="#A8A8A8" d="M34.561,795.491c0,0,17.061-0.521,22.21-4.181c5.149-3.659,26.25-8,27.529-2.17
		c1.28,5.83,25.65,29.221,6.38,29.38c-19.27,0.16-44.77-3-49.909-6.13C35.63,809.261,34.561,795.491,34.561,795.491z"/>
	<path opacity="0.2" enable-background="new    " d="M91.021,816.471c-19.271,0.16-44.771-3-49.91-6.13
		c-3.899-2.381-5.46-10.931-6-14.87h-0.569c0,0,1.08,13.771,6.21,16.899c5.13,3.131,30.71,6.301,49.93,6.2
		c5.562-0.051,7.48-2,7.381-5C97.281,815.33,95.161,816.441,91.021,816.471L91.021,816.471z"/>
	
		<linearGradient id="SVGID_7_" gradientUnits="userSpaceOnUse" x1="1090.0745" y1="134.8992" x2="1090.0745" y2="-35.7756" gradientTransform="matrix(0.951 0.3092 -0.3092 0.951 -60.0146 -255.8157)">
		<stop  offset="0" style="stop-color:#808080;stop-opacity:0.25"/>
		<stop  offset="0.54" style="stop-color:#808080;stop-opacity:0.12"/>
		<stop  offset="1" style="stop-color:#808080;stop-opacity:0.1"/>
	</linearGradient>
	<path fill="url(#SVGID_7_)" d="M789.71,162.308L842.48,0l290.455,94.431l-52.771,162.309L789.71,162.308z"/>
	<path fill="#F6F7F9" d="M792.079,161.848L844.121,1.776l286.443,93.126l-52.043,160.072L792.079,161.848z"/>
	<circle opacity="0.2" fill="#BBB8FA" enable-background="new    " cx="874.942" cy="90.371" r="31.36"/>
	<path opacity="0.2" fill="#BBB8FA" enable-background="new    " d="M949.973,84.725l2.655-8.168l129.937,42.242l-2.656,8.169
		L949.973,84.725z M943.2,105.553l2.656-8.171l66.189,21.521l-2.656,8.17L943.2,105.553z M936.417,126.394l2.656-8.17
		l107.053,34.806l-2.655,8.17L936.417,126.394z M929.648,147.227l2.654-8.17l129.936,42.243l-2.656,8.171L929.648,147.227z"/>
	<path opacity="0.5" fill="#BBB8FA" enable-background="new    " d="M1011.368,215.49l5.135-15.796l35.959,11.688l-5.137,15.797
		L1011.368,215.49z"/>
	
		<linearGradient id="SVGID_8_" gradientUnits="userSpaceOnUse" x1="1004.8596" y1="622.4094" x2="1004.8596" y2="200.2307" gradientTransform="matrix(1 0 0 1 -173.5703 196.709)">
		<stop  offset="0" style="stop-color:#808080;stop-opacity:0.25"/>
		<stop  offset="0.54" style="stop-color:#808080;stop-opacity:0.12"/>
		<stop  offset="1" style="stop-color:#808080;stop-opacity:0.1"/>
	</linearGradient>
	<path fill="url(#SVGID_8_)" d="M934.971,482.961c-0.015-0.335-0.048-0.669-0.101-1c0-0.351-0.108-0.7-0.17-1
		c-0.129-0.681-0.27-1.351-0.43-2c-0.08-0.311-0.16-0.631-0.25-0.931c-0.947-3.547-2.652-6.848-5-9.67
		c-0.131-0.16-0.271-0.311-0.4-0.461c-0.129-0.148-0.539-0.579-0.809-0.85c-0.271-0.271-0.521-0.511-0.781-0.74
		s-0.5-0.439-0.74-0.64c-0.479-0.391-0.93-0.721-1.319-1c-0.39-0.28-0.568-0.381-0.81-0.521c-0.574-0.343-1.217-0.552-1.881-0.61
		l-4.15-0.409l-5.67-0.561l-20.269-7.87l-0.801,0.28c-0.595-1.638-1.096-3.308-1.5-5c0.613-0.267,1.161-0.665,1.601-1.171
		c0.479-0.372,0.855-0.855,1.1-1.409c0.511-1.181-0.47-3.689-0.27-5.131c0.319-2.31,1.52-4.539,2.5-6.63
		c2.08-4.489,3.6-9.359,3.35-14.29c-0.25-4.93-2.5-9.93-6.66-12.68c-2.149-1.431-4.681-2.189-6.921-3.49
		c-1.739-1-3.27-2.34-4.93-3.479c-8.306-5.537-18.911-6.297-27.92-2c-4.21,2.07-7.8,5.17-11.771,7.66
		c-3.971,2.489-8.649,4.399-13.301,3.659c-0.063,0.188-0.11,0.384-0.14,0.58l-0.391-0.05c-0.801,2.181,1.159,4.34,3,5.83
		c3.431,2.829,7.319,5.649,11.79,5.75c1.729,0,3.561-0.33,5.13,0.38c0.356,0.157,0.692,0.359,1,0.601
		c-2.028,8.131,0.676,16.712,7,22.21l-10.351-3.721c0,0-0.43,0.221-1.1,0.641l-14.36-9.561c0,0-28.79-10.439-36.79,5.82
		s34.67,7.869,34.67,7.869l9.131,5c-0.308,1.888,0.047,3.823,1,5.48l24.893,15.383c-5,1.55-13.29,4-14.761,4
		c-2.13,0-8,2.1-11.729,10.489c-3.729,8.391-17.069,49.319-28.8,56.141c-11.729,6.819-42.66,52.47-42.66,52.47l0.141,0.359
		c-0.551,0.15-1.091,0.301-1.62,0.48c-6.495,2.254-12.116,6.494-16.069,12.119c-1.658,2.305-1.135,5.517,1.17,7.175
		c0.716,0.515,1.553,0.837,2.43,0.937c12.21,1.55,18.881-4.08,22.091-8.33c0.21-0.271,0.399-0.54,0.58-0.811
		c0.949,0.408,2.017,0.458,3,0.141l14.93-12.07c0,0-11.68,11.5-4.829,22l-0.521,0.729c-11.546,16.484-20.016,34.921-25,54.42
		c0,0-6.399,4.721-6.93,23.61s-6.939,49.319-6.939,49.319s-4.261,36.21-1.601,47.221c0,0,0.311,0.438,0.88,1.109
		c-0.2,0.239-0.42,0.5-0.66,0.76c-2.329,2.521-6.529,6-11.42,5c-7.46-1.579-7.46,11.54,3.2,12.591c6.87,0.67,20.37,3.739,29.12,5.84
		c3.282,0.828,6.615-1.162,7.442-4.445c0.173-0.684,0.226-1.393,0.156-2.095c-0.52-4.7-1.47-10.39-3.199-14.439
		c-0.109-0.25-0.221-0.5-0.33-0.729c0.311-0.3,0.63-0.601,0.939-0.92c0,0,0-23.09,3.74-29.38c0,0,10.13-47.75,9.59-59.82
		c-0.41-9.439,26.29-46.21,37.91-61.739l-0.101-0.591c3-4,4.859-6.399,4.859-6.399l8.99,57.199c0,0,4.27,12.591,9.6,19.41
		c0,0,22.931,43.551,25.601,57.19c2,10.35,6.181,16.46,8.08,18.819l-0.689,0.659c-2.43,2.23-6,4.46-10.061,3.61
		c-7.46-1.58-7.46,11.54,3.199,12.59c6.87,0.68,20.37,3.75,29.111,5.85c3.287,0.828,6.625-1.166,7.453-4.454
		c0.172-0.685,0.225-1.394,0.156-2.096c-0.609-5.46-1.801-12.25-4.101-16.26c-0.186-0.344-0.391-0.678-0.61-1
		c0.813-0.325,1.539-0.835,2.121-1.49c0,0-13.871-33.06-13.871-42c0,0-5.859-34.1-25.59-46.689c0,0,1.859-42.659,7.479-66.399
		c0.14-0.58,0.28-1.16,0.42-1.72c5.237-0.819,10.431-1.9,15.56-3.24l0.53-15.739l2.67,12.59l29.861-18.359
		c0,0-0.262-3.311-0.762-8.38c-0.261-2.54-0.568-5.521-0.939-8.75c-0.299-2.58-0.639-5.32-1-8.12c-0.1-0.7-0.188-1.41-0.289-2.11
		c-0.391-2.829-0.819-5.689-1.281-8.489c-0.18-1.054-0.358-2.094-0.538-3.12c-0.25-1.369-0.5-2.71-0.761-4
		c-0.131-0.649-0.27-1.3-0.399-1.931c-0.131-0.63-0.279-1.26-0.42-1.869c-0.142-0.609-0.279-1.2-0.42-1.79
		c-0.08-0.29-0.15-0.58-0.222-0.859c-0.149-0.57-0.299-1.13-0.449-1.67c-0.627-2.244-0.987-4.553-1.079-6.881v-2.771
		c0-0.92,0.141-1.84,0.27-2.76c0.061-0.45,0.141-0.91,0.23-1.359c0.338-1.829,0.844-3.623,1.51-5.36
		c0.33-0.869,0.711-1.729,1.119-2.579c1-2,2-4.131,3.061-6.4c0.541-1.13,1.08-2.29,1.621-3.47c0.539-1.181,1.09-2.38,1.639-3.601
		c5.191-11.569,10.312-24.46,11.681-32.931c0.141-0.89,0.25-1.729,0.301-2.521C934.999,484.404,935.01,483.681,934.971,482.961
		L934.971,482.961z"/>
	<path fill="#AE6E79" d="M845.902,451.572l-17.591-11.891c0,0-27.931-10.351-35.689,5.689s33.62,7.761,33.62,7.761l17.59,9.819
		L845.902,451.572z"/>
	<path fill="#F9FAFB" d="M655.064,550.224L746.042,408.7l220.314,141.631l-90.979,141.522L655.064,550.224z"/>
	<path fill="#B7B6CC" d="M687.708,540.352l25.526-40.176l9.453,6.006l-25.526,40.177L687.708,540.352z M717.924,548.491
		l56.062-88.236l8.668,5.508l-56.062,88.235L717.924,548.491z M736.444,560.245l56.062-88.236l8.669,5.507l-56.062,88.237
		L736.444,560.245z M754.954,572.019l56.062-88.236l8.668,5.508l-56.062,88.236L754.954,572.019z M774.113,589.076l56.452-87.812
		l8.627,5.545l-56.452,87.813L774.113,589.076z"/>
	<path fill="#FFFFFF" d="M791.985,595.542l56.061-88.237l8.669,5.508l-56.062,88.237L791.985,595.542z M810.5,607.297l56.062-88.237
		l8.668,5.509l-56.062,88.235L810.5,607.297z"/>
	<path fill="#B7B6CC" d="M888.243,557.173l14.517-22.849l22.85,14.518l-14.519,22.849L888.243,557.173z"/>
	<path fill="#BEBED0" d="M897.932,814.211c-8.49-2.07-21.581-5.091-28.24-5.761c-10.351-1-10.351-14-3.101-12.42
		c3.92,0.851,7.399-1.359,9.75-3.551c0.714-0.686,1.382-1.416,2-2.189c0.854-1.039,2.034-1.762,3.351-2.05
		c3.88-0.84,12-2.12,16.91,0.55c1.147,0.714,2.076,1.73,2.68,2.939c2.23,4,3.391,10.65,4,16c0.355,3.296-2.029,6.254-5.324,6.607
		C899.279,814.411,898.596,814.368,897.932,814.211z M767.061,819.381c-8.479-2.069-21.569-5.091-28.229-5.761
		c-10.35-1-10.35-14-3.109-12.409c4.739,1,8.819-2.41,11.069-4.891c0.28-0.301,0.53-0.591,0.74-0.859c0.86-1.021,2.035-1.724,3.34-2
		c3.88-0.851,12-2.131,16.92,0.55c1.46,0.779,2.62,2.5,3.551,4.729c1.67,4,2.59,9.601,3.101,14.229
		c0.318,3.298-2.097,6.23-5.396,6.55C768.382,819.584,767.709,819.537,767.061,819.381L767.061,819.381z"/>
	<path opacity="0.1" enable-background="new    " d="M771.341,798.7c-12.351,12.729-22.939-0.239-24.551-2.38
		c0.28-0.301,0.53-0.591,0.74-0.859c0.86-1.021,2.035-1.724,3.34-2c3.88-0.851,12-2.131,16.92,0.55
		C769.25,794.751,770.46,796.471,771.341,798.7z M901.331,791.732c-5.35,3.649-23.36,2.75-23.36,2.75
		c-0.594-0.625-1.139-1.294-1.63-2c0.714-0.687,1.382-1.418,2-2.19c0.854-1.039,2.034-1.762,3.351-2.05
		c3.88-0.84,12-2.12,16.91,0.55C899.767,789.497,900.712,790.515,901.331,791.732L901.331,791.732z"/>
	<path fill="#5C5C8E" d="M902.281,789.311c-3.629,4.66-24.31,3.62-24.31,3.62s-6.21-6.21-8.801-19.649
		c-2.59-13.439-24.829-56.38-24.829-56.38c-5.171-6.729-9.311-19.141-9.311-19.141l-8.79-56.38c0,0-42.41,55.859-41.891,67.76
		c0.521,11.899-9.319,59-9.319,59c-3.62,6.21-3.62,29-3.62,29c-13.439,14-24.819-2.59-24.819-2.59
		C744,783.691,748.141,748,748.141,748s6.21-30,6.721-48.619c0.51-18.62,6.729-23.271,6.729-23.271
		c4.83-19.192,13.057-37.365,24.289-53.66c3.12-4.471,5.19-6.859,5.19-6.859l83.79,9.83c-1.607,3.555-2.814,7.277-3.601,11.1
		c-5.45,23.4-7.261,65.45-7.261,65.45c19.141,12.41,24.83,46,24.83,46C888.83,756.721,902.281,789.311,902.281,789.311
		L902.281,789.311z"/>
	<g opacity="0.05">
		<path d="M821.63,648.271l-1.079-6.89c0,0-42.41,55.859-41.891,67.76c0.521,11.899-9.311,59-9.311,59c-3.63,6.21-3.63,29-3.63,29
			c-2.165,2.443-4.967,4.24-8.091,5.189c4.07,1.069,9,0.28,14.301-5.189c0,0,0-22.76,3.62-29c0,0,9.829-47.069,9.311-59
			C784.46,699.83,810.351,663.572,821.63,648.271L821.63,648.271z"/>
		<path d="M889.341,747.931c0,0-5.689-33.62-24.82-46c0,0,1.811-42.05,7.25-65.449c0.789-3.822,2-7.546,3.609-11.101l-83.79-9.811
			c0,0-0.199,0.22-0.56,0.659l78.14,9.171c-1.605,3.556-2.813,7.277-3.6,11.1c-5.45,23.4-7.26,65.45-7.26,65.45
			c19.14,12.41,24.829,46,24.829,46c0,8.79,13.45,41.38,13.45,41.38c-2.141,2.74-10.2,3.511-16.47,3.681
			c5,0.13,19.669,0.181,22.669-3.681C902.79,789.311,889.341,756.721,889.341,747.931L889.341,747.931z"/>
	</g>
	<path fill="#AE6E79" d="M775.551,608.281c-0.626,1.526-1.45,2.967-2.45,4.279c-3.109,4.19-9.58,9.729-21.42,8.21
		c-2.788-0.356-4.76-2.906-4.401-5.694c0.106-0.831,0.416-1.622,0.901-2.306c3.802-5.544,9.258-9.743,15.59-12
		c2.143-0.706,4.36-1.156,6.609-1.34L775.551,608.281z"/>
	<path fill="#42383C" d="M884.79,463.62l-41.479-15.17c0,0-11.899,6.21-7.239,15l40.39,25.351L884.79,463.62z"/>
	<path opacity="0.1" enable-background="new    " d="M884.951,463.79l-41.49-15.17c0,0-11.899,6.2-7.239,15l40.341,25.341
		L884.951,463.79z"/>
	<path fill="#AE6E79" d="M886.241,438.62c0,0-0.521,24.311,10.35,32.591c10.869,8.279-31.56,12.93-31.56,12.93s6.729-24.83,0-37.76
		C858.301,433.45,886.241,438.62,886.241,438.62L886.241,438.62z"/>
	<path opacity="0.1" enable-background="new    " d="M874.862,625.351c-1.607,3.557-2.814,7.278-3.601,11.101
		c-50,7.641-84.851-13.17-84.851-13.17c-0.189-0.3-0.37-0.601-0.53-0.899c3.12-4.471,5.19-6.859,5.19-6.859L874.862,625.351z
		 M775.551,608.281c-0.626,1.526-1.45,2.967-2.45,4.279c-4.79-0.8-8.619-10-9.33-11.739c2.143-0.707,4.361-1.156,6.609-1.34
		L775.551,608.281z"/>
	<path fill="#42383C" d="M890.38,460.351l-18.619,6.721L864,477.422c0,0-16,5.17-18.1,5.17c-2.101,0-7.761,2.069-11.381,10.34
		c-3.619,8.271-16.55,48.641-27.93,55.351c-11.381,6.71-41.381,51.721-41.381,51.721s5.171,14,11.381,11.899l14.479-11.899
		c0,0-11.38,11.38-4.66,21.729c0,0,42.42,25.341,100.87,9.82l0.51-15.511l2.591,12.41l29-18.101c0,0-2.591-33.391-7.261-50.38
		c-1.934-7.145-1.225-14.747,2-21.41c7.511-15.649,19.101-41.79,17.691-51.319c-1.672-11.229-8-16.109-10.441-17.58
		c-0.553-0.337-1.176-0.545-1.819-0.609l-9.47-0.939L890.38,460.351z"/>
	<path opacity="0.05" enable-background="new    " d="M858.572,512.33c0,0-10.351,48.101-21.729,55.86
		c-11.38,7.759-41.891,32.59-42.931,36.729"/>
	<path fill="#42383C" d="M853.911,510.781c0,0-10.34,48.101-21.72,55.859s-41.9,32.591-42.931,36.721"/>
	<path opacity="0.1" enable-background="new    " d="M863.741,477.16c0,0,35.69-11.899,46-8.8"/>
	<g opacity="0.05">
		<path d="M914.072,538.572c7.51-15.649,19.1-41.79,17.689-51.319c-1.67-11.229-8-16.11-10.439-17.58
			c-0.555-0.338-1.176-0.546-1.82-0.61l-4-0.399c0.425,0.098,0.828,0.263,1.199,0.49c2.42,1.479,8.771,6.351,10.43,17.59
			c1.41,9.521-10.18,35.67-17.68,51.319c-3.223,6.659-3.934,14.26-2,21.4c4.68,17,7.271,50.38,7.271,50.38l-24.939,15.59l0.63,3
			l29-18.1c0,0-2.59-33.391-7.26-50.381C910.198,552.825,910.88,545.236,914.072,538.572L914.072,538.572z M905.38,467.591
			l4.48,0.449l-19.48-7.689l-1.75,0.63L905.38,467.591z"/>
	</g>
	<path opacity="0.05" enable-background="new    " d="M853.911,560.95c0,0,16-8.79,21.21-6.721c5.21,2.07,24.311-0.52,24.311-0.52
		 M884.46,445.091c-0.59-5.189,1.811-4.4,1.811-4.4s-27.93-5.17-21.21,7.761c1.694,3.562,2.66,7.429,2.841,11.37h0.27
		C875.931,459.83,880.46,451.152,884.46,445.091z"/>
	<circle fill="#AE6E79" cx="868.141" cy="435.521" r="22.24"/>
	<path opacity="0.1" enable-background="new    " d="M892.46,442.101c2-4.43,3.49-9.229,3.25-14.09
		c-0.239-4.859-2.42-9.79-6.459-12.51c-2.08-1.4-4.54-2.15-6.71-3.431c-1.689-1-3.18-2.311-4.79-3.431
		c-8.019-5.465-18.346-6.228-27.08-2c-4.08,2-7.56,5.11-11.409,7.561c-3.851,2.449-8.391,4.33-12.899,3.609
		c-0.78,2.15,1.13,4.271,2.88,5.75c3.33,2.79,7.101,5.57,11.439,5.66c1.681,0,3.45-0.32,5,0.38c1.026,0.567,1.898,1.377,2.54,2.36
		c2.089,2.775,3.858,5.778,5.279,8.949c0.436,1.362,1.255,2.571,2.36,3.479c2,1.28,4.59,0.21,7,0.12c3.68-0.15,7,2.17,9.72,4.649
		c2.721,2.479,5.32,5.319,8.761,6.63c2.569,1,7.71,0.939,9-2.13c0.489-1.159-0.46-3.641-0.261-5.061
		C890.563,446.332,891.364,444.144,892.46,442.101L892.46,442.101z"/>
	<path fill="#42383C" d="M892.92,441.572c2-4.431,3.5-9.229,3.25-14.08s-2.409-9.8-6.45-12.51c-2.091-1.41-4.551-2.16-6.71-3.44
		c-1.689-1-3.181-2.3-4.79-3.43c-8.019-5.466-18.347-6.229-27.08-2c-4.08,2-7.561,5.101-11.409,7.55
		c-3.852,2.45-8.392,4.341-12.9,3.609c-0.779,2.16,1.12,4.28,2.88,5.75c3.33,2.79,7.101,5.57,11.44,5.67c1.68,0,3.449-0.329,5,0.381
		c1.031,0.562,1.904,1.373,2.539,2.359c2.089,2.771,3.855,5.771,5.271,8.939c0.438,1.364,1.263,2.572,2.37,3.479
		c2,1.28,4.59,0.21,7,0.12c3.681-0.141,7,2.18,9.71,4.66c2.71,2.479,5.32,5.31,8.771,6.62c2.569,1,7.71,0.938,9-2.131
		c0.5-1.159-0.449-3.641-0.25-5.061C891.037,445.797,891.83,443.613,892.92,441.572z"/>
	<path opacity="0.1" enable-background="new    " d="M731.92,770.001c-1.864,1.53-4.207,2.358-6.619,2.34l-446.771-1.899
		c-2.423-2.917-3.534-6.706-3.069-10.471l44.141-361.17l27.68-0.3c4.761-0.049,8.953,3.125,10.2,7.72l5.17,19.08
		c1.26,4.646,5.527,7.832,10.341,7.72l110.47-2.649c5.679-0.136,10.212-4.779,10.21-10.46v-12.641c0-5.729,4.61-10.395,10.34-10.46
		l153.08-1.649c5.055-0.047,9.419,3.525,10.37,8.49l67.7,354l0.439,2.279C736.331,763.71,734.916,767.583,731.92,770.001
		L731.92,770.001z"/>
	<path fill="#E6E8EE" d="M652.09,400.171l-153.08,1.649c-5.729,0.061-10.345,4.72-10.35,10.449v12.65
		c-0.004,5.673-4.529,10.31-10.2,10.449L368,438.019c-4.816,0.121-9.093-3.067-10.351-7.72l-5.189-19.067
		c-1.245-4.602-5.444-7.776-10.21-7.721l-147.55,1.59c-5.771,0.058-10.404,4.78-10.348,10.553c0.006,0.553,0.055,1.104,0.146,1.647
		l59.359,349.359c0.852,5.015,5.185,8.688,10.271,8.71l466.141,2c5.776,0.02,10.477-4.647,10.496-10.424
		c0.002-0.67-0.062-1.338-0.187-1.996l-68.12-356.29C661.512,403.696,657.147,400.119,652.09,400.171L652.09,400.171z"/>
	<path fill="#F6BAC2" d="M867.681,160.931l-0.801,8.899l0.58,15.74l-1.689,26.55c0,0-0.239,11.63-6.811,17.08l-16.77,25.75
		l-0.102,0.05l-6.31,3.08l-9.63,1l-5-12.109l3.31-13.301l1.841-2.479l0.511-0.561c2-2.199,9.72-10.189,15.85-12.68
		c0,0,4.09-3,3.37-7.7c-0.721-4.7,5.521-29.68,5.521-29.68s4-16.521,3.13-18.131c-0.869-1.609-0.159-38.181,13.641-38.739
		C882.121,123.141,867.681,160.931,867.681,160.931L867.681,160.931z"/>
	<ellipse opacity="0.1" fill="#BBB8FA" enable-background="new    " cx="151.43" cy="700.882" rx="16.21" ry="2.23"/>
	<ellipse opacity="0.1" fill="#BBB8FA" enable-background="new    " cx="89.34" cy="707.172" rx="16.21" ry="2.23"/>
	<ellipse opacity="0.1" fill="#BBB8FA" enable-background="new    " cx="16.21" cy="698.651" rx="16.21" ry="2.23"/>
	<ellipse opacity="0.1" fill="#BBB8FA" enable-background="new    " cx="114.191" cy="725.101" rx="11.521" ry="1.58"/>
	<ellipse opacity="0.1" fill="#BBB8FA" enable-background="new    " cx="49.75" cy="723.521" rx="11.521" ry="1.58"/>
	<path fill="#BBB8FA" d="M88.991,706.681c0,0,22.729-74.521-3.562-104.37c-19.67-22.329-42-19.659-52-16.899
		c-5.232,1.397-9.59,5.021-11.92,9.91c-3.5,7.54-2.87,19.779,21.811,34.069c41.311,23.92,43.881,56.729,43.881,56.729
		L88.991,706.681z"/>
	<path fill="none" stroke="#565987" stroke-miterlimit="10" d="M37,595.982c0,0,67,21,52,110.699 M76.14,603.491
		c0,0-9.229,6.22-6.289,15.569 M43.72,609.031c0,0,5.641-5.74,12.511-2.569 M70.21,637.891c0,0,9.91-5,12.47,1.271 M94.72,648.362
		c0,0-7.439-0.591-7.569,3"/>
	<path fill="#BBB8FA" d="M89.911,707.271c0,0-26.631-54.159-33.94-53c-3.47,0.57-5.069,4-5.8,7.42
		c-0.896,4.438-0.391,9.045,1.45,13.181C55.401,683.572,65.55,700.021,89.911,707.271z"/>
	<path fill="none" stroke="#565987" stroke-miterlimit="10" d="M56.17,664.572c0,0,27.939,40.521,33.34,42.3 M53.601,670.902h6.521
		 M61.411,685.721l10.229,0.439 M67.64,673.862l-1.109,5.33 M78.51,690.072l-0.199,4.84"/>
	<path fill="#BBB8FA" d="M89.12,707.271c0,0,26.62-54.159,33.93-53c3.479,0.57,5.08,4,5.801,7.42
		c0.896,4.438,0.391,9.045-1.45,13.181C123.62,683.572,113.46,700.021,89.12,707.271z"/>
	<path fill="none" stroke="#565987" stroke-miterlimit="10" d="M122.861,664.572c0,0-28,40.521-33.351,42.3 M125.43,670.902h-6.52
		 M117.62,685.721l-10.23,0.439 M111.39,673.862l1.11,5.33 M100.521,690.072l0.199,4.84"/>
	<path fill="#BBB8FA" d="M43.401,719.921c-0.726-0.593-1.251-1.392-1.511-2.29c-0.255-0.931,0.191-1.911,1.062-2.33
		c1-0.37,2,0.3,2.8,1s1.71,1.439,2.71,1.271c-1.08-0.979-1.564-2.451-1.28-3.88c0.041-0.291,0.162-0.564,0.351-0.79
		c0.54-0.58,1.521-0.33,2.171,0.13c2,1.439,2.63,4.229,2.64,6.75c0.101-0.924,0.101-1.855,0-2.779
		c-0.054-0.946,0.366-1.856,1.12-2.431c0.486-0.267,1.035-0.396,1.59-0.38c0.931-0.134,1.871,0.137,2.591,0.739
		c0.699,0.953,0.658,2.263-0.101,3.17c-0.767,0.859-1.673,1.583-2.681,2.141c-0.766,0.461-1.417,1.086-1.909,1.83
		c-0.062,0.101-0.108,0.208-0.141,0.319h-5.819C45.688,721.735,44.481,720.904,43.401,719.921L43.401,719.921z M144.851,698.101
		c-0.727-0.586-1.254-1.383-1.511-2.279c-0.257-0.929,0.186-1.907,1.05-2.33c1-0.37,2,0.3,2.801,1
		c0.801,0.699,1.699,1.46,2.729,1.311c-1.08-0.975-1.568-2.443-1.29-3.87c0.044-0.292,0.169-0.564,0.36-0.79
		c0.539-0.58,1.52-0.33,2.17,0.12c2.05,1.449,2.63,4.239,2.64,6.76c0.101-0.928,0.101-1.861,0-2.79c-0.091-0.935,0.283-1.854,1-2.46
		c0.489-0.259,1.037-0.387,1.59-0.369c0.929-0.132,1.867,0.135,2.591,0.729c0.703,0.958,0.656,2.272-0.109,3.18
		c-0.761,0.861-1.664,1.585-2.67,2.141c-0.766,0.456-1.418,1.078-1.91,1.819c-0.059,0.104-0.104,0.216-0.141,0.33h-5.689
		C147.149,699.937,145.934,699.096,144.851,698.101z M111.04,719.921c-0.725-0.595-1.254-1.393-1.521-2.29
		c-0.256-0.931,0.19-1.911,1.061-2.33c1-0.37,2,0.3,2.8,1s1.689,1.46,2.729,1.319c-1.078-0.979-1.566-2.45-1.29-3.88
		c0.045-0.291,0.17-0.564,0.359-0.79c0.54-0.58,1.521-0.33,2.171,0.13c2.05,1.439,2.619,4.229,2.641,6.75
		c0.1-0.924,0.1-1.855,0-2.779c-0.079-0.942,0.313-1.864,1.05-2.46c0.486-0.268,1.035-0.397,1.59-0.381
		c0.93-0.131,1.87,0.138,2.59,0.74c0.701,0.955,0.655,2.267-0.109,3.17c-0.762,0.858-1.665,1.583-2.67,2.141
		c-0.766,0.46-1.417,1.085-1.91,1.83c-0.061,0.1-0.107,0.207-0.14,0.319h-5.801C113.301,721.742,112.109,720.906,111.04,719.921z
		 M15.151,675.822c0,0-2.17,2.84,1,7.13s5.79,7.91,4.729,10.58c0,0-4.79-8-8.689-8.069C8.29,685.391,10.861,680.572,15.151,675.822z
		"/>
	<path opacity="0.1" enable-background="new    " d="M15.151,675.822c-0.188,0.274-0.335,0.573-0.439,0.891
		c-3.8,4.47-5.83,8.64-2.17,8.75c3.399,0.1,7.489,6.18,8.46,7.72c-0.031,0.118-0.066,0.235-0.109,0.351c0,0-4.79-8-8.689-8.07
		C8.3,685.391,10.861,680.572,15.151,675.822L15.151,675.822z"/>
	<path fill="#FFD037" d="M11.12,679.442c0,1,0.109,1.811,0.25,1.811c0.14,0,0.25-0.811,0.25-1.811s-0.141-0.53-0.28-0.53
		C11.201,678.911,11.12,678.442,11.12,679.442z"/>
	<path fill="#FFD037" d="M9.731,680.641c0.88,0.479,1.641,0.761,1.71,0.641s-0.59-0.601-1.471-1.08c-0.88-0.479-0.529-0.13-0.6,0
		C9.3,680.33,8.851,680.16,9.731,680.641z"/>
	<path fill="#BBB8FA" d="M26.62,675.822c0,0,2.18,2.84-1,7.13c-3.181,4.29-5.79,7.91-4.73,10.58c0,0,4.79-8,8.69-8.069
		C33.481,685.391,30.911,680.572,26.62,675.822z"/>
	<path opacity="0.1" enable-background="new    " d="M26.62,675.822c0.188,0.274,0.34,0.574,0.449,0.891
		c3.801,4.47,5.83,8.64,2.171,8.75c-3.4,0.1-7.49,6.18-8.471,7.72c0.028,0.12,0.068,0.237,0.119,0.351c0,0,4.79-8,8.69-8.07
		C33.481,685.391,30.911,680.572,26.62,675.822L26.62,675.822z"/>
	<path fill="#FFD037" d="M30.661,679.442c0,1-0.11,1.811-0.25,1.811c-0.141,0-0.25-0.811-0.25-1.811s0.14-0.53,0.279-0.53
		C30.58,678.91,30.661,678.442,30.661,679.442z"/>
	<path fill="#FFD037" d="M32.05,680.641c-0.88,0.479-1.649,0.761-1.71,0.641s0.59-0.601,1.471-1.08c0.88-0.479,0.529-0.13,0.59,0
		C32.46,680.33,32.92,680.16,32.05,680.641z"/>
	<path fill="#A8A8A8" d="M29.97,693.16c0,0-6.069-0.189-7.899-1.489c-1.829-1.301-9.34-2.86-9.8-0.771
		C11.811,692.99,3.151,701.3,10,701.35c6.851,0.051,15.93-1.069,17.76-2.18C29.59,698.061,29.97,693.16,29.97,693.16z"/>
	<path opacity="0.2" enable-background="new    " d="M9.88,700.62c6.86,0.061,15.931-1.061,17.76-2.18
		c1.391-0.841,1.94-3.881,2.131-5.29h0.199c0,0-0.38,4.899-2.21,6S16.861,701.39,10,701.33c-2,0-2.66-0.72-2.62-1.76
		C7.651,700.221,8.46,700.572,9.88,700.62z"/>
	<circle opacity="0.1" fill="#BBB8FA" enable-background="new    " cx="33.941" cy="126.71" r="21.63"/>
	<circle opacity="0.1" fill="#BBB8FA" enable-background="new    " cx="1074.031" cy="299.561" r="21.63"/>
	<circle opacity="0.1" fill="#BBB8FA" enable-background="new    " cx="685.21" cy="58.022" r="21.63"/>
	<circle opacity="0.1" fill="#BBB8FA" enable-background="new    " cx="77.201" cy="246.04" r="36.25"/>
	<path fill="#F6F7F9" d="M430.201,588.641l-1.28-1.279c-0.552-0.518-0.581-1.385-0.062-1.938c0.021-0.021,0.042-0.043,0.062-0.062
		l11.23-11.24c0.517-0.552,1.384-0.58,1.937-0.063c0.021,0.021,0.043,0.042,0.063,0.063l11.229,11.229
		c0.554,0.533,0.568,1.413,0.035,1.965c-0.012,0.013-0.022,0.023-0.035,0.035l-1.279,1.28c-0.533,0.552-1.413,0.567-1.966,0.034
		c-0.012-0.012-0.022-0.022-0.034-0.034l-6.641-7v16.609c0.006,0.763-0.606,1.385-1.37,1.391c-0.003,0-0.007,0-0.01,0h-1.85
		c-0.77,0-1.392-0.623-1.392-1.391l0,0V581.65l-6.64,7c-0.536,0.551-1.416,0.562-1.966,0.024
		C430.223,588.664,430.211,588.654,430.201,588.641L430.201,588.641z"/>
	<path fill="#F6F7F9" d="M441.13,563.91c12.587,0,22.79,10.204,22.79,22.79c0,12.587-10.203,22.79-22.79,22.79
		s-22.79-10.203-22.79-22.79l0,0C418.352,574.118,428.548,563.922,441.13,563.91 M441.13,560.91c-14.243,0-25.79,11.547-25.79,25.79
		c0,14.244,11.547,25.79,25.79,25.79s25.79-11.546,25.79-25.79l0,0C466.92,572.457,455.373,560.91,441.13,560.91z"/>
</g>
</svg>
